FW_Gmkhi_028.ufo
<glyph name="numbersign" format="1">
  <advance width="1352"/>
  <unicode hex="0023"/>
  <outline>
    <contour>
      <point x="266" y="0" type="line"/>
      <point x="307" y="0" type="line"/>
      <point x="381" y="430" type="line"/>
      <point x="381" y="430" type="line"/>
      <point x="481" y="1014" type="line"/>
      <point x="481" y="1014" type="line"/>
      <point x="553" y="1434" type="line"/>
      <point x="512" y="1434" type="line"/>
    </contour>
    <contour>
      <point x="1167" y="449" type="line"/>
      <point x="897" y="449" type="line"/>
      <point x="897" y="449" type="line"/>
      <point x="360" y="449" type="line"/>
      <point x="360" y="449" type="line"/>
      <point x="100" y="449" type="line"/>
      <point x="100" y="410" type="line"/>
      <point x="1167" y="410" type="line"/>
    </contour>
    <contour>
      <point x="182" y="993" type="line"/>
      <point x="453" y="993" type="line"/>
      <point x="453" y="993" type="line"/>
      <point x="989" y="993" type="line"/>
      <point x="989" y="993" type="line"/>
      <point x="1249" y="993" type="line"/>
      <point x="1249" y="1032" type="line"/>
      <point x="182" y="1032" type="line"/>
    </contour>
    <contour>
      <point x="1083" y="1434" type="line"/>
      <point x="1042" y="1434" type="line"/>
      <point x="969" y="1004" type="line"/>
      <point x="969" y="1004" type="line"/>
      <point x="868" y="420" type="line"/>
      <point x="868" y="420" type="line"/>
      <point x="797" y="0" type="line"/>
      <point x="838" y="0" type="line"/>
    </contour>
  </outline>
</glyph>
<glyph name="dollar" format="1">
  <advance width="1274"/>
  <unicode hex="0024"/>
  <outline>
    <contour>
      <point x="1075" y="1264" type="line"/>
      <point x="983.208955224" y="1344.59701493"/>
      <point x="760.537313433" y="1432.0"/>
      <point x="618" y="1432" type="qcurve" smooth="yes"/>
      <point x="423.970149254" y="1432.0"/>
      <point x="188.0" y="1222.01492537"/>
      <point x="188" y="1075" type="qcurve"/>
      <point x="188" y="1075" type="line"/>
      <point x="188.0" y="920.52238806"/>
      <point x="414.343283582" y="758.52238806"/>
      <point x="633" y="713" type="qcurve"/>
      <point x="647" y="707" type="line"/>
      <point x="859.686567164" y="656.253731343"/>
      <point x="1075.0" y="517.268656716"/>
      <point x="1075" y="371" type="qcurve"/>
      <point x="1075" y="371" type="line"/>
      <point x="1075.0" y="229.955223881"/>
      <point x="858.597014925" y="37.0"/>
      <point x="678" y="37" type="qcurve"/>
      <point x="678" y="37" type="line"/>
      <point x="533.970149254" y="37.0"/>
      <point x="270.23880597" y="151.253731343"/>
      <point x="168" y="252" type="qcurve"/>
      <point x="137" y="221" type="line"/>
      <point x="240.731343284" y="120.253731343"/>
      <point x="524.507462687" y="0.0"/>
      <point x="676" y="0" type="qcurve" smooth="yes"/>
      <point x="878.985074627" y="0.0"/>
      <point x="1120.0" y="214.044776119"/>
      <point x="1120" y="373" type="qcurve"/>
      <point x="1120" y="373" type="line"/>
      <point x="1120.0" y="533.447761194"/>
      <point x="876.582089552" y="697.76119403"/>
      <point x="643" y="750" type="qcurve"/>
      <point x="629" y="756" type="line"/>
      <point x="425.268656716" y="803.014925373"/>
      <point x="233.0" y="941.179104478"/>
      <point x="233" y="1077" type="qcurve"/>
      <point x="233" y="1077" type="line"/>
      <point x="233.0" y="1206.85074627"/>
      <point x="442.626865672" y="1395.0"/>
      <point x="618" y="1395" type="qcurve"/>
      <point x="618" y="1395" type="line"/>
      <point x="757.552238806" y="1395.0"/>
      <point x="958.194029851" y="1308.6119403"/>
      <point x="1047" y="1231" type="qcurve"/>
    </contour>
    <contour>
      <point x="618" y="745" type="line"/>
      <point x="618" y="20" type="line"/>
      <point x="618" y="20" type="line"/>
      <point x="618" y="-201" type="line"/>
      <point x="657" y="-201" type="line"/>
      <point x="657" y="18" type="line"/>
      <point x="657" y="18" type="line"/>
      <point x="657" y="735" type="line"/>
    </contour>
    <contour>
      <point x="657" y="715" type="line"/>
      <point x="657" y="1417" type="line"/>
      <point x="657" y="1417" type="line"/>
      <point x="657" y="1552" type="line"/>
      <point x="618" y="1552" type="line"/>
      <point x="618" y="1417" type="line"/>
      <point x="618" y="1417" type="line"/>
      <point x="618" y="725" type="line"/>
    </contour>
  </outline>
</glyph>
<glyph name="ampersand" format="1">
  <advance width="1387"/>
  <unicode hex="0026"/>
  <outline>
    <contour>
      <point x="992.850746269" y="72.9850746269"/>
      <point x="742.328358209" y="30.0149253731"/>
      <point x="658" y="33" type="qcurve" smooth="yes"/>
      <point x="505.76119403" y="38.223880597"/>
      <point x="354.0" y="194.895522388"/>
      <point x="354" y="274" type="qcurve" smooth="yes"/>
      <point x="354.0" y="344.895522388"/>
      <point x="494.208955224" y="488.835820896"/>
      <point x="636" y="506" type="qcurve"/>
      <point x="1217" y="506" type="line"/>
      <point x="1217" y="542" type="line"/>
      <point x="629" y="542" type="line"/>
      <point x="511.835820896" y="549.462686567"/>
      <point x="374.0" y="709.029850746"/>
      <point x="374" y="765" type="qcurve" smooth="yes"/>
      <point x="374.0" y="853.805970149"/>
      <point x="511.985074627" y="978.0"/>
      <point x="659" y="978" type="qcurve" smooth="yes"/>
      <point x="724.671641791" y="978.0"/>
      <point x="923.179104478" y="941.313432836"/>
      <point x="1009" y="904" type="qcurve"/>
      <point x="1027" y="937" type="line"/>
      <point x="944.910447761" y="972.074626866"/>
      <point x="728.880597015" y="1014.0"/>
      <point x="655" y="1014" type="qcurve" smooth="yes"/>
      <point x="497.537313433" y="1014.0"/>
      <point x="337.0" y="874.492537313"/>
      <point x="337" y="773" type="qcurve" smooth="yes"/>
      <point x="337.0" y="705.089552239"/>
      <point x="471.089552239" y="531.179104478"/>
      <point x="589" y="517" type="qcurve"/>
      <point x="589" y="528" type="line"/>
      <point x="448.701492537" y="501.880597015"/>
      <point x="318.0" y="347.611940299"/>
      <point x="318" y="270" type="qcurve" smooth="yes"/>
      <point x="318.0" y="179.701492537"/>
      <point x="492.373134328" y="-0.507462686567"/>
      <point x="667" y="-2" type="qcurve" smooth="yes"/>
      <point x="761.029850746" y="-2.74626865672"/>
      <point x="1002.79104478" y="42.9253731343"/>
      <point x="1061" y="78" type="qcurve"/>
      <point x="1061.74626866" y="70.5373134328"/>
      <point x="1062.25373134" y="128.955223881"/>
      <point x="1063" y="120" type="qcurve"/>
    </contour>
    <contour>
      <point x="1062" y="88" type="line"/>
      <point x="1062" y="537" type="line"/>
      <point x="1027" y="537" type="line"/>
      <point x="1027" y="66" type="line"/>
    </contour>
  </outline>
</glyph>
<glyph name="quotesingle" format="1">
  <advance width="360"/>
  <unicode hex="0027"/>
  <outline>
    <contour>
      <point x="123" y="913" type="line"/>
      <point x="147" y="913" type="line"/>
      <point x="246" y="1430" type="line"/>
      <point x="246" y="1434" type="line"/>
      <point x="195" y="1434" type="line"/>
    </contour>
  </outline>
</glyph>
<glyph name="parenleft" format="1">
  <advance width="674"/>
  <unicode hex="0028"/>
  <outline>
    <contour>
      <point x="559" y="-294" type="line"/>
      <point x="377.656716418" y="-144.746268657"/>
      <point x="183.0" y="215.731343284"/>
      <point x="183" y="512" type="qcurve" smooth="yes"/>
      <point x="183.0" y="785.880597015"/>
      <point x="377.656716418" y="1173.71641791"/>
      <point x="559" y="1317" type="qcurve"/>
      <point x="540" y="1342" type="line"/>
      <point x="335.52238806" y="1177.07462687"/>
      <point x="147.0" y="766.23880597"/>
      <point x="147" y="514" type="qcurve" smooth="yes"/>
      <point x="147" y="512" type="line" smooth="yes"/>
      <point x="147.0" y="257.52238806"/>
      <point x="318.358208955" y="-138.402985075"/>
      <point x="540" y="-319" type="qcurve"/>
    </contour>
  </outline>
</glyph>
<glyph name="asterisk" format="1">
  <advance width="951"/>
  <unicode hex="002A"/>
  <outline>
    <contour>
      <point x="459" y="743" type="line"/>
      <point x="492" y="743" type="line"/>
      <point x="490.507462687" y="787.029850746"/>
      <point x="487.492537313" y="873.71641791"/>
      <point x="486" y="917" type="qcurve"/>
      <point x="633" y="824" type="line"/>
      <point x="650" y="851" type="line"/>
      <point x="611.940298507" y="870.402985075"/>
      <point x="534.805970149" y="914.597014925"/>
      <point x="496" y="934" type="qcurve"/>
      <point x="651" y="1017" type="line"/>
      <point x="634" y="1044" type="line"/>
      <point x="598.925373134" y="1020.86567164"/>
      <point x="522.567164179" y="976.134328358"/>
      <point x="486" y="953" type="qcurve"/>
      <point x="492" y="1126" type="line"/>
      <point x="459" y="1126" type="line"/>
      <point x="464" y="953" type="line"/>
      <point x="317" y="1044" type="line"/>
      <point x="300" y="1017" type="line"/>
      <point x="455" y="934" type="line"/>
      <point x="301" y="851" type="line"/>
      <point x="318" y="824" type="line"/>
      <point x="353.820895522" y="847.134328358"/>
      <point x="465.0" y="917.253731343"/>
      <point x="465" y="918" type="qcurve"/>
    </contour>
  </outline>
</glyph>
<glyph name="slash" format="1">
  <advance width="637"/>
  <unicode hex="002F"/>
  <outline>
    <contour>
      <point x="537" y="1261" type="line"/>
      <point x="494" y="1261" type="line"/>
      <point x="81" y="-84" type="line"/>
      <point x="123" y="-84" type="line"/>
    </contour>
  </outline>
</glyph>
<glyph name="four" format="1">
  <advance width="907"/>
  <unicode hex="0034"/>
  <outline>
    <contour>
      <point x="84" y="244" type="line"/>
      <point x="128" y="253" type="line"/>
      <point x="551" y="919" type="line"/>
      <point x="511" y="919" type="line"/>
    </contour>
    <contour>
      <point x="85" y="244" type="line"/>
      <point x="100" y="217" type="line"/>
      <point x="824" y="217" type="line"/>
      <point x="824" y="253" type="line"/>
      <point x="108" y="253" type="line"/>
    </contour>
    <contour>
      <point x="672" y="619" type="line"/>
      <point x="637" y="619" type="line"/>
      <point x="637" y="598" type="line"/>
      <point x="637" y="0" type="line"/>
      <point x="672" y="0" type="line"/>
    </contour>
  </outline>
</glyph>
<glyph name="five" format="1">
  <advance width="829"/>
  <unicode hex="0035"/>
  <outline>
    <contour>
      <point x="149" y="525" type="line"/>
      <point x="182" y="526" type="line"/>
      <point x="242" y="893" type="line"/>
      <point x="230" y="882" type="line"/>
      <point x="708" y="882" type="line"/>
      <point x="708" y="918" type="line"/>
      <point x="210" y="918" type="line"/>
    </contour>
    <contour>
      <point x="149" y="525" type="line"/>
      <point x="158" y="489" type="line"/>
      <point x="202.029850746" y="496.462686567"/>
      <point x="334.343283582" y="510.0"/>
      <point x="403" y="510" type="qcurve" smooth="yes"/>
      <point x="555.23880597" y="510.0"/>
      <point x="703.0" y="369.029850746"/>
      <point x="703" y="275" type="qcurve" smooth="yes"/>
      <point x="703" y="273" type="line" smooth="yes"/>
      <point x="703.0" y="165.537313433"/>
      <point x="546.149253731" y="33.0"/>
      <point x="426" y="33" type="qcurve" smooth="yes"/>
      <point x="332.71641791" y="33.0"/>
      <point x="181.044776119" y="84.5671641791"/>
      <point x="90" y="148" type="qcurve"/>
      <point x="76" y="116" type="line"/>
      <point x="137.194029851" y="68.9850746269"/>
      <point x="317.029850746" y="-3.0"/>
      <point x="423" y="-3" type="qcurve" smooth="yes"/>
      <point x="564.791044776" y="-3.0"/>
      <point x="739.0" y="149.626865672"/>
      <point x="739" y="275" type="qcurve" smooth="yes"/>
      <point x="739" y="278" type="line" smooth="yes"/>
      <point x="739.0" y="386.955223881"/>
      <point x="568.194029851" y="546.0"/>
      <point x="407" y="546" type="qcurve" smooth="yes"/>
      <point x="349.537313433" y="546.0"/>
      <point x="233.208955224" y="531.47761194"/>
      <point x="175" y="527" type="qcurve" smooth="yes"/>
    </contour>
  </outline>
</glyph>
<glyph name="six" format="1">
  <advance width="879"/>
  <unicode hex="0036"/>
  <outline>
    <contour>
      <point x="174" y="316" type="line"/>
      <point x="174.0" y="491.373134328"/>
      <point x="417.537313433" y="826.328358209"/>
      <point x="675" y="892" type="qcurve"/>
      <point x="653" y="921" type="line"/>
      <point x="386.582089552" y="850.850746269"/>
      <point x="138.0" y="500.47761194"/>
      <point x="138" y="296" type="qcurve" smooth="yes"/>
      <point x="138" y="294" type="line" smooth="yes"/>
      <point x="138.0" y="286.537313433"/>
      <point x="138.0" y="289.71641791"/>
      <point x="138" y="283" type="qcurve" smooth="yes"/>
      <point x="140.985074627" y="168.820895522"/>
      <point x="323.47761194" y="-4.0"/>
      <point x="469" y="-4" type="qcurve" smooth="yes"/>
      <point x="607.059701493" y="-4.0"/>
      <point x="783.0" y="160.343283582"/>
      <point x="783" y="279" type="qcurve" smooth="yes"/>
      <point x="783.0" y="392.432835821"/>
      <point x="625.298507463" y="549.0"/>
      <point x="485" y="549" type="qcurve" smooth="yes"/>
      <point x="390.970149254" y="549.0"/>
      <point x="223.925373134" y="460.895522388"/>
      <point x="159" y="390" type="qcurve"/>
      <point x="159" y="353" type="line"/>
      <point x="232.134328358" y="434.343283582"/>
      <point x="399.164179104" y="513.0"/>
      <point x="482" y="513" type="qcurve" smooth="yes"/>
      <point x="596.925373134" y="513.0"/>
      <point x="747.0" y="379.746268657"/>
      <point x="747" y="279" type="qcurve" smooth="yes"/>
      <point x="747.0" y="176.76119403"/>
      <point x="581.880597015" y="32.0"/>
      <point x="458" y="32" type="qcurve" smooth="yes"/>
      <point x="331.134328358" y="32.0"/>
      <point x="174.0" y="193.28358209"/>
      <point x="174" y="300" type="qcurve"/>
    </contour>
  </outline>
</glyph>
<glyph name="eight" format="1">
  <advance width="863"/>
  <unicode hex="0038"/>
  <outline>
    <contour>
      <point x="602.641791045" y="-3.0"/>
      <point x="769.0" y="146.71641791"/>
      <point x="769" y="240" type="qcurve" smooth="yes"/>
      <point x="769" y="243" type="line" smooth="yes"/>
      <point x="769.0" y="319.119402985"/>
      <point x="625.432835821" y="460.611940299"/>
      <point x="512" y="483" type="qcurve"/>
      <point x="512" y="476" type="line"/>
      <point x="626.925373134" y="507.343283582"/>
      <point x="726.0" y="634.552238806"/>
      <point x="726" y="695" type="qcurve" smooth="yes"/>
      <point x="726" y="697" type="line" smooth="yes"/>
      <point x="726.0" y="779.835820896"/>
      <point x="571.298507463" y="919.0"/>
      <point x="431" y="919" type="qcurve" smooth="yes"/>
      <point x="289.955223881" y="919.0"/>
      <point x="136.0" y="779.835820896"/>
      <point x="136" y="697" type="qcurve" smooth="yes"/>
      <point x="136" y="695" type="line" smooth="yes"/>
      <point x="136.0" y="627.089552239"/>
      <point x="239.537313433" y="505.343283582"/>
      <point x="347" y="474" type="qcurve"/>
      <point x="347" y="481" type="line"/>
      <point x="220.880597015" y="449.656716418"/>
      <point x="93.0" y="313.895522388"/>
      <point x="93" y="243" type="qcurve" smooth="yes"/>
      <point x="93" y="240" type="line" smooth="yes"/>
      <point x="93.0" y="151.194029851"/>
      <point x="257.119402985" y="-3.0"/>
      <point x="431" y="-3" type="qcurve" smooth="yes"/>
    </contour>
    <contour>
      <point x="336.970149254" y="493.0"/>
      <point x="172.0" y="612.910447761"/>
      <point x="172" y="695" type="qcurve" smooth="yes"/>
      <point x="172" y="697" type="line" smooth="yes"/>
      <point x="172.0" y="749.23880597"/>
      <point x="289.208955224" y="883.0"/>
      <point x="431" y="883" type="qcurve" smooth="yes"/>
      <point x="572.791044776" y="883.0"/>
      <point x="690.0" y="749.23880597"/>
      <point x="690" y="697" type="qcurve" smooth="yes"/>
      <point x="690" y="695" type="line" smooth="yes"/>
      <point x="690.0" y="628.582089552"/>
      <point x="549.656716418" y="493.0"/>
      <point x="431" y="493" type="qcurve" smooth="yes"/>
    </contour>
    <contour>
      <point x="271.298507463" y="33.0"/>
      <point x="129.0" y="167.597014925"/>
      <point x="129" y="237" type="qcurve" smooth="yes"/>
      <point x="129" y="240" type="line" smooth="yes"/>
      <point x="129.0" y="317.611940299"/>
      <point x="297.417910448" y="457.0"/>
      <point x="431" y="457" type="qcurve" smooth="yes"/>
      <point x="564.582089552" y="457.0"/>
      <point x="733.0" y="317.611940299"/>
      <point x="733" y="240" type="qcurve" smooth="yes"/>
      <point x="733" y="237" type="line" smooth="yes"/>
      <point x="733.0" y="163.119402985"/>
      <point x="589.208955224" y="33.0"/>
      <point x="431" y="33" type="qcurve" smooth="yes"/>
    </contour>
  </outline>
</glyph>
<glyph name="less" format="1">
  <advance width="1229"/>
  <unicode hex="003C"/>
  <outline>
    <contour>
      <point x="1059" y="229" type="line"/>
      <point x="1059" y="276" type="line"/>
      <point x="182" y="721" type="line"/>
      <point x="1059" y="1165" type="line"/>
      <point x="1059" y="1212" type="line"/>
      <point x="117" y="731" type="line"/>
      <point x="117" y="711" type="line"/>
    </contour>
  </outline>
</glyph>
<glyph name="equal" format="1">
  <advance width="1229"/>
  <unicode hex="003D"/>
  <outline>
    <contour>
      <point x="190" y="942" type="line"/>
      <point x="1038" y="942" type="line"/>
      <point x="1038" y="983" type="line"/>
      <point x="190" y="983" type="line"/>
    </contour>
    <contour>
      <point x="190" y="461" type="line"/>
      <point x="1038" y="461" type="line"/>
      <point x="1038" y="502" type="line"/>
      <point x="190" y="502" type="line"/>
    </contour>
  </outline>
</glyph>
<glyph name="at" format="1">
  <advance width="1432"/>
  <unicode hex="0040"/>
  <outline>
    <contour>
      <point x="851.328358209" y="-97.0"/>
      <point x="991.28358209" y="-72.8955223881"/>
      <point x="1048" y="-52" type="qcurve"/>
      <point x="1038" y="-21" type="line"/>
      <point x="966.358208955" y="-42.6417910448"/>
      <point x="844.373134328" y="-61.0"/>
      <point x="769" y="-61" type="qcurve" smooth="yes"/>
      <point x="522.731343284" y="-61.0"/>
      <point x="237.0" y="235.074626866"/>
      <point x="237" y="450" type="qcurve" smooth="yes"/>
      <point x="237.0" y="665.671641791"/>
      <point x="538.447761194" y="990.0"/>
      <point x="778" y="990" type="qcurve" smooth="yes"/>
      <point x="978.0" y="990.0"/>
      <point x="1248.0" y="738.552238806"/>
      <point x="1248" y="549" type="qcurve" smooth="yes"/>
      <point x="1248.0" y="396.76119403"/>
      <point x="1152.14925373" y="257.0"/>
      <point x="1082" y="257" type="qcurve" smooth="yes"/>
      <point x="1022.29850746" y="257.0"/>
      <point x="941.0" y="355.865671642"/>
      <point x="941" y="479" type="qcurve" smooth="yes"/>
      <point x="941.0" y="481.23880597"/>
      <point x="940.76119403" y="511.597014925"/>
      <point x="943" y="531" type="qcurve" smooth="yes"/>
      <point x="961" y="707" type="line"/>
      <point x="917" y="718" type="line"/>
      <point x="901.328358209" y="722.47761194"/>
      <point x="799.0" y="736.0"/>
      <point x="799" y="736" type="qcurve" smooth="yes"/>
      <point x="663.179104478" y="736.0"/>
      <point x="501.0" y="523.343283582"/>
      <point x="501" y="392" type="qcurve" smooth="yes"/>
      <point x="501.0" y="308.417910448"/>
      <point x="584.298507463" y="220.0"/>
      <point x="644" y="220" type="qcurve" smooth="yes"/>
      <point x="722.358208955" y="220.0"/>
      <point x="867.955223881" y="355.28358209"/>
      <point x="909" y="462" type="qcurve"/>
      <point x="906.76119403" y="337.373134328"/>
      <point x="1006.13432836" y="220.0"/>
      <point x="1083" y="220" type="qcurve" smooth="yes"/>
      <point x="1169.56716418" y="220.0"/>
      <point x="1284.0" y="384.074626866"/>
      <point x="1284" y="549" type="qcurve" smooth="yes"/>
      <point x="1284.0" y="751.985074627"/>
      <point x="992.402985075" y="1026.0"/>
      <point x="773" y="1026" type="qcurve" smooth="yes"/>
      <point x="528.970149254" y="1026.0"/>
      <point x="200.0" y="674.373134328"/>
      <point x="200" y="449" type="qcurve" smooth="yes"/>
      <point x="200.0" y="224.373134328"/>
      <point x="507.298507463" y="-97.0"/>
      <point x="767" y="-97" type="qcurve" smooth="yes"/>
    </contour>
    <contour>
      <point x="596.985074627" y="257.0"/>
      <point x="540.0" y="326.626865672"/>
      <point x="540" y="402" type="qcurve" smooth="yes"/>
      <point x="540.0" y="520.656716418"/>
      <point x="691.268656716" y="700.0"/>
      <point x="795" y="700" type="qcurve" smooth="yes"/>
      <point x="799.47761194" y="700.0"/>
      <point x="899.313432836" y="683.985074627"/>
      <point x="912" y="681" type="qcurve"/>
      <point x="912.746268657" y="661.597014925"/>
      <point x="908.895522388" y="547.970149254"/>
      <point x="888" y="492" type="qcurve" smooth="yes"/>
      <point x="852.179104478" y="394.985074627"/>
      <point x="712.656716418" y="257.0"/>
      <point x="644" y="257" type="qcurve" smooth="yes"/>
    </contour>
  </outline>
</glyph>
<glyph name="bracketleft" format="1">
  <advance width="674"/>
  <unicode hex="005B"/>
  <outline>
    <contour>
      <point x="555" y="-308" type="line"/>
      <point x="555" y="-272" type="line"/>
      <point x="345" y="-272" type="line"/>
      <point x="345" y="1295" type="line"/>
      <point x="555" y="1295" type="line"/>
      <point x="555" y="1331" type="line"/>
      <point x="311" y="1331" type="line"/>
      <point x="311" y="-308" type="line"/>
    </contour>
  </outline>
</glyph>
<glyph name="backslash" format="1">
  <advance width="639"/>
  <unicode hex="005C"/>
  <outline>
    <contour>
      <point x="504" y="-84" type="line"/>
      <point x="544" y="-84" type="line"/>
      <point x="144" y="1261" type="line"/>
      <point x="103" y="1261" type="line"/>
    </contour>
  </outline>
</glyph>
<glyph name="bracketright" format="1">
  <advance width="674"/>
  <unicode hex="005D"/>
  <outline>
    <contour>
      <point x="443" y="-308" type="line"/>
      <point x="443" y="1331" type="line"/>
      <point x="199" y="1331" type="line"/>
      <point x="199" y="1295" type="line"/>
      <point x="409" y="1295" type="line"/>
      <point x="409" y="-272" type="line"/>
      <point x="199" y="-272" type="line"/>
      <point x="199" y="-308" type="line"/>
    </contour>
  </outline>
</glyph>
<glyph name="asciicircum" format="1">
  <advance width="1024"/>
  <unicode hex="005E"/>
  <outline>
    <contour>
      <point x="180" y="1012" type="line"/>
      <point x="215" y="1012" type="line"/>
      <point x="512" y="1386" type="line"/>
      <point x="809" y="1012" type="line"/>
      <point x="844" y="1012" type="line"/>
      <point x="524" y="1440" type="line"/>
      <point x="500" y="1440" type="line"/>
    </contour>
  </outline>
</glyph>
<glyph name="underscore" format="1">
  <advance width="949"/>
  <unicode hex="005F"/>
  <outline>
    <contour>
      <point x="946" y="-170" type="line"/>
      <point x="-1" y="-170" type="line"/>
      <point x="1" y="-206" type="line"/>
      <point x="946" y="-206" type="line"/>
    </contour>
  </outline>
</glyph>
<glyph name="asciitilde" format="1">
  <advance width="901"/>
  <unicode hex="007E"/>
  <outline>
    <contour>
      <point x="630.507462687" y="528.0"/>
      <point x="711.089552239" y="603.194029851"/>
      <point x="729" y="692" type="qcurve"/>
      <point x="702" y="698" type="line"/>
      <point x="679.611940299" y="623.373134328"/>
      <point x="622.567164179" y="569.0"/>
      <point x="586" y="569" type="qcurve" smooth="yes"/>
      <point x="561.373134328" y="569.0"/>
      <point x="498.582089552" y="603.358208955"/>
      <point x="465" y="625" type="qcurve" smooth="yes"/>
      <point x="428.432835821" y="647.388059701"/>
      <point x="351.089552239" y="688.0"/>
      <point x="319" y="688" type="qcurve" smooth="yes"/>
      <point x="270.492537313" y="688.0"/>
      <point x="190.656716418" y="612.805970149"/>
      <point x="172" y="524" type="qcurve"/>
      <point x="199" y="518" type="line"/>
      <point x="221.388059701" y="592.626865672"/>
      <point x="278.432835821" y="647.0"/>
      <point x="315" y="647" type="qcurve" smooth="yes"/>
      <point x="339.626865672" y="647.0"/>
      <point x="402.417910448" y="613.641791045"/>
      <point x="436" y="592" type="qcurve" smooth="yes"/>
      <point x="472.567164179" y="568.865671642"/>
      <point x="549.910447761" y="528.0"/>
      <point x="582" y="528" type="qcurve" smooth="yes"/>
    </contour>
  </outline>
</glyph>
<glyph name="yen" format="1">
  <advance width="1264"/>
  <unicode hex="00A5"/>
  <outline>
    <contour>
      <point x="610" y="0" type="line"/>
      <point x="655" y="0" type="line"/>
      <point x="655" y="600" type="line"/>
      <point x="1219" y="1434" type="line"/>
      <point x="1165" y="1434" type="line"/>
      <point x="635" y="639" type="line"/>
      <point x="102" y="1434" type="line"/>
      <point x="45" y="1434" type="line"/>
      <point x="610" y="600" type="line"/>
    </contour>
    <contour>
      <point x="188" y="594" type="line"/>
      <point x="1075" y="594" type="line"/>
      <point x="1075" y="635" type="line"/>
      <point x="188" y="635" type="line"/>
    </contour>
    <contour>
      <point x="188" y="246" type="line"/>
      <point x="1075" y="246" type="line"/>
      <point x="1075" y="287" type="line"/>
      <point x="188" y="287" type="line"/>
    </contour>
  </outline>
</glyph>
<glyph name="section" format="1">
  <advance width="1294"/>
  <unicode hex="00A7"/>
  <outline>
    <contour>
      <point x="943.044776119" y="454.552238806"/>
      <point x="1147.0" y="594.71641791"/>
      <point x="1147" y="688" type="qcurve" smooth="yes"/>
      <point x="1147" y="692" type="line" smooth="yes"/>
      <point x="1147.0" y="791.253731343"/>
      <point x="946.537313433" y="918.925373134"/>
      <point x="754" y="954" type="qcurve" smooth="yes"/>
      <point x="547.28358209" y="992.805970149"/>
      <point x="324.0" y="1107.25373134"/>
      <point x="324" y="1208" type="qcurve" smooth="yes"/>
      <point x="324" y="1212" type="line" smooth="yes"/>
      <point x="324.0" y="1299.31343284"/>
      <point x="500.253731343" y="1413.0"/>
      <point x="651" y="1413" type="qcurve" smooth="yes"/>
      <point x="759.955223881" y="1413.0"/>
      <point x="976.298507463" y="1330.74626866"/>
      <point x="1036" y="1280" type="qcurve"/>
      <point x="1065" y="1315" type="line"/>
      <point x="1002.31343284" y="1367.98507463"/>
      <point x="773.388059701" y="1454.0"/>
      <point x="651" y="1454" type="qcurve" smooth="yes"/>
      <point x="475.626865672" y="1454.0"/>
      <point x="279.0" y="1309.76119403"/>
      <point x="279" y="1212" type="qcurve" smooth="yes"/>
      <point x="279" y="1208" type="line" smooth="yes"/>
      <point x="279.0" y="1111.73134328"/>
      <point x="431.567164179" y="998.104477612"/>
      <point x="545" y="969" type="qcurve"/>
      <point x="353.955223881" y="979.447761194"/>
      <point x="150.0" y="838.28358209"/>
      <point x="150" y="745" type="qcurve" smooth="yes"/>
      <point x="150" y="741" type="line" smooth="yes"/>
      <point x="150.0" y="641.746268657"/>
      <point x="350.462686567" y="514.074626866"/>
      <point x="543" y="479" type="qcurve" smooth="yes"/>
      <point x="748.970149254" y="440.940298507"/>
      <point x="973.0" y="325.746268657"/>
      <point x="973" y="225" type="qcurve" smooth="yes"/>
      <point x="973" y="221" type="line" smooth="yes"/>
      <point x="973.0" y="133.686567164"/>
      <point x="796.492537313" y="20.0"/>
      <point x="645" y="20" type="qcurve" smooth="yes"/>
      <point x="536.791044776" y="20.0"/>
      <point x="319.701492537" y="103.253731343"/>
      <point x="260" y="154" type="qcurve"/>
      <point x="231" y="119" type="line"/>
      <point x="293.686567164" y="65.2686567164"/>
      <point x="522.611940299" y="-20.0"/>
      <point x="645" y="-20" type="qcurve" smooth="yes"/>
      <point x="821.119402985" y="-20.0"/>
      <point x="1018.0" y="123.23880597"/>
      <point x="1018" y="221" type="qcurve" smooth="yes"/>
      <point x="1018" y="225" type="line" smooth="yes"/>
      <point x="1018.0" y="321.268656716"/>
      <point x="864.686567164" y="435.895522388"/>
      <point x="752" y="465" type="qcurve"/>
    </contour>
    <contour>
      <point x="734.28358209" y="498.0"/>
      <point x="621.149253731" y="508.567164179"/>
      <point x="551" y="522" type="qcurve" smooth="yes"/>
      <point x="367.417910448" y="557.074626866"/>
      <point x="195.0" y="664.402985075"/>
      <point x="195" y="745" type="qcurve" smooth="yes"/>
      <point x="195" y="750" type="line" smooth="yes"/>
      <point x="195.0" y="830.597014925"/>
      <point x="379.134328358" y="936.0"/>
      <point x="506" y="936" type="qcurve" smooth="yes"/>
      <point x="562.71641791" y="936.0"/>
      <point x="674.850746269" y="925.179104478"/>
      <point x="745" y="911" type="qcurve" smooth="yes"/>
      <point x="928.582089552" y="875.925373134"/>
      <point x="1102.0" y="769.343283582"/>
      <point x="1102" y="688" type="qcurve" smooth="yes"/>
      <point x="1102" y="684" type="line" smooth="yes"/>
      <point x="1102.0" y="602.656716418"/>
      <point x="917.865671642" y="498.0"/>
      <point x="791" y="498" type="qcurve" smooth="yes"/>
    </contour>
  </outline>
</glyph>
<glyph name="degree" format="1">
  <advance width="881"/>
  <unicode hex="00B0"/>
  <outline>
    <contour>
      <point x="557.910447761" y="872.0"/>
      <point x="733.0" y="1040.58208955"/>
      <point x="733" y="1157" type="qcurve" smooth="yes"/>
      <point x="733" y="1161" type="line" smooth="yes"/>
      <point x="733.0" y="1277.41791045"/>
      <point x="557.910447761" y="1446.0"/>
      <point x="440" y="1446" type="qcurve" smooth="yes"/>
      <point x="322.835820896" y="1446.0"/>
      <point x="147.0" y="1277.41791045"/>
      <point x="147" y="1161" type="qcurve" smooth="yes"/>
      <point x="147" y="1157" type="line" smooth="yes"/>
      <point x="147.0" y="1040.58208955"/>
      <point x="322.835820896" y="872.0"/>
      <point x="440" y="872" type="qcurve" smooth="yes"/>
    </contour>
    <contour>
      <point x="337.76119403" y="909.0"/>
      <point x="188.0" y="1056.25373134"/>
      <point x="188" y="1157" type="qcurve" smooth="yes"/>
      <point x="188" y="1161" type="line" smooth="yes"/>
      <point x="188.0" y="1261.74626866"/>
      <point x="337.76119403" y="1409.0"/>
      <point x="440" y="1409" type="qcurve" smooth="yes"/>
      <point x="542.985074627" y="1409.0"/>
      <point x="692.0" y="1261.74626866"/>
      <point x="692" y="1161" type="qcurve" smooth="yes"/>
      <point x="692" y="1157" type="line" smooth="yes"/>
      <point x="692.0" y="1056.25373134"/>
      <point x="542.985074627" y="909.0"/>
      <point x="440" y="909" type="qcurve" smooth="yes"/>
    </contour>
  </outline>
</glyph>
<glyph name="paragraph" format="1">
  <advance width="938"/>
  <unicode hex="00B6"/>
  <outline>
    <contour>
      <point x="680" y="0" type="line"/>
      <point x="725" y="0" type="line"/>
      <point x="725" y="1434" type="line"/>
      <point x="627" y="1434" type="line" smooth="yes"/>
      <point x="402.373134328" y="1434.0"/>
      <point x="106.0" y="1204.0"/>
      <point x="106" y="1004" type="qcurve" smooth="yes"/>
      <point x="106" y="999" type="line" smooth="yes"/>
      <point x="106.0" y="793.029850746"/>
      <point x="429.388059701" y="567.0"/>
      <point x="657" y="567" type="qcurve" smooth="yes"/>
      <point x="680" y="567" type="line"/>
    </contour>
  </outline>
</glyph>
<glyph name="divide" format="1">
  <advance width="1229"/>
  <unicode hex="00F7"/>
  <outline>
    <contour>
      <point x="578" y="1100" type="line"/>
      <point x="651" y="1100" type="line"/>
      <point x="651" y="1206" type="line"/>
      <point x="578" y="1206" type="line"/>
    </contour>
    <contour>
      <point x="1083" y="702" type="line"/>
      <point x="1083" y="739" type="line"/>
      <point x="145" y="739" type="line"/>
      <point x="145" y="702" type="line"/>
    </contour>
    <contour>
      <point x="578" y="236" type="line"/>
      <point x="651" y="236" type="line"/>
      <point x="651" y="342" type="line"/>
      <point x="578" y="342" type="line"/>
    </contour>
  </outline>
</glyph>
<glyph name="uni0965" format="1">
  <advance width="1131"/>
  <unicode hex="0965"/>
  <outline>
    <contour>
      <point x="519" y="1054" type="line"/>
      <point x="519" y="-110" type="line"/>
      <point x="556" y="-110" type="line"/>
      <point x="556" y="1054" type="line"/>
    </contour>
    <contour>
      <point x="842" y="1054" type="line"/>
      <point x="842" y="-110" type="line"/>
      <point x="879" y="-110" type="line"/>
      <point x="879" y="1054" type="line"/>
    </contour>
  </outline>
</glyph>
<glyph name="uni0A03" format="1">
  <advance width="-8"/>
  <unicode hex="0A03"/>
  <outline>
    <contour>
      <point x="-450.0" y="687.268656716"/>
      <point x="-369.970149254" y="610.0"/>
      <point x="-314" y="610" type="qcurve" smooth="yes"/>
      <point x="-256.537313433" y="610.0"/>
      <point x="-174.0" y="687.268656716"/>
      <point x="-174" y="741" type="qcurve" smooth="yes"/>
      <point x="-174.0" y="798.462686567"/>
      <point x="-253.552238806" y="879.0"/>
      <point x="-314" y="879" type="qcurve" smooth="yes"/>
      <point x="-372.208955224" y="879.0"/>
      <point x="-450.0" y="798.462686567"/>
      <point x="-450" y="741" type="qcurve" smooth="yes"/>
    </contour>
    <contour>
      <point x="-416.0" y="787.029850746"/>
      <point x="-355.791044776" y="845.0"/>
      <point x="-314" y="845" type="qcurve" smooth="yes"/>
      <point x="-270.71641791" y="845.0"/>
      <point x="-209.0" y="787.029850746"/>
      <point x="-209" y="743" type="qcurve" smooth="yes"/>
      <point x="-209.0" y="701.208955224"/>
      <point x="-270.71641791" y="646.0"/>
      <point x="-314" y="646" type="qcurve" smooth="yes"/>
      <point x="-355.791044776" y="646.0"/>
      <point x="-416.0" y="701.208955224"/>
      <point x="-416" y="743" type="qcurve" smooth="yes"/>
    </contour>
    <contour>
      <point x="-450.0" y="172.52238806"/>
      <point x="-369.970149254" y="96.0"/>
      <point x="-314" y="96" type="qcurve" smooth="yes"/>
      <point x="-256.537313433" y="96.0"/>
      <point x="-174.0" y="172.52238806"/>
      <point x="-174" y="227" type="qcurve" smooth="yes"/>
      <point x="-174.0" y="284.462686567"/>
      <point x="-253.552238806" y="364.0"/>
      <point x="-314" y="364" type="qcurve" smooth="yes"/>
      <point x="-372.208955224" y="364.0"/>
      <point x="-450.0" y="284.462686567"/>
      <point x="-450" y="227" type="qcurve" smooth="yes"/>
    </contour>
    <contour>
      <point x="-416.0" y="269.791044776"/>
      <point x="-355.791044776" y="328.0"/>
      <point x="-314" y="328" type="qcurve" smooth="yes"/>
      <point x="-270.71641791" y="328.0"/>
      <point x="-209.0" y="269.791044776"/>
      <point x="-209" y="228" type="qcurve" smooth="yes"/>
      <point x="-209.0" y="186.208955224"/>
      <point x="-270.71641791" y="129.0"/>
      <point x="-314" y="129" type="qcurve" smooth="yes"/>
      <point x="-355.791044776" y="129.0"/>
      <point x="-416.0" y="186.208955224"/>
      <point x="-416" y="228" type="qcurve" smooth="yes"/>
    </contour>
  </outline>
</glyph>
<glyph name="uni0A06" format="1">
  <advance width="1809"/>
  <unicode hex="0A06"/>
  <outline>
    <contour>
      <point x="1809" y="920" type="line"/>
      <point x="1809" y="956" type="line"/>
      <point x="1337" y="956" type="line"/>
      <point x="1337" y="920" type="line"/>
    </contour>
    <contour>
      <point x="1569" y="956" type="line"/>
      <point x="1569" y="311" type="line"/>
      <point x="1603" y="311" type="line"/>
      <point x="1603" y="956" type="line"/>
    </contour>
    <component base="uni0A05" xOffset="-7"/>
    <contour>
      <point x="1685" y="1248" type="move" name="mark0"/>
    </contour>
  </outline>
</glyph>
<glyph name="uni0A09" format="1">
  <advance width="1308"/>
  <unicode hex="0A09"/>
  <outline>
    <contour>
      <point x="1590" y="1248" type="move" name="mark0"/>
    </contour>
    <component base="uni0A41" xOffset="1218"/>
    <component base="uni0A73" xOffset="21"/>
  </outline>
</glyph>
<glyph name="uni0A0F" format="1">
  <advance width="1111"/>
  <unicode hex="0A0F"/>
  <outline>
    <contour>
      <point x="1411" y="1248" type="move" name="mark0"/>
    </contour>
    <component base="uni0A72" xOffset="6"/>
    <component base="uni0A48" xOffset="1089"/>
  </outline>
</glyph>
<glyph name="uni0A13" format="1">
  <advance width="1268"/>
  <unicode hex="0A13"/>
  <outline>
    <contour>
      <point x="954" y="1344" type="line"/>
      <point x="954" y="1380" type="line"/>
      <point x="913" y="1380" type="line" smooth="yes"/>
      <point x="745.089552239" y="1380.0"/>
      <point x="876.910447761" y="1380.0"/>
      <point x="809" y="1380" type="qcurve" smooth="yes"/>
      <point x="550.791044776" y="1380.0"/>
      <point x="245.52238806" y="1186.85074627"/>
      <point x="200" y="1007" type="qcurve" smooth="yes"/>
      <point x="187" y="956" type="line"/>
      <point x="221" y="945" type="line"/>
      <point x="232" y="985" type="line" smooth="yes"/>
      <point x="282.0" y="1166.34328358"/>
      <point x="566.746268657" y="1343.0"/>
      <point x="816" y="1343" type="qcurve" smooth="yes"/>
      <point x="842.865671642" y="1343.0"/>
      <point x="738.880597015" y="1344.0"/>
      <point x="915" y="1344" type="qcurve" smooth="yes"/>
    </contour>
    <contour>
      <point x="-39" y="956" type="line"/>
      <point x="-39" y="920" type="line"/>
      <point x="1266" y="920" type="line"/>
      <point x="1266" y="956" type="line"/>
    </contour>
    <contour>
      <point x="1000" y="940" type="line"/>
      <point x="1000" y="930" type="line" smooth="yes"/>
      <point x="1000.0" y="771.791044776"/>
      <point x="828.343283582" y="493.746268657"/>
      <point x="697" y="493" type="qcurve" smooth="yes"/>
      <point x="229" y="492" type="line"/>
      <point x="229" y="455" type="line"/>
      <point x="648" y="455" type="line" smooth="yes"/>
      <point x="727.850746269" y="455.0"/>
      <point x="892.0" y="336.731343284"/>
      <point x="892" y="233" type="qcurve" smooth="yes"/>
      <point x="892.0" y="155.388059701"/>
      <point x="772.268656716" y="51.0"/>
      <point x="676" y="51" type="qcurve" smooth="yes"/>
      <point x="460.328358209" y="51.0"/>
      <point x="157.537313433" y="599.880597015"/>
      <point x="215" y="926" type="qcurve" smooth="yes"/>
      <point x="217" y="938" type="line"/>
      <point x="183" y="949" type="line"/>
      <point x="181" y="933" type="line" smooth="yes"/>
      <point x="124.28358209" y="556.134328358"/>
      <point x="450.895522388" y="15.0"/>
      <point x="680" y="15" type="qcurve" smooth="yes"/>
      <point x="788.955223881" y="15.0"/>
      <point x="928.0" y="139.746268657"/>
      <point x="928" y="239" type="qcurve" smooth="yes"/>
      <point x="928.0" y="300.940298507"/>
      <point x="835.194029851" y="443.164179104"/>
      <point x="724" y="476" type="qcurve"/>
      <point x="723" y="463" type="line"/>
      <point x="852.104477612" y="482.402985075"/>
      <point x="1035.0" y="741.194029851"/>
      <point x="1035" y="930" type="qcurve" smooth="yes"/>
      <point x="1035" y="940" type="line"/>
    </contour>
  </outline>
</glyph>
<glyph name="uni0A14" format="1">
  <advance width="1353"/>
  <unicode hex="0A14"/>
  <outline>
    <contour>
      <point x="1118" y="956" type="line"/>
      <point x="1083" y="956" type="line"/>
      <point x="1083" y="0" type="line"/>
      <point x="1118" y="0" type="line"/>
    </contour>
    <contour>
      <point x="1352" y="920" type="line"/>
      <point x="1352" y="956" type="line"/>
      <point x="1083" y="956" type="line"/>
      <point x="1083" y="920" type="line"/>
    </contour>
    <contour>
      <point x="702" y="288" type="line"/>
      <point x="752.0" y="358.149253731"/>
      <point x="780.358208955" y="660.597014925"/>
      <point x="752" y="780" type="qcurve"/>
      <point x="669.164179104" y="788.955223881"/>
      <point x="407.074626866" y="667.23880597"/>
      <point x="322" y="565" type="qcurve"/>
      <point x="331" y="556" type="line"/>
      <point x="333.985074627" y="656.746268657"/>
      <point x="290.776119403" y="839.223880597"/>
      <point x="246" y="884" type="qcurve" smooth="yes"/>
      <point x="205.701492537" y="924.298507463"/>
      <point x="96.4776119403" y="956.0"/>
      <point x="42" y="956" type="qcurve" smooth="yes"/>
      <point x="11" y="956" type="line"/>
      <point x="4" y="920" type="line"/>
      <point x="31" y="920" type="line" smooth="yes"/>
      <point x="105.626865672" y="920.0"/>
      <point x="191.865671642" y="887.134328358"/>
      <point x="215" y="864" type="qcurve" smooth="yes"/>
      <point x="261.268656716" y="817.731343284"/>
      <point x="299.985074627" y="633.52238806"/>
      <point x="297" y="538" type="qcurve"/>
      <point x="152" y="367" type="line"/>
      <point x="196" y="345" type="line"/>
      <point x="345" y="539" type="line"/>
      <point x="409.925373134" y="628.552238806"/>
      <point x="660.179104478" y="751.194029851"/>
      <point x="746" y="740" type="qcurve"/>
      <point x="727" y="761" type="line"/>
      <point x="740.432835821" y="644.582089552"/>
      <point x="716.71641791" y="367.029850746"/>
      <point x="660" y="273" type="qcurve"/>
      <point x="539" y="124" type="line"/>
      <point x="583" y="102" type="line"/>
      <point x="676" y="229" type="line"/>
      <point x="746.895522388" y="317.059701493"/>
      <point x="967.671641791" y="393.0"/>
      <point x="1102" y="393" type="qcurve" smooth="yes"/>
      <point x="1109" y="393" type="line"/>
      <point x="1109" y="431" type="line"/>
      <point x="1098" y="431" type="line" smooth="yes"/>
      <point x="992.029850746" y="431.0"/>
      <point x="780.298507463" y="375.343283582"/>
      <point x="690" y="294" type="qcurve"/>
    </contour>
    <component base="uni0A4C" xOffset="1419"/>
    <contour>
      <point x="1699" y="1248" type="move" name="mark0"/>
    </contour>
  </outline>
</glyph>
<glyph name="uni0A16" format="1">
  <advance width="1144"/>
  <unicode hex="0A16"/>
  <outline>
    <contour>
      <point x="905" y="596" type="line"/>
      <point x="266" y="596" type="line"/>
      <point x="266" y="560" type="line"/>
      <point x="905" y="560" type="line"/>
    </contour>
    <contour>
      <point x="910" y="956" type="line"/>
      <point x="875" y="956" type="line"/>
      <point x="875" y="0" type="line"/>
      <point x="910" y="0" type="line"/>
    </contour>
    <contour>
      <point x="1144" y="920" type="line"/>
      <point x="1144" y="956" type="line"/>
      <point x="877" y="956" type="line"/>
      <point x="877" y="920" type="line"/>
    </contour>
    <contour>
      <point x="208" y="956" type="line"/>
      <point x="216.955223881" y="893.313432836"/>
      <point x="256.507462687" y="617.388059701"/>
      <point x="258" y="595" type="qcurve"/>
      <point x="258.0" y="559.925373134"/>
      <point x="212.417910448" y="347.149253731"/>
      <point x="196" y="277" type="qcurve"/>
      <point x="257.194029851" y="209.835820896"/>
      <point x="470.0" y="124.0"/>
      <point x="570" y="124" type="qcurve"/>
      <point x="571" y="124" type="line"/>
      <point x="660.552238806" y="124.0"/>
      <point x="818.28358209" y="152.343283582"/>
      <point x="875" y="171" type="qcurve" smooth="yes"/>
      <point x="905" y="181" type="line"/>
      <point x="905" y="218" type="line"/>
      <point x="875" y="208" type="line" smooth="yes"/>
      <point x="809.328358209" y="186.358208955"/>
      <point x="658.313432836" y="160.0"/>
      <point x="571" y="160" type="qcurve"/>
      <point x="570" y="160" type="line"/>
      <point x="485.671641791" y="160.0"/>
      <point x="284.462686567" y="237.059701493"/>
      <point x="227" y="299" type="qcurve"/>
      <point x="234" y="274" type="line"/>
      <point x="247.432835821" y="337.432835821"/>
      <point x="293.253731343" y="554.164179104"/>
      <point x="294" y="587" type="qcurve"/>
      <point x="291.76119403" y="622.074626866"/>
      <point x="246.985074627" y="929.880597015"/>
      <point x="244" y="956" type="qcurve"/>
    </contour>
    <contour>
      <point x="245" y="920" type="line"/>
      <point x="241" y="956" type="line"/>
      <point x="0" y="956" type="line"/>
      <point x="0" y="920" type="line"/>
    </contour>
  </outline>
</glyph>
<glyph name="uni0A17" format="1">
  <advance width="1332"/>
  <unicode hex="0A17"/>
  <outline>
    <contour>
      <point x="1332" y="920" type="line"/>
      <point x="1332" y="956" type="line"/>
      <point x="0" y="956" type="line"/>
      <point x="0" y="920" type="line"/>
    </contour>
    <contour>
      <point x="683" y="609" type="line"/>
      <point x="336" y="609" type="line" smooth="yes"/>
      <point x="210.626865672" y="609.0"/>
      <point x="95.0" y="510.626865672"/>
      <point x="95" y="436" type="qcurve"/>
      <point x="95" y="435" type="line"/>
      <point x="95.0" y="290.223880597"/>
      <point x="375.402985075" y="15.0"/>
      <point x="506" y="15" type="qcurve"/>
      <point x="507" y="15" type="line"/>
      <point x="586.850746269" y="15.0"/>
      <point x="688.0" y="120.582089552"/>
      <point x="688" y="237" type="qcurve" smooth="yes"/>
      <point x="688" y="950" type="line"/>
      <point x="653" y="950" type="line"/>
      <point x="653" y="241" type="line" smooth="yes"/>
      <point x="653.0" y="141.746268657"/>
      <point x="573.432835821" y="51.0"/>
      <point x="510" y="51" type="qcurve"/>
      <point x="509" y="51" type="line"/>
      <point x="392.582089552" y="51.0"/>
      <point x="133.0" y="304.149253731"/>
      <point x="133" y="434" type="qcurve"/>
      <point x="133" y="435" type="line"/>
      <point x="133.0" y="496.940298507"/>
      <point x="230.298507463" y="573.0"/>
      <point x="340" y="573" type="qcurve" smooth="yes"/>
      <point x="683" y="573" type="line"/>
    </contour>
    <contour>
      <point x="1098" y="956" type="line"/>
      <point x="1063" y="956" type="line"/>
      <point x="1063" y="0" type="line"/>
      <point x="1098" y="0" type="line"/>
    </contour>
  </outline>
</glyph>
<glyph name="uni0A19" format="1">
  <advance width="1056"/>
  <unicode hex="0A19"/>
  <outline>
    <contour>
      <point x="775" y="217" type="line"/>
      <point x="754" y="235" type="line" smooth="yes"/>
      <point x="665.940298507" y="315.597014925"/>
      <point x="506.029850746" y="400.0"/>
      <point x="412" y="400" type="qcurve"/>
      <point x="411" y="400" type="line"/>
      <point x="305.776119403" y="400.0"/>
      <point x="186.0" y="277.895522388"/>
      <point x="186" y="207" type="qcurve"/>
      <point x="186" y="206" type="line"/>
      <point x="186.0" y="123.910447761"/>
      <point x="303.746268657" y="15.0"/>
      <point x="403" y="15" type="qcurve"/>
      <point x="404" y="15" type="line"/>
      <point x="580.119402985" y="15.0"/>
      <point x="882.0" y="305.791044776"/>
      <point x="882" y="464" type="qcurve"/>
      <point x="882" y="465" type="line"/>
      <point x="882.0" y="541.119402985"/>
      <point x="752.940298507" y="676.0"/>
      <point x="641" y="676" type="qcurve" smooth="yes"/>
      <point x="239" y="676" type="line"/>
      <point x="239" y="640" type="line"/>
      <point x="630" y="640" type="line" smooth="yes"/>
      <point x="732.985074627" y="640.0"/>
      <point x="845.0" y="526.656716418"/>
      <point x="845" y="458" type="qcurve"/>
      <point x="845" y="457" type="line"/>
      <point x="845.0" y="329.388059701"/>
      <point x="579.865671642" y="51.0"/>
      <point x="403" y="51" type="qcurve"/>
      <point x="402" y="51" type="line"/>
      <point x="321.402985075" y="51.0"/>
      <point x="222.0" y="137.089552239"/>
      <point x="222" y="205" type="qcurve"/>
      <point x="222" y="206" type="line"/>
      <point x="222.0" y="264.208955224"/>
      <point x="325.432835821" y="364.0"/>
      <point x="412" y="364" type="qcurve"/>
      <point x="413" y="364" type="line"/>
      <point x="489.865671642" y="364.0"/>
      <point x="642.686567164" y="291.074626866"/>
      <point x="730" y="206" type="qcurve" smooth="yes"/>
      <point x="750" y="188" type="line"/>
    </contour>
    <contour>
      <point x="1056" y="920" type="line"/>
      <point x="1056" y="956" type="line"/>
      <point x="0" y="956" type="line"/>
      <point x="0" y="920" type="line"/>
    </contour>
    <contour>
      <point x="269" y="950" type="line"/>
      <point x="234" y="950" type="line"/>
      <point x="234" y="640" type="line"/>
      <point x="269" y="640" type="line"/>
    </contour>
    <contour>
      <point x="951" y="5" type="line"/>
      <point x="975" y="33" type="line"/>
      <point x="779" y="212" type="line"/>
      <point x="756" y="184" type="line"/>
    </contour>
  </outline>
</glyph>
<glyph name="uni0A1B" format="1">
  <advance width="1184"/>
  <unicode hex="0A1B"/>
  <outline>
    <contour>
      <point x="142.0" y="137.52238806"/>
      <point x="377.343283582" y="15.0"/>
      <point x="596" y="15" type="qcurve" smooth="yes"/>
      <point x="836.298507463" y="15.0"/>
      <point x="1067.0" y="142.985074627"/>
      <point x="1067" y="240" type="qcurve" smooth="yes"/>
      <point x="1067.0" y="325.820895522"/>
      <point x="850.23880597" y="445.0"/>
      <point x="598" y="445" type="qcurve" smooth="yes"/>
      <point x="356.208955224" y="445.0"/>
      <point x="142.0" y="318.119402985"/>
      <point x="142" y="242" type="qcurve" smooth="yes"/>
    </contour>
    <contour>
      <point x="592" y="38" type="line"/>
      <point x="627" y="39" type="line"/>
      <point x="627" y="421" type="line"/>
      <point x="592" y="421" type="line"/>
    </contour>
    <contour>
      <point x="401.746268657" y="51.0"/>
      <point x="181.0" y="158.641791045"/>
      <point x="181" y="237" type="qcurve" smooth="yes"/>
      <point x="181.0" y="306.402985075"/>
      <point x="374.865671642" y="409.0"/>
      <point x="598" y="409" type="qcurve" smooth="yes"/>
      <point x="830.835820896" y="409.0"/>
      <point x="1028.0" y="304.910447761"/>
      <point x="1028" y="237" type="qcurve" smooth="yes"/>
      <point x="1028.0" y="160.880597015"/>
      <point x="808.462686567" y="51.0"/>
      <point x="601" y="51" type="qcurve" smooth="yes"/>
    </contour>
    <contour>
      <point x="945" y="681" type="line"/>
      <point x="945" y="943" type="line"/>
      <point x="910" y="943" type="line"/>
      <point x="910" y="681" type="line"/>
    </contour>
    <contour>
      <point x="335" y="391" type="line"/>
      <point x="368" y="405" type="line"/>
      <point x="355" y="414" type="line" smooth="yes"/>
      <point x="290.074626866" y="459.52238806"/>
      <point x="224.0" y="529.253731343"/>
      <point x="224" y="580" type="qcurve" smooth="yes"/>
      <point x="224.0" y="622.537313433"/>
      <point x="310.343283582" y="681.0"/>
      <point x="379" y="681" type="qcurve" smooth="yes"/>
      <point x="929" y="681" type="line"/>
      <point x="929" y="717" type="line"/>
      <point x="379" y="717" type="line" smooth="yes"/>
      <point x="287.208955224" y="717.0"/>
      <point x="186.0" y="640.208955224"/>
      <point x="186" y="582" type="qcurve" smooth="yes"/>
      <point x="186.0" y="526.776119403"/>
      <point x="257.567164179" y="441.044776119"/>
      <point x="321" y="400" type="qcurve" smooth="yes"/>
    </contour>
    <contour>
      <point x="1197" y="920" type="line"/>
      <point x="1197" y="956" type="line"/>
      <point x="-77" y="956" type="line"/>
      <point x="-77" y="920" type="line"/>
    </contour>
  </outline>
</glyph>
<glyph name="uni0A1D" format="1">
  <advance width="1168"/>
  <unicode hex="0A1D"/>
  <outline>
    <contour>
      <point x="1206" y="920" type="line"/>
      <point x="1206" y="956" type="line"/>
      <point x="-66" y="956" type="line"/>
      <point x="-66" y="920" type="line"/>
    </contour>
    <contour>
      <point x="121" y="567" type="line"/>
      <point x="123" y="531" type="line"/>
      <point x="749" y="531" type="line" smooth="yes"/>
      <point x="862.432835821" y="531.0"/>
      <point x="980.0" y="455.52238806"/>
      <point x="980" y="410" type="qcurve" smooth="yes"/>
      <point x="980.0" y="353.28358209"/>
      <point x="853.641791045" y="272.462686567"/>
      <point x="682" y="265" type="qcurve"/>
      <point x="618.567164179" y="266.492537313"/>
      <point x="410.134328358" y="268.76119403"/>
      <point x="337" y="271" type="qcurve"/>
      <point x="335" y="233" type="line"/>
      <point x="394.701492537" y="227.029850746"/>
      <point x="619.029850746" y="229.0"/>
      <point x="675" y="229" type="qcurve"/>
      <point x="717.537313433" y="206.611940299"/>
      <point x="891.582089552" y="78.1044776119"/>
      <point x="958" y="-1" type="qcurve"/>
      <point x="986" y="26" type="line"/>
      <point x="939.731343284" y="78.9850746269"/>
      <point x="775.910447761" y="212.432835821"/>
      <point x="708" y="249" type="qcurve"/>
      <point x="708" y="234" type="line"/>
      <point x="885.611940299" y="240.71641791"/>
      <point x="1017.0" y="342.074626866"/>
      <point x="1017" y="407" type="qcurve" smooth="yes"/>
      <point x="1017.0" y="471.179104478"/>
      <point x="891.358208955" y="567.0"/>
      <point x="763" y="567" type="qcurve" smooth="yes"/>
    </contour>
    <contour>
      <point x="700.731343284" y="532.0"/>
      <point x="899.940298507" y="748.880597015"/>
      <point x="938" y="925" type="qcurve" smooth="yes"/>
      <point x="941" y="939" type="line"/>
      <point x="902" y="939" type="line"/>
      <point x="899" y="924" type="line" smooth="yes"/>
      <point x="868.402985075" y="769.52238806"/>
      <point x="691.029850746" y="566.0"/>
      <point x="597" y="566" type="qcurve" smooth="yes"/>
      <point x="489.537313433" y="566.0"/>
      <point x="314.597014925" y="793.671641791"/>
      <point x="284" y="928" type="qcurve" smooth="yes"/>
      <point x="281" y="941" type="line"/>
      <point x="240" y="941" type="line"/>
      <point x="243" y="930" type="line" smooth="yes"/>
      <point x="288.52238806" y="762.089552239"/>
      <point x="483.567164179" y="532.0"/>
      <point x="597" y="532" type="qcurve" smooth="yes"/>
    </contour>
  </outline>
</glyph>
<glyph name="uni0A1E" format="1">
  <advance width="1233"/>
  <unicode hex="0A1E"/>
  <outline>
    <contour>
      <point x="285" y="948" type="line"/>
      <point x="248" y="948" type="line"/>
      <point x="256" y="920" type="line" smooth="yes"/>
      <point x="272.417910448" y="863.28358209"/>
      <point x="332.208955224" y="720.910447761"/>
      <point x="374" y="653" type="qcurve" smooth="yes"/>
      <point x="385" y="635" type="line"/>
      <point x="422" y="635" type="line"/>
      <point x="410" y="654" type="line" smooth="yes"/>
      <point x="372.686567164" y="713.701492537"/>
      <point x="310.910447761" y="852.835820896"/>
      <point x="293" y="920" type="qcurve" smooth="yes"/>
    </contour>
    <component base="uni0A35"/>
  </outline>
</glyph>
<glyph name="uni0A1F" format="1">
  <advance width="1113"/>
  <unicode hex="0A1F"/>
  <outline>
    <contour>
      <point x="779" y="589" type="line"/>
      <point x="779" y="625" type="line"/>
      <point x="741" y="625" type="line" smooth="yes"/>
      <point x="557.417910448" y="625.0"/>
      <point x="245.462686567" y="453.925373134"/>
      <point x="138" y="289" type="qcurve"/>
      <point x="213.373134328" y="184.52238806"/>
      <point x="511.089552239" y="15.0"/>
      <point x="629" y="15" type="qcurve" smooth="yes"/>
      <point x="687.208955224" y="15.0"/>
      <point x="862.313432836" y="73.2089552239"/>
      <point x="925" y="115" type="qcurve"/>
      <point x="913" y="148" type="line"/>
      <point x="842.104477612" y="104.71641791"/>
      <point x="682.253731343" y="51.0"/>
      <point x="633" y="51" type="qcurve" smooth="yes"/>
      <point x="533.746268657" y="51.0"/>
      <point x="251.611940299" y="201.507462687"/>
      <point x="174" y="303" type="qcurve"/>
      <point x="174" y="273" type="line"/>
      <point x="282.208955224" y="431.955223881"/>
      <point x="575.328358209" y="589.0"/>
      <point x="741" y="589" type="qcurve" smooth="yes"/>
    </contour>
    <contour>
      <point x="749" y="589" type="line"/>
      <point x="784" y="589" type="line"/>
      <point x="784" y="951" type="line"/>
      <point x="749" y="951" type="line"/>
    </contour>
    <contour>
      <point x="1112" y="920" type="line"/>
      <point x="1112" y="956" type="line"/>
      <point x="0" y="956" type="line"/>
      <point x="0" y="920" type="line"/>
    </contour>
  </outline>
</glyph>
<glyph name="uni0A20" format="1">
  <advance width="1168"/>
  <unicode hex="0A20"/>
  <outline>
    <contour>
      <point x="1224" y="920" type="line"/>
      <point x="1224" y="956" type="line"/>
      <point x="-63" y="956" type="line"/>
      <point x="-63" y="920" type="line"/>
    </contour>
    <contour>
      <point x="598" y="956" type="line"/>
      <point x="563" y="956" type="line"/>
      <point x="563" y="664" type="line"/>
      <point x="598" y="664" type="line"/>
    </contour>
    <contour>
      <point x="370.044776119" y="52.0"/>
      <point x="188.0" y="210.940298507"/>
      <point x="188" y="299" type="qcurve" smooth="yes"/>
      <point x="188.0" y="397.507462687"/>
      <point x="385.970149254" y="574.358208955"/>
      <point x="580" y="646" type="qcurve"/>
      <point x="800.895522388" y="557.194029851"/>
      <point x="980.0" y="389.298507463"/>
      <point x="980" y="299" type="qcurve" smooth="yes"/>
      <point x="980.0" y="210.940298507"/>
      <point x="763.328358209" y="52.0"/>
      <point x="579" y="52" type="qcurve" smooth="yes"/>
    </contour>
    <contour>
      <point x="793.925373134" y="15.0"/>
      <point x="1017.0" y="201.0"/>
      <point x="1017" y="301" type="qcurve" smooth="yes"/>
      <point x="1017.0" y="388.313432836"/>
      <point x="850.208955224" y="582.985074627"/>
      <point x="592" y="680" type="qcurve"/>
      <point x="571" y="680" type="line"/>
      <point x="326.970149254" y="582.23880597"/>
      <point x="151.0" y="396.52238806"/>
      <point x="151" y="301" type="qcurve" smooth="yes"/>
      <point x="151.0" y="205.47761194"/>
      <point x="338.701492537" y="15.0"/>
      <point x="579" y="15" type="qcurve" smooth="yes"/>
    </contour>
  </outline>
</glyph>
<glyph name="uni0A21" format="1">
  <advance width="1159"/>
  <unicode hex="0A21"/>
  <outline>
    <contour>
      <point x="1171" y="920" type="line"/>
      <point x="1171" y="956" type="line"/>
      <point x="4" y="956" type="line"/>
      <point x="4" y="920" type="line"/>
    </contour>
    <contour>
      <point x="374.611940299" y="51.0"/>
      <point x="236.0" y="151.895522388"/>
      <point x="236" y="231" type="qcurve" smooth="yes"/>
      <point x="236.0" y="269.805970149"/>
      <point x="319.626865672" y="343.0"/>
      <point x="395" y="343" type="qcurve" smooth="yes"/>
      <point x="504.701492537" y="343.0"/>
      <point x="667.970149254" y="185.417910448"/>
      <point x="712" y="69" type="qcurve" smooth="yes"/>
      <point x="720" y="48" type="line"/>
      <point x="753" y="58" type="line"/>
      <point x="745" y="81" type="line" smooth="yes"/>
      <point x="702.462686567" y="203.388059701"/>
      <point x="519.626865672" y="379.0"/>
      <point x="395" y="379" type="qcurve" smooth="yes"/>
      <point x="298.731343284" y="379.0"/>
      <point x="198.0" y="281.492537313"/>
      <point x="198" y="230" type="qcurve" smooth="yes"/>
      <point x="198.0" y="141.940298507"/>
      <point x="370.119402985" y="15.0"/>
      <point x="544" y="15" type="qcurve" smooth="yes"/>
      <point x="726.089552239" y="15.0"/>
      <point x="967.0" y="169.880597015"/>
      <point x="967" y="296" type="qcurve" smooth="yes"/>
      <point x="967.0" y="396.0"/>
      <point x="813.701492537" y="565.223880597"/>
      <point x="654" y="610" type="qcurve"/>
      <point x="654" y="593" type="line"/>
      <point x="792.059701493" y="612.402985075"/>
      <point x="936.0" y="744.179104478"/>
      <point x="936" y="880" type="qcurve" smooth="yes"/>
      <point x="936" y="956" type="line"/>
      <point x="901" y="956" type="line"/>
      <point x="901" y="857" type="line" smooth="yes"/>
      <point x="901.0" y="745.059701493"/>
      <point x="709.313432836" y="617.014925373"/>
      <point x="522" y="620" type="qcurve" smooth="yes"/>
      <point x="315" y="620" type="line"/>
      <point x="323" y="584" type="line"/>
      <point x="521" y="584" type="line" smooth="yes"/>
      <point x="687.417910448" y="584.0"/>
      <point x="931.0" y="407.686567164"/>
      <point x="931" y="295" type="qcurve" smooth="yes"/>
      <point x="931.0" y="199.47761194"/>
      <point x="715.656716418" y="51.0"/>
      <point x="547" y="51" type="qcurve" smooth="yes"/>
    </contour>
  </outline>
</glyph>
<glyph name="uni0A22" format="1">
  <advance width="1136"/>
  <unicode hex="0A22"/>
  <outline>
    <contour>
      <point x="214" y="528" type="line" smooth="yes"/>
      <point x="275.194029851" y="252.626865672"/>
      <point x="586.164179104" y="15.0"/>
      <point x="769" y="15" type="qcurve" smooth="yes"/>
      <point x="883.925373134" y="15.0"/>
      <point x="1001.0" y="121.895522388"/>
      <point x="1001" y="201" type="qcurve" smooth="yes"/>
      <point x="1001.0" y="253.985074627"/>
      <point x="906.298507463" y="354.0"/>
      <point x="816" y="354" type="qcurve" smooth="yes"/>
      <point x="720.47761194" y="354.0"/>
      <point x="548.149253731" y="240.253731343"/>
      <point x="478" y="141" type="qcurve" smooth="yes"/>
      <point x="459" y="115" type="line"/>
      <point x="492" y="96" type="line"/>
      <point x="510" y="122" type="line" smooth="yes"/>
      <point x="571.940298507" y="214.537313433"/>
      <point x="727.417910448" y="318.0"/>
      <point x="811" y="318" type="qcurve" smooth="yes"/>
      <point x="893.089552239" y="318.0"/>
      <point x="965.0" y="239.537313433"/>
      <point x="965" y="197" type="qcurve" smooth="yes"/>
      <point x="965.0" y="136.552238806"/>
      <point x="868.0" y="51.0"/>
      <point x="768" y="51" type="qcurve" smooth="yes"/>
      <point x="586.656716418" y="51.0"/>
      <point x="301.731343284" y="286.537313433"/>
      <point x="248" y="544" type="qcurve" smooth="yes"/>
      <point x="204" y="755" type="line"/>
      <point x="166" y="744" type="line"/>
    </contour>
    <contour>
      <point x="1136" y="920" type="line"/>
      <point x="1136" y="956" type="line"/>
      <point x="0" y="956" type="line"/>
      <point x="0" y="920" type="line"/>
    </contour>
    <contour>
      <point x="867" y="569" type="line"/>
      <point x="902" y="569" type="line"/>
      <point x="902" y="952" type="line"/>
      <point x="867" y="952" type="line"/>
    </contour>
    <contour>
      <point x="902" y="559" type="line"/>
      <point x="902" y="595" type="line"/>
      <point x="228" y="595" type="line"/>
      <point x="228" y="559" type="line"/>
    </contour>
  </outline>
</glyph>
<glyph name="uni0A24" format="1">
  <advance width="1136"/>
  <unicode hex="0A24"/>
  <outline>
    <contour>
      <point x="878" y="956" type="line"/>
      <point x="878" y="851" type="line" smooth="yes"/>
      <point x="878.0" y="691.298507463"/>
      <point x="689.552238806" y="535.0"/>
      <point x="500" y="535" type="qcurve" smooth="yes"/>
      <point x="322" y="536" type="line"/>
      <point x="330" y="499" type="line"/>
      <point x="570" y="499" type="line" smooth="yes"/>
      <point x="729.701492537" y="499.0"/>
      <point x="907.0" y="353.835820896"/>
      <point x="907" y="271" type="qcurve" smooth="yes"/>
      <point x="907.0" y="181.447761194"/>
      <point x="761.313432836" y="51.0"/>
      <point x="624" y="51" type="qcurve" smooth="yes"/>
      <point x="536.686567164" y="51.0"/>
      <point x="305.164179104" y="111.895522388"/>
      <point x="188" y="191" type="qcurve"/>
      <point x="177" y="155" type="line"/>
      <point x="278.492537313" y="88.5820895522"/>
      <point x="511.298507463" y="15.0"/>
      <point x="621" y="15" type="qcurve" smooth="yes"/>
      <point x="776.223880597" y="15.0"/>
      <point x="943.0" y="172.731343284"/>
      <point x="943" y="269" type="qcurve" smooth="yes"/>
      <point x="943.0" y="360.044776119"/>
      <point x="788.52238806" y="505.373134328"/>
      <point x="643" y="530" type="qcurve"/>
      <point x="643" y="513" type="line"/>
      <point x="772.104477612" y="547.328358209"/>
      <point x="913.0" y="705.880597015"/>
      <point x="913" y="882" type="qcurve" smooth="yes"/>
      <point x="913" y="956" type="line"/>
    </contour>
    <contour>
      <point x="1135" y="920" type="line"/>
      <point x="1135" y="956" type="line"/>
      <point x="0" y="956" type="line"/>
      <point x="0" y="920" type="line"/>
    </contour>
  </outline>
</glyph>
<glyph name="uni0A27" format="1">
  <advance width="1100"/>
  <unicode hex="0A27"/>
  <outline>
    <contour>
      <point x="866" y="951" type="line"/>
      <point x="831" y="951" type="line"/>
      <point x="831" y="0" type="line"/>
      <point x="866" y="0" type="line"/>
    </contour>
    <contour>
      <point x="1101" y="920" type="line"/>
      <point x="1101" y="956" type="line"/>
      <point x="0" y="956" type="line"/>
      <point x="0" y="920" type="line"/>
    </contour>
    <contour>
      <point x="207" y="956" type="line"/>
      <point x="215.955223881" y="893.313432836"/>
      <point x="255.507462687" y="617.388059701"/>
      <point x="257" y="595" type="qcurve"/>
      <point x="257.0" y="559.925373134"/>
      <point x="211.417910448" y="347.149253731"/>
      <point x="195" y="277" type="qcurve"/>
      <point x="256.194029851" y="209.835820896"/>
      <point x="451.0" y="124.0"/>
      <point x="551" y="124" type="qcurve"/>
      <point x="552" y="124" type="line"/>
      <point x="628.119402985" y="124.0"/>
      <point x="773.537313433" y="149.835820896"/>
      <point x="831" y="167" type="qcurve" smooth="yes"/>
      <point x="861" y="176" type="line"/>
      <point x="861" y="214" type="line"/>
      <point x="831" y="205" type="line" smooth="yes"/>
      <point x="764.582089552" y="184.850746269"/>
      <point x="625.880597015" y="160.0"/>
      <point x="552" y="160" type="qcurve"/>
      <point x="551" y="160" type="line"/>
      <point x="466.671641791" y="160.0"/>
      <point x="283.462686567" y="237.059701493"/>
      <point x="226" y="299" type="qcurve"/>
      <point x="233" y="274" type="line"/>
      <point x="246.432835821" y="337.432835821"/>
      <point x="292.253731343" y="554.164179104"/>
      <point x="293" y="587" type="qcurve"/>
      <point x="290.76119403" y="622.074626866"/>
      <point x="245.985074627" y="929.880597015"/>
      <point x="243" y="956" type="qcurve"/>
    </contour>
  </outline>
</glyph>
<glyph name="uni0A28" format="1">
  <advance width="1188"/>
  <unicode hex="0A28"/>
  <outline>
    <contour>
      <point x="1234" y="920" type="line"/>
      <point x="1234" y="956" type="line"/>
      <point x="-53" y="956" type="line"/>
      <point x="-53" y="920" type="line"/>
    </contour>
    <contour>
      <point x="608" y="956" type="line"/>
      <point x="573" y="956" type="line"/>
      <point x="573" y="670" type="line"/>
      <point x="608" y="670" type="line"/>
    </contour>
    <contour>
      <point x="1003.0" y="369.582089552"/>
      <point x="828.119402985" y="579.044776119"/>
      <point x="602" y="688" type="qcurve"/>
      <point x="581" y="688" type="line"/>
      <point x="360.850746269" y="582.776119403"/>
      <point x="182.0" y="365.850746269"/>
      <point x="182" y="286" type="qcurve" smooth="yes"/>
      <point x="182.0" y="216.597014925"/>
      <point x="288.701492537" y="70.0447761194"/>
      <point x="379" y="29" type="qcurve" smooth="yes"/>
      <point x="412" y="14" type="line"/>
      <point x="419" y="50" type="line"/>
      <point x="389" y="62" type="line" smooth="yes"/>
      <point x="316.611940299" y="91.1044776119"/>
      <point x="218.0" y="217.089552239"/>
      <point x="218" y="285" type="qcurve" smooth="yes"/>
      <point x="218.0" y="367.089552239"/>
      <point x="410.402985075" y="570.656716418"/>
      <point x="591" y="652" type="qcurve"/>
      <point x="795.47761194" y="555.731343284"/>
      <point x="966.0" y="367.582089552"/>
      <point x="966" y="284" type="qcurve" smooth="yes"/>
      <point x="966.0" y="218.328358209"/>
      <point x="870.328358209" y="101.537313433"/>
      <point x="786" y="59" type="qcurve" smooth="yes"/>
      <point x="766" y="49" type="line"/>
      <point x="777" y="14" type="line"/>
      <point x="803" y="28" type="line" smooth="yes"/>
      <point x="897.029850746" y="78.7462686567"/>
      <point x="1003.0" y="212.865671642"/>
      <point x="1003" y="286" type="qcurve" smooth="yes"/>
    </contour>
  </outline>
</glyph>
<glyph name="uni0A2A" format="1">
  <advance width="1072"/>
  <unicode hex="0A2A"/>
  <outline>
    <contour>
      <point x="838" y="956" type="line"/>
      <point x="803" y="956" type="line"/>
      <point x="803" y="0" type="line"/>
      <point x="838" y="0" type="line"/>
    </contour>
    <contour>
      <point x="1072" y="920" type="line"/>
      <point x="1072" y="956" type="line"/>
      <point x="805" y="956" type="line"/>
      <point x="805" y="920" type="line"/>
    </contour>
    <contour>
      <point x="208" y="956" type="line"/>
      <point x="216.955223881" y="893.313432836"/>
      <point x="256.507462687" y="617.388059701"/>
      <point x="258" y="595" type="qcurve"/>
      <point x="258.0" y="559.925373134"/>
      <point x="212.417910448" y="347.149253731"/>
      <point x="196" y="277" type="qcurve"/>
      <point x="257.194029851" y="209.835820896"/>
      <point x="438.0" y="124.0"/>
      <point x="538" y="124" type="qcurve"/>
      <point x="539" y="124" type="line"/>
      <point x="606.164179104" y="124.0"/>
      <point x="744.791044776" y="142.328358209"/>
      <point x="803" y="158" type="qcurve" smooth="yes"/>
      <point x="833" y="166" type="line"/>
      <point x="833" y="205" type="line"/>
      <point x="803" y="196" type="line" smooth="yes"/>
      <point x="736.582089552" y="175.850746269"/>
      <point x="603.925373134" y="160.0"/>
      <point x="539" y="160" type="qcurve"/>
      <point x="538" y="160" type="line"/>
      <point x="453.671641791" y="160.0"/>
      <point x="284.462686567" y="237.059701493"/>
      <point x="227" y="299" type="qcurve"/>
      <point x="234" y="274" type="line"/>
      <point x="247.432835821" y="337.432835821"/>
      <point x="293.253731343" y="554.164179104"/>
      <point x="294" y="587" type="qcurve"/>
      <point x="291.76119403" y="622.074626866"/>
      <point x="246.985074627" y="929.880597015"/>
      <point x="244" y="956" type="qcurve"/>
    </contour>
    <contour>
      <point x="245" y="920" type="line"/>
      <point x="241" y="956" type="line"/>
      <point x="0" y="956" type="line"/>
      <point x="0" y="920" type="line"/>
    </contour>
  </outline>
</glyph>
<glyph name="uni0A2C" format="1">
  <advance width="1138"/>
  <unicode hex="0A2C"/>
  <outline>
    <contour>
      <point x="191" y="948" type="line"/>
      <point x="155" y="948" type="line"/>
      <point x="160" y="921" type="line" smooth="yes"/>
      <point x="186.865671642" y="782.940298507"/>
      <point x="388.880597015" y="555.880597015"/>
      <point x="565" y="532" type="qcurve"/>
      <point x="565" y="549" type="line"/>
      <point x="438.134328358" y="534.074626866"/>
      <point x="213.686567164" y="400.313432836"/>
      <point x="151" y="313" type="qcurve"/>
      <point x="234.582089552" y="215.985074627"/>
      <point x="495.671641791" y="93.0"/>
      <point x="630" y="93" type="qcurve" smooth="yes"/>
      <point x="631" y="93" type="line"/>
      <point x="713.089552239" y="93.0"/>
      <point x="822.223880597" y="108.805970149"/>
      <point x="867" y="120" type="qcurve" smooth="yes"/>
      <point x="887" y="125" type="line"/>
      <point x="887" y="161" type="line"/>
      <point x="867" y="156" type="line" smooth="yes"/>
      <point x="814.014925373" y="142.567164179"/>
      <point x="706.895522388" y="129.0"/>
      <point x="636" y="129" type="qcurve" smooth="yes"/>
      <point x="635" y="129" type="line"/>
      <point x="512.611940299" y="129.0"/>
      <point x="275.298507463" y="233.955223881"/>
      <point x="185" y="325" type="qcurve"/>
      <point x="185" y="296" type="line"/>
      <point x="250.671641791" y="387.044776119"/>
      <point x="501.925373134" y="521.0"/>
      <point x="637" y="521" type="qcurve" smooth="yes"/>
      <point x="887" y="521" type="line"/>
      <point x="887" y="557" type="line"/>
      <point x="643" y="557" type="line" smooth="yes"/>
      <point x="475.089552239" y="557.0"/>
      <point x="228.089552239" y="762.791044776"/>
      <point x="196" y="921" type="qcurve" smooth="yes"/>
    </contour>
    <contour>
      <point x="902" y="951" type="line"/>
      <point x="867" y="951" type="line"/>
      <point x="867" y="0" type="line"/>
      <point x="902" y="0" type="line"/>
    </contour>
    <contour>
      <point x="1138" y="920" type="line"/>
      <point x="1138" y="956" type="line"/>
      <point x="0" y="956" type="line"/>
      <point x="0" y="920" type="line"/>
    </contour>
  </outline>
</glyph>
<glyph name="uni0A2D" format="1">
  <advance width="1167"/>
  <unicode hex="0A2D"/>
  <outline>
    <contour>
      <point x="420.865671642" y="684.0"/>
      <point x="271.0" y="587.402985075"/>
      <point x="271" y="518" type="qcurve" smooth="yes"/>
      <point x="271.0" y="456.805970149"/>
      <point x="403.52238806" y="353.0"/>
      <point x="558" y="353" type="qcurve" smooth="yes"/>
      <point x="761.731343284" y="353.0"/>
      <point x="945.0" y="704.044776119"/>
      <point x="945" y="863" type="qcurve" smooth="yes"/>
      <point x="945" y="956" type="line"/>
      <point x="910" y="956" type="line"/>
      <point x="910" y="840" type="line" smooth="yes"/>
      <point x="910.0" y="664.626865672"/>
      <point x="721.940298507" y="389.0"/>
      <point x="560" y="389" type="qcurve" smooth="yes"/>
      <point x="430.895522388" y="389.0"/>
      <point x="308.0" y="466.507462687"/>
      <point x="308" y="518" type="qcurve" smooth="yes"/>
      <point x="308.0" y="576.208955224"/>
      <point x="441.746268657" y="648.0"/>
      <point x="541" y="648" type="qcurve" smooth="yes"/>
      <point x="727.567164179" y="648.0"/>
      <point x="929.0" y="412.417910448"/>
      <point x="929" y="296" type="qcurve" smooth="yes"/>
      <point x="929.0" y="175.850746269"/>
      <point x="729.23880597" y="51.0"/>
      <point x="577" y="51" type="qcurve" smooth="yes"/>
      <point x="515.805970149" y="51.0"/>
      <point x="325.313432836" y="97.4925373134"/>
      <point x="238" y="146" type="qcurve"/>
      <point x="230" y="110" type="line"/>
      <point x="309.850746269" y="68.2089552239"/>
      <point x="503.388059701" y="15.0"/>
      <point x="581" y="15" type="qcurve" smooth="yes"/>
      <point x="756.373134328" y="15.0"/>
      <point x="965.0" y="176.850746269"/>
      <point x="965" y="297" type="qcurve" smooth="yes"/>
      <point x="965.0" y="420.134328358"/>
      <point x="750.71641791" y="684.0"/>
      <point x="544" y="684" type="qcurve" smooth="yes"/>
    </contour>
    <contour>
      <point x="1167" y="920" type="line"/>
      <point x="1167" y="956" type="line"/>
      <point x="-10" y="956" type="line"/>
      <point x="-10" y="920" type="line"/>
    </contour>
  </outline>
</glyph>
<glyph name="uni0A2F" format="1">
  <advance width="1397"/>
  <unicode hex="0A2F"/>
  <outline>
    <contour>
      <point x="587" y="124" type="line"/>
      <point x="644.462686567" y="124.0"/>
      <point x="716.313432836" y="143.313432836"/>
      <point x="729" y="156" type="qcurve" smooth="yes"/>
      <point x="737.955223881" y="164.955223881"/>
      <point x="747.0" y="190.328358209"/>
      <point x="747" y="206" type="qcurve" smooth="yes"/>
      <point x="747" y="571" type="line"/>
      <point x="712" y="571" type="line"/>
      <point x="712" y="215" type="line" smooth="yes"/>
      <point x="712.0" y="200.074626866"/>
      <point x="708.223880597" y="186.223880597"/>
      <point x="703" y="181" type="qcurve" smooth="yes"/>
      <point x="693.298507463" y="171.298507463"/>
      <point x="639.23880597" y="160.0"/>
      <point x="587" y="160" type="qcurve"/>
      <point x="586" y="160" type="line"/>
      <point x="485.253731343" y="160.0"/>
      <point x="286.447761194" y="232.582089552"/>
      <point x="226" y="299" type="qcurve"/>
      <point x="233" y="274" type="line"/>
      <point x="246.432835821" y="337.432835821"/>
      <point x="292.253731343" y="554.164179104"/>
      <point x="293" y="587" type="qcurve"/>
      <point x="290.76119403" y="622.074626866"/>
      <point x="245.985074627" y="929.880597015"/>
      <point x="243" y="956" type="qcurve"/>
      <point x="207" y="956" type="line"/>
      <point x="215.955223881" y="893.313432836"/>
      <point x="255.507462687" y="617.388059701"/>
      <point x="257" y="595" type="qcurve"/>
      <point x="257.0" y="559.925373134"/>
      <point x="211.417910448" y="347.149253731"/>
      <point x="195" y="277" type="qcurve"/>
      <point x="259.179104478" y="205.358208955"/>
      <point x="471.820895522" y="124.0"/>
      <point x="586" y="124" type="qcurve"/>
    </contour>
    <contour>
      <point x="717" y="535" type="line"/>
      <point x="1158" y="535" type="line"/>
      <point x="1158" y="571" type="line"/>
      <point x="717" y="571" type="line"/>
    </contour>
    <contour>
      <point x="1163" y="951" type="line"/>
      <point x="1128" y="951" type="line"/>
      <point x="1128" y="0" type="line"/>
      <point x="1163" y="0" type="line"/>
    </contour>
    <contour>
      <point x="1398" y="920" type="line"/>
      <point x="1398" y="956" type="line"/>
      <point x="0" y="956" type="line"/>
      <point x="0" y="920" type="line"/>
    </contour>
  </outline>
</glyph>
<glyph name="uni0A30" format="1">
  <advance width="1040"/>
  <unicode hex="0A30"/>
  <outline>
    <contour>
      <point x="1040" y="920" type="line"/>
      <point x="1040" y="956" type="line"/>
      <point x="0" y="956" type="line"/>
      <point x="0" y="920" type="line"/>
    </contour>
    <contour>
      <point x="801" y="609" type="line"/>
      <point x="405" y="609" type="line" smooth="yes"/>
      <point x="275.149253731" y="609.0"/>
      <point x="161.0" y="512.865671642"/>
      <point x="161" y="436" type="qcurve"/>
      <point x="161" y="435" type="line"/>
      <point x="161.0" y="287.985074627"/>
      <point x="474.014925373" y="15.0"/>
      <point x="627" y="15" type="qcurve"/>
      <point x="628" y="15" type="line"/>
      <point x="710.089552239" y="15.0"/>
      <point x="806.0" y="120.582089552"/>
      <point x="806" y="237" type="qcurve" smooth="yes"/>
      <point x="806" y="950" type="line"/>
      <point x="771" y="950" type="line"/>
      <point x="771" y="241" type="line" smooth="yes"/>
      <point x="771.0" y="141.746268657"/>
      <point x="694.432835821" y="51.0"/>
      <point x="631" y="51" type="qcurve"/>
      <point x="630" y="51" type="line"/>
      <point x="497.910447761" y="51.0"/>
      <point x="199.0" y="301.910447761"/>
      <point x="199" y="434" type="qcurve"/>
      <point x="199" y="435" type="line"/>
      <point x="199.0" y="499.179104478"/>
      <point x="294.820895522" y="573.0"/>
      <point x="409" y="573" type="qcurve" smooth="yes"/>
      <point x="801" y="573" type="line"/>
    </contour>
  </outline>
</glyph>
<glyph name="uni0A32" format="1">
  <advance width="1280"/>
  <unicode hex="0A32"/>
  <outline>
    <contour>
      <point x="960" y="942" type="line"/>
      <point x="925" y="942" type="line"/>
      <point x="923" y="925" type="line" smooth="yes"/>
      <point x="902.850746269" y="753.358208955"/>
      <point x="747.208955224" y="475.134328358"/>
      <point x="639" y="402" type="qcurve"/>
      <point x="651" y="402" type="line"/>
      <point x="542.791044776" y="466.925373134"/>
      <point x="372.373134328" y="761.805970149"/>
      <point x="347" y="923" type="qcurve" smooth="yes"/>
      <point x="344" y="942" type="line"/>
      <point x="309" y="942" type="line"/>
      <point x="312" y="922" type="line" smooth="yes"/>
      <point x="339.611940299" y="738.417910448"/>
      <point x="521.373134328" y="445.865671642"/>
      <point x="646" y="369" type="qcurve"/>
      <point x="775.850746269" y="446.611940299"/>
      <point x="940.835820896" y="761.805970149"/>
      <point x="958" y="923" type="qcurve" smooth="yes"/>
    </contour>
    <contour>
      <point x="1280" y="920" type="line"/>
      <point x="1280" y="956" type="line"/>
      <point x="0" y="956" type="line"/>
      <point x="0" y="920" type="line"/>
    </contour>
    <contour>
      <point x="459" y="592" type="line"/>
      <point x="438" y="619" type="line"/>
      <point x="417" y="609" type="line" smooth="yes"/>
      <point x="311.776119403" y="559.0"/>
      <point x="165.0" y="373.597014925"/>
      <point x="165" y="293" type="qcurve" smooth="yes"/>
      <point x="165.0" y="206.432835821"/>
      <point x="270.417910448" y="63.776119403"/>
      <point x="404" y="19" type="qcurve" smooth="yes"/>
      <point x="416" y="15" type="line"/>
      <point x="429" y="49" type="line"/>
      <point x="405" y="57" type="line" smooth="yes"/>
      <point x="284.850746269" y="97.2985074627"/>
      <point x="202.0" y="220.850746269"/>
      <point x="202" y="291" type="qcurve" smooth="yes"/>
      <point x="202.0" y="373.089552239"/>
      <point x="353.179104478" y="544.194029851"/>
      <point x="439" y="583" type="qcurve" smooth="yes"/>
    </contour>
    <contour>
      <point x="841" y="583" type="line" smooth="yes"/>
      <point x="926.820895522" y="544.194029851"/>
      <point x="1078.0" y="371.358208955"/>
      <point x="1078" y="293" type="qcurve" smooth="yes"/>
      <point x="1078.0" y="216.880597015"/>
      <point x="986.194029851" y="99.7910447761"/>
      <point x="875" y="58" type="qcurve" smooth="yes"/>
      <point x="851" y="49" type="line"/>
      <point x="864" y="15" type="line"/>
      <point x="876" y="19" type="line" smooth="yes"/>
      <point x="1007.34328358" y="63.0298507463"/>
      <point x="1115.0" y="204.940298507"/>
      <point x="1115" y="293" type="qcurve" smooth="yes"/>
      <point x="1115.0" y="373.597014925"/>
      <point x="968.223880597" y="559.0"/>
      <point x="863" y="609" type="qcurve" smooth="yes"/>
      <point x="842" y="619" type="line"/>
      <point x="821" y="592" type="line"/>
    </contour>
  </outline>
</glyph>
<glyph name="uni0A35" format="1">
  <advance width="1233"/>
  <unicode hex="0A35"/>
  <outline>
    <contour>
      <point x="997" y="618" type="line"/>
      <point x="997" y="951" type="line"/>
      <point x="962" y="951" type="line"/>
      <point x="962" y="618" type="line"/>
    </contour>
    <contour>
      <point x="466" y="337" type="line"/>
      <point x="430" y="337" type="line"/>
      <point x="433" y="313" type="line" smooth="yes"/>
      <point x="450.910447761" y="167.47761194"/>
      <point x="637.835820896" y="24.0"/>
      <point x="805" y="24" type="qcurve" smooth="yes"/>
      <point x="1026" y="24" type="line"/>
      <point x="1026" y="60" type="line"/>
      <point x="806" y="60" type="line" smooth="yes"/>
      <point x="652.268656716" y="60.0"/>
      <point x="485.417910448" y="179.417910448"/>
      <point x="469" y="313" type="qcurve" smooth="yes"/>
    </contour>
    <contour>
      <point x="1027" y="313" type="line"/>
      <point x="1027" y="349" type="line"/>
      <point x="436" y="349" type="line" smooth="yes"/>
      <point x="306.895522388" y="349.0"/>
      <point x="196.0" y="437.328358209"/>
      <point x="196" y="503" type="qcurve" smooth="yes"/>
      <point x="196" y="504" type="line"/>
      <point x="196.0" y="554.0"/>
      <point x="269.194029851" y="618.0"/>
      <point x="358" y="618" type="qcurve" smooth="yes"/>
      <point x="992" y="618" type="line"/>
      <point x="992" y="654" type="line"/>
      <point x="354" y="654" type="line" smooth="yes"/>
      <point x="250.268656716" y="654.0"/>
      <point x="158.0" y="572.432835821"/>
      <point x="158" y="509" type="qcurve" smooth="yes"/>
      <point x="158" y="508" type="line"/>
      <point x="158.0" y="424.417910448"/>
      <point x="293.701492537" y="313.0"/>
      <point x="434" y="313" type="qcurve" smooth="yes"/>
    </contour>
    <contour>
      <point x="1233" y="920" type="line"/>
      <point x="1233" y="956" type="line"/>
      <point x="-1" y="956" type="line"/>
      <point x="-1" y="920" type="line"/>
    </contour>
  </outline>
</glyph>
<glyph name="uni0A3C" format="1">
  <advance width="6"/>
  <unicode hex="0A3C"/>
  <outline>
    <contour>
      <point x="-986" y="0" type="line"/>
      <point x="-944" y="0" type="line"/>
      <point x="-944" y="108" type="line"/>
      <point x="-986" y="108" type="line"/>
    </contour>
  </outline>
</glyph>
<glyph name="uni0A42" format="1">
  <advance width="7"/>
  <unicode hex="0A42"/>
  <outline>
    <contour>
      <point x="-909" y="-229" type="line"/>
      <point x="-848.552238806" y="-250.641791045"/>
      <point x="-667.23880597" y="-289.0"/>
      <point x="-565" y="-289" type="qcurve" smooth="yes"/>
      <point x="-460.52238806" y="-289.0"/>
      <point x="-265.671641791" y="-252.134328358"/>
      <point x="-200" y="-229" type="qcurve"/>
      <point x="-200" y="-194" type="line"/>
      <point x="-268.656716418" y="-215.641791045"/>
      <point x="-447.089552239" y="-253.0"/>
      <point x="-565" y="-253" type="qcurve" smooth="yes"/>
      <point x="-683.656716418" y="-253.0"/>
      <point x="-839.597014925" y="-215.641791045"/>
      <point x="-909" y="-194" type="qcurve"/>
    </contour>
    <contour>
      <point x="-889" y="-474" type="line"/>
      <point x="-828.552238806" y="-495.641791045"/>
      <point x="-658.28358209" y="-530.0"/>
      <point x="-565" y="-530" type="qcurve" smooth="yes"/>
      <point x="-469.47761194" y="-530.0"/>
      <point x="-285.671641791" y="-497.134328358"/>
      <point x="-220" y="-474" type="qcurve"/>
      <point x="-220" y="-439" type="line"/>
      <point x="-288.656716418" y="-462.134328358"/>
      <point x="-456.044776119" y="-494.0"/>
      <point x="-565" y="-494" type="qcurve" smooth="yes"/>
      <point x="-674.701492537" y="-494.0"/>
      <point x="-819.597014925" y="-462.134328358"/>
      <point x="-889" y="-439" type="qcurve"/>
    </contour>
  </outline>
</glyph>
<glyph name="uni0A48" format="1">
  <advance width="8"/>
  <unicode hex="0A48"/>
  <outline>
    <contour>
      <point x="-341" y="1437" type="line"/>
      <point x="-266" y="945" type="line"/>
      <point x="-230" y="945" type="line"/>
      <point x="-305" y="1445" type="line"/>
    </contour>
  </outline>
</glyph>
<glyph name="uni0A4C" format="1">
  <advance width="0"/>
  <unicode hex="0A4C"/>
  <outline>
    <contour>
      <point x="-427.611940299" y="1407.35820896"/>
      <point x="-489.746268657" y="1384.0"/>
      <point x="-539" y="1384" type="qcurve" smooth="yes"/>
      <point x="-580.044776119" y="1384.0"/>
      <point x="-649.268656716" y="1461.20895522"/>
      <point x="-653" y="1553" type="qcurve"/>
      <point x="-682" y="1518" type="line"/>
      <point x="-670.805970149" y="1434.41791045"/>
      <point x="-591.432835821" y="1349.49253731"/>
      <point x="-528" y="1348" type="qcurve" smooth="yes"/>
      <point x="-505.611940299" y="1347.25373134"/>
      <point x="-456.597014925" y="1360.8358209"/>
      <point x="-426" y="1378" type="qcurve"/>
      <point x="-421.52238806" y="1385.46268657"/>
      <point x="-406.71641791" y="1407.35820896"/>
      <point x="-400" y="1429" type="qcurve"/>
    </contour>
    <contour>
      <point x="-367" y="1143" type="line"/>
      <point x="-391.626865672" y="1181.80597015"/>
      <point x="-428.0" y="1250.68656716"/>
      <point x="-428" y="1288" type="qcurve" smooth="yes"/>
      <point x="-428.0" y="1357.40298507"/>
      <point x="-343.865671642" y="1443.0"/>
      <point x="-267" y="1443" type="qcurve" smooth="yes"/>
      <point x="-191.626865672" y="1443.0"/>
      <point x="-111.0" y="1356.65671642"/>
      <point x="-111" y="1288" type="qcurve" smooth="yes"/>
      <point x="-111.0" y="1254.41791045"/>
      <point x="-140.611940299" y="1181.80597015"/>
      <point x="-163" y="1143" type="qcurve"/>
      <point x="-122" y="1143" type="line"/>
      <point x="-103.343283582" y="1180.31343284"/>
      <point x="-75.0" y="1247.17910448"/>
      <point x="-75" y="1283" type="qcurve" smooth="yes"/>
      <point x="-75.0" y="1374.79104478"/>
      <point x="-179.179104478" y="1479.0"/>
      <point x="-265" y="1479" type="qcurve" smooth="yes"/>
      <point x="-355.298507463" y="1479.0"/>
      <point x="-464.0" y="1377.02985075"/>
      <point x="-464" y="1283" type="qcurve" smooth="yes"/>
      <point x="-464.0" y="1247.92537313"/>
      <point x="-425.417910448" y="1168.37313433"/>
      <point x="-409" y="1143" type="qcurve"/>
    </contour>
  </outline>
</glyph>
<glyph name="uni0A4D" format="1">
  <advance width="4"/>
  <unicode hex="0A4D"/>
  <outline>
    <contour>
      <point x="-480" y="-135" type="line"/>
      <point x="-358.358208955" y="-143.208955224"/>
      <point x="-175.805970149" y="-222.671641791"/>
      <point x="-37" y="-357" type="qcurve"/>
      <point x="-19" y="-330" type="line"/>
      <point x="-128.701492537" y="-217.313432836"/>
      <point x="-346.925373134" y="-103.23880597"/>
      <point x="-482" y="-101" type="qcurve"/>
    </contour>
  </outline>
</glyph>
<glyph name="uni0A5C" format="1">
  <advance width="1136"/>
  <unicode hex="0A5C"/>
  <outline>
    <contour>
      <point x="874.731343284" y="-41.2537313433"/>
      <point x="899.552238806" y="-38.2388059701"/>
      <point x="910" y="-36" type="qcurve"/>
      <point x="888.358208955" y="-12.8656716418"/>
      <point x="791.402985075" y="133.656716418"/>
      <point x="772" y="165" type="qcurve"/>
      <point x="737" y="156" type="line"/>
      <point x="760.134328358" y="114.955223881"/>
      <point x="853.835820896" y="-21.1044776119"/>
      <point x="871" y="-42" type="qcurve"/>
    </contour>
    <contour>
      <point x="335.731343284" y="-40.2537313433"/>
      <point x="362.044776119" y="-37.9850746269"/>
      <point x="371" y="-35" type="qcurve"/>
      <point x="338.164179104" y="3.80597014925"/>
      <point x="233.641791045" y="197.23880597"/>
      <point x="212" y="245" type="qcurve"/>
      <point x="177" y="242" type="line"/>
      <point x="191.179104478" y="209.910447761"/>
      <point x="298.417910448" y="3.77611940299"/>
      <point x="332" y="-41" type="qcurve"/>
    </contour>
    <contour>
      <point x="878" y="956" type="line"/>
      <point x="878" y="906" type="line" smooth="yes"/>
      <point x="878.0" y="791.074626866"/>
      <point x="715.880597015" y="601.0"/>
      <point x="542" y="601" type="qcurve" smooth="yes"/>
      <point x="322" y="601" type="line"/>
      <point x="330" y="564" type="line"/>
      <point x="570" y="564" type="line" smooth="yes"/>
      <point x="731.940298507" y="564.0"/>
      <point x="907.0" y="415.164179104"/>
      <point x="907" y="348" type="qcurve" smooth="yes"/>
      <point x="907.0" y="258.447761194"/>
      <point x="768.029850746" y="154.0"/>
      <point x="624" y="154" type="qcurve" smooth="yes"/>
      <point x="502.358208955" y="154.0"/>
      <point x="289.492537313" y="220.268656716"/>
      <point x="188" y="274" type="qcurve"/>
      <point x="177" y="243" type="line"/>
      <point x="287.447761194" y="181.805970149"/>
      <point x="513.537313433" y="118.0"/>
      <point x="621" y="118" type="qcurve" smooth="yes"/>
      <point x="782.940298507" y="118.0"/>
      <point x="943.0" y="249.731343284"/>
      <point x="943" y="346" type="qcurve" smooth="yes"/>
      <point x="943.0" y="428.089552239"/>
      <point x="797.47761194" y="573.358208955"/>
      <point x="643" y="595" type="qcurve"/>
      <point x="643" y="578" type="line"/>
      <point x="793.0" y="608.597014925"/>
      <point x="913.0" y="794.462686567"/>
      <point x="913" y="937" type="qcurve" smooth="yes"/>
      <point x="913" y="956" type="line"/>
    </contour>
    <contour>
      <point x="1135" y="920" type="line"/>
      <point x="1135" y="956" type="line"/>
      <point x="0" y="956" type="line"/>
      <point x="0" y="920" type="line"/>
    </contour>
  </outline>
</glyph>
<glyph name="uni0A66" format="1">
  <advance width="976"/>
  <unicode hex="0A66"/>
  <outline>
    <contour>
      <point x="332.029850746" y="917.0"/>
      <point x="114.0" y="660.76119403"/>
      <point x="114" y="463" type="qcurve" smooth="yes"/>
      <point x="114.0" y="268.970149254"/>
      <point x="332.029850746" y="1.0"/>
      <point x="488" y="1" type="qcurve" smooth="yes"/>
      <point x="643.223880597" y="1.0"/>
      <point x="862.0" y="268.970149254"/>
      <point x="862" y="463" type="qcurve" smooth="yes"/>
      <point x="862.0" y="660.76119403"/>
      <point x="643.223880597" y="917.0"/>
      <point x="488" y="917" type="qcurve" smooth="yes"/>
    </contour>
    <contour>
      <point x="628.044776119" y="878.0"/>
      <point x="826.0" y="641.850746269"/>
      <point x="826" y="462" type="qcurve" smooth="yes"/>
      <point x="826.0" y="282.895522388"/>
      <point x="628.044776119" y="40.0"/>
      <point x="487" y="40" type="qcurve" smooth="yes"/>
      <point x="346.701492537" y="40.0"/>
      <point x="150.0" y="282.895522388"/>
      <point x="150" y="462" type="qcurve" smooth="yes"/>
      <point x="150.0" y="641.850746269"/>
      <point x="346.701492537" y="878.0"/>
      <point x="487" y="878" type="qcurve" smooth="yes"/>
    </contour>
  </outline>
</glyph>
<glyph name="uni0A68" format="1">
  <advance width="974"/>
  <unicode hex="0A68"/>
  <outline>
    <contour>
      <point x="875" y="27" type="line"/>
      <point x="802.611940299" y="113.567164179"/>
      <point x="622.447761194" y="265.447761194"/>
      <point x="512" y="355" type="qcurve"/>
      <point x="512" y="341" type="line"/>
      <point x="658.268656716" y="378.313432836"/>
      <point x="835.0" y="552.268656716"/>
      <point x="835" y="656" type="qcurve" smooth="yes"/>
      <point x="835.0" y="763.462686567"/>
      <point x="659.970149254" y="919.0"/>
      <point x="504" y="919" type="qcurve" smooth="yes"/>
      <point x="421.910447761" y="919.0"/>
      <point x="235.791044776" y="860.507462687"/>
      <point x="144" y="812" type="qcurve"/>
      <point x="144" y="775" type="line"/>
      <point x="243.253731343" y="827.23880597"/>
      <point x="417.179104478" y="883.0"/>
      <point x="503" y="883" type="qcurve" smooth="yes"/>
      <point x="647.029850746" y="883.0"/>
      <point x="799.0" y="746.537313433"/>
      <point x="799" y="654" type="qcurve" smooth="yes"/>
      <point x="799.0" y="566.686567164"/>
      <point x="632.985074627" y="397.835820896"/>
      <point x="480" y="365" type="qcurve"/>
      <point x="397.910447761" y="366.492537313"/>
      <point x="327.149253731" y="363.014925373"/>
      <point x="257" y="366" type="qcurve"/>
      <point x="256" y="327" type="line"/>
      <point x="314.955223881" y="325.507462687"/>
      <point x="389.985074627" y="329.746268657"/>
      <point x="487" y="329" type="qcurve"/>
      <point x="581.776119403" y="255.119402985"/>
      <point x="766.895522388" y="99.5074626866"/>
      <point x="846" y="1" type="qcurve"/>
    </contour>
  </outline>
</glyph>
<glyph name="uni0A69" format="1">
  <advance width="1044"/>
  <unicode hex="0A69"/>
  <outline>
    <contour>
      <point x="487" y="-30" type="line"/>
      <point x="468.343283582" y="0.597014925373"/>
      <point x="389.164179104" y="105.626865672"/>
      <point x="372" y="131" type="qcurve"/>
      <point x="355" y="124" type="line"/>
      <point x="426.641791045" y="111.313432836"/>
      <point x="500.298507463" y="103.253731343"/>
      <point x="560" y="104" type="qcurve" smooth="yes"/>
      <point x="662.985074627" y="105.492537313"/>
      <point x="810.0" y="211.895522388"/>
      <point x="810" y="291" type="qcurve" smooth="yes"/>
      <point x="810.0" y="356.671641791"/>
      <point x="714.253731343" y="470.626865672"/>
      <point x="615" y="496" type="qcurve"/>
      <point x="615" y="483" type="line"/>
      <point x="722.462686567" y="494.940298507"/>
      <point x="860.0" y="625.701492537"/>
      <point x="860" y="716" type="qcurve" smooth="yes"/>
      <point x="860.0" y="786.149253731"/>
      <point x="714.417910448" y="917.0"/>
      <point x="548" y="917" type="qcurve" smooth="yes"/>
      <point x="447.253731343" y="917.0"/>
      <point x="275.089552239" y="885.074626866"/>
      <point x="193" y="850" type="qcurve"/>
      <point x="211" y="817" type="line"/>
      <point x="296.820895522" y="854.313432836"/>
      <point x="449.223880597" y="881.0"/>
      <point x="544" y="881" type="qcurve" smooth="yes"/>
      <point x="695.492537313" y="881.0"/>
      <point x="823.0" y="765.462686567"/>
      <point x="823" y="708" type="qcurve" smooth="yes"/>
      <point x="823.0" y="631.880597015"/>
      <point x="676.223880597" y="516.462686567"/>
      <point x="571" y="509" type="qcurve"/>
      <point x="498.611940299" y="510.492537313"/>
      <point x="373.52238806" y="511.0"/>
      <point x="328" y="511" type="qcurve"/>
      <point x="328" y="474" type="line"/>
      <point x="364.567164179" y="472.507462687"/>
      <point x="463.805970149" y="474.492537313"/>
      <point x="575" y="473" type="qcurve"/>
      <point x="688.432835821" y="451.358208955"/>
      <point x="774.0" y="337.955223881"/>
      <point x="774" y="279" type="qcurve" smooth="yes"/>
      <point x="774.0" y="230.492537313"/>
      <point x="654.507462687" y="141.492537313"/>
      <point x="556" y="140" type="qcurve" smooth="yes"/>
      <point x="522.417910448" y="138.507462687"/>
      <point x="420.194029851" y="147.298507463"/>
      <point x="359" y="157" type="qcurve"/>
      <point x="341.835820896" y="177.895522388"/>
      <point x="268.626865672" y="262.910447761"/>
      <point x="244" y="295" type="qcurve"/>
      <point x="209" y="278" type="line"/>
      <point x="258.253731343" y="215.313432836"/>
      <point x="419.164179104" y="12.4925373134"/>
      <point x="452" y="-39" type="qcurve"/>
    </contour>
  </outline>
</glyph>
<glyph name="uni0A6D" format="1">
  <advance width="984"/>
  <unicode hex="0A6D"/>
  <outline>
    <contour>
      <point x="773" y="1005" type="line"/>
      <point x="710" y="1004" type="line" smooth="yes"/>
      <point x="646.567164179" y="1002.50746269"/>
      <point x="585.0" y="937.47761194"/>
      <point x="585" y="883" type="qcurve" smooth="yes"/>
      <point x="585.0" y="868.074626866"/>
      <point x="597.029850746" y="812.671641791"/>
      <point x="603" y="797" type="qcurve"/>
      <point x="611" y="805" type="line"/>
      <point x="578.164179104" y="824.402985075"/>
      <point x="474.880597015" y="848.0"/>
      <point x="401" y="848" type="qcurve" smooth="yes"/>
      <point x="282.343283582" y="848.0"/>
      <point x="145.0" y="729.776119403"/>
      <point x="145" y="635" type="qcurve" smooth="yes"/>
      <point x="145.0" y="552.164179104"/>
      <point x="278.029850746" y="407.895522388"/>
      <point x="384" y="387" type="qcurve"/>
      <point x="384" y="400" type="line"/>
      <point x="266.089552239" y="366.417910448"/>
      <point x="165.0" y="250.164179104"/>
      <point x="165" y="183" type="qcurve" smooth="yes"/>
      <point x="165.0" y="117.328358209"/>
      <point x="306.373134328" y="-3.0"/>
      <point x="481" y="-3" type="qcurve" smooth="yes"/>
      <point x="542.194029851" y="-3.0"/>
      <point x="720.358208955" y="17.8656716418"/>
      <point x="792" y="41" type="qcurve"/>
      <point x="774" y="74" type="line"/>
      <point x="702.358208955" y="52.3582089552"/>
      <point x="539.417910448" y="33.0"/>
      <point x="473" y="33" type="qcurve" smooth="yes"/>
      <point x="331.208955224" y="33.0"/>
      <point x="202.0" y="125.552238806"/>
      <point x="202" y="186" type="qcurve" smooth="yes"/>
      <point x="202.0" y="246.447761194"/>
      <point x="307.28358209" y="350.626865672"/>
      <point x="414" y="376" type="qcurve"/>
      <point x="486.388059701" y="374.507462687"/>
      <point x="642.47761194" y="374.0"/>
      <point x="688" y="374" type="qcurve"/>
      <point x="688" y="411" type="line"/>
      <point x="651.432835821" y="412.492537313"/>
      <point x="523.194029851" y="410.507462687"/>
      <point x="412" y="412" type="qcurve"/>
      <point x="314.985074627" y="430.656716418"/>
      <point x="182.0" y="558.388059701"/>
      <point x="182" y="636" type="qcurve" smooth="yes"/>
      <point x="182.0" y="718.089552239"/>
      <point x="298.52238806" y="811.507462687"/>
      <point x="403" y="813" type="qcurve" smooth="yes"/>
      <point x="471.656716418" y="813.746268657"/>
      <point x="580.164179104" y="783.656716418"/>
      <point x="613" y="765" type="qcurve"/>
      <point x="633.149253731" y="752.313432836"/>
      <point x="665.358208955" y="727.641791045"/>
      <point x="687" y="706" type="qcurve"/>
      <point x="709" y="733" type="line"/>
      <point x="689.597014925" y="750.910447761"/>
      <point x="657.164179104" y="776.567164179"/>
      <point x="640" y="790" type="qcurve"/>
      <point x="634.776119403" y="801.194029851"/>
      <point x="620.492537313" y="853.850746269"/>
      <point x="619" y="874" type="qcurve" smooth="yes"/>
      <point x="619.0" y="919.52238806"/>
      <point x="667.253731343" y="973.0"/>
      <point x="718" y="973" type="qcurve" smooth="yes"/>
      <point x="778" y="973" type="line"/>
    </contour>
  </outline>
</glyph>
<glyph name="uni0A6E" format="1">
  <advance width="1106"/>
  <unicode hex="0A6E"/>
  <outline>
    <contour>
      <point x="223" y="670" type="line"/>
      <point x="234" y="605" type="line" smooth="yes"/>
      <point x="287.731343284" y="293.059701493"/>
      <point x="548.985074627" y="0.0"/>
      <point x="746" y="0" type="qcurve" smooth="yes"/>
      <point x="798.23880597" y="0.0"/>
      <point x="905.71641791" y="14.8059701493"/>
      <point x="949" y="26" type="qcurve"/>
      <point x="940" y="62" type="line"/>
      <point x="892.985074627" y="49.3134328358"/>
      <point x="790.776119403" y="38.0"/>
      <point x="746" y="38" type="qcurve" smooth="yes"/>
      <point x="590.776119403" y="38.0"/>
      <point x="330.447761194" y="272.910447761"/>
      <point x="270" y="605" type="qcurve" smooth="yes"/>
      <point x="258" y="670" type="line"/>
    </contour>
    <contour>
      <point x="908" y="678" type="line"/>
      <point x="908" y="714" type="line"/>
      <point x="230" y="714" type="line"/>
      <point x="231" y="678" type="line"/>
    </contour>
    <contour>
      <point x="259" y="670" type="line"/>
      <point x="250.044776119" y="710.298507463"/>
      <point x="240.970149254" y="883.194029851"/>
      <point x="235" y="922" type="qcurve"/>
      <point x="196" y="916" type="line"/>
      <point x="201.223880597" y="881.671641791"/>
      <point x="215.044776119" y="703.313432836"/>
      <point x="224" y="666" type="qcurve"/>
    </contour>
  </outline>
</glyph>
<glyph name="u0A74" format="1">
  <advance width="2659"/>
  <unicode hex="0A74"/>
  <outline>
    <contour>
      <point x="2576" y="1478" type="qcurve"/>
      <point x="2438" y="1391" type="line"/>
      <point x="2407.5" y="1459.5" name="inserted"/>
      <point x="2321.5" y="1528.0"/>
      <point x="2266" y="1528" type="qcurve"/>
      <point x="2199" y="1528"/>
      <point x="2092" y="1454"/>
      <point x="2071" y="1391" type="qcurve"/>
      <point x="1915" y="1391" type="line"/>
      <point x="1891.0" y="1449.5" name="inserted"/>
      <point x="1799.0" y="1541.0"/>
      <point x="1731" y="1574" type="qcurve"/>
      <point x="1672.0" y="1603.0" name="inserted"/>
      <point x="1543.0" y="1632.0"/>
      <point x="1473" y="1632" type="qcurve"/>
      <point x="1403.0" y="1632.0" name="inserted"/>
      <point x="1272.5" y="1586.0"/>
      <point x="1212" y="1540" type="qcurve"/>
      <point x="1154.5" y="1497.0" name="inserted"/>
      <point x="1069.5" y="1387.0"/>
      <point x="1042" y="1320" type="qcurve"/>
      <point x="2071" y="1320" type="line"/>
      <point x="2071" y="1081" type="line"/>
      <point x="2071.0" y="929.5" name="inserted"/>
      <point x="1931.5" y="695.5"/>
      <point x="1792" y="613" type="qcurve"/>
      <point x="1826.5" y="577.5" name="inserted"/>
      <point x="1873.5" y="516.0"/>
      <point x="1886" y="490" type="qcurve"/>
      <point x="1901.0" y="459.0" name="inserted"/>
      <point x="1916.0" y="382.5"/>
      <point x="1916" y="337" type="qcurve"/>
      <point x="1916.0" y="251.5" name="inserted"/>
      <point x="1840.0" y="123.0"/>
      <point x="1764" y="80" type="qcurve"/>
      <point x="1702.5" y="45.5" name="inserted"/>
      <point x="1549.0" y="11.0"/>
      <point x="1457" y="11" type="qcurve"/>
      <point x="1286.0" y="11.0" name="inserted"/>
      <point x="1037.5" y="204.5"/>
      <point x="960" y="398" type="qcurve"/>
      <point x="905.0" y="535.5" name="inserted"/>
      <point x="850.0" y="876.0"/>
      <point x="850" y="1079" type="qcurve"/>
      <point x="850.0" y="1234.5" name="inserted"/>
      <point x="933.0" y="1487.0"/>
      <point x="1016" y="1584" type="qcurve"/>
      <point x="1104.5" y="1687.0" name="inserted"/>
      <point x="1345.5" y="1790.0"/>
      <point x="1498" y="1790" type="qcurve"/>
      <point x="1567.5" y="1790.0" name="inserted"/>
      <point x="1704.5" y="1765.5"/>
      <point x="1772" y="1741" type="qcurve"/>
      <point x="1849.0" y="1712.5" name="inserted"/>
      <point x="1961.5" y="1635.0"/>
      <point x="1997" y="1586" type="qcurve"/>
      <point x="2055.0" y="1637.0" name="inserted"/>
      <point x="2189.5" y="1688.0"/>
      <point x="2266" y="1688" type="qcurve"/>
      <point x="2379.5" y="1688.0" name="inserted"/>
      <point x="2534.5" y="1583.0"/>
    </contour>
    <contour>
      <point x="650" y="-60" type="line"/>
      <point x="534" y="-45"/>
      <point x="386" y="115"/>
      <point x="386" y="231" type="qcurve"/>
      <point x="386.0" y="284.5" name="inserted"/>
      <point x="398.5" y="428.0"/>
      <point x="411" y="518" type="qcurve"/>
      <point x="425.0" y="622.5" name="inserted"/>
      <point x="441.5" y="766.0"/>
      <point x="444" y="805" type="qcurve"/>
      <point x="426.0" y="801.0" name="inserted"/>
      <point x="389.0" y="797.0"/>
      <point x="370" y="797" type="qcurve"/>
      <point x="245" y="797"/>
      <point x="97" y="952"/>
      <point x="97" y="1077" type="qcurve"/>
      <point x="97" y="1195"/>
      <point x="251" y="1346"/>
      <point x="370" y="1346" type="qcurve"/>
      <point x="445.5" y="1346.0" name="inserted"/>
      <point x="547.5" y="1277.5"/>
      <point x="574" y="1209" type="qcurve"/>
      <point x="590.5" y="1167.0" name="inserted"/>
      <point x="607.0" y="1034.5"/>
      <point x="607" y="944" type="qcurve"/>
      <point x="607" y="824"/>
      <point x="546" y="351"/>
      <point x="546" y="231" type="qcurve"/>
      <point x="546.0" y="170.0" name="inserted"/>
      <point x="598.0" y="104.0"/>
      <point x="650" y="99" type="qcurve"/>
    </contour>
    <contour>
      <point x="1909" y="1081" type="qcurve"/>
      <point x="1909" y="1176" type="line"/>
      <point x="1015" y="1176" type="line"/>
      <point x="1006.0" y="1045.5" name="inserted"/>
      <point x="1015.0" y="822.0"/>
      <point x="1033" y="729" type="qcurve"/>
      <point x="1595" y="729" type="line"/>
      <point x="1650.0" y="729.0" name="inserted"/>
      <point x="1757.0" y="790.0"/>
      <point x="1809" y="851" type="qcurve"/>
      <point x="1859.0" y="910.0" name="inserted"/>
      <point x="1909.0" y="1025.0"/>
    </contour>
    <contour>
      <point x="1766" y="337" type="qcurve"/>
      <point x="1766.0" y="397.5" name="inserted"/>
      <point x="1707.5" y="491.5"/>
      <point x="1649" y="525" type="qcurve"/>
      <point x="1600.0" y="553.5" name="inserted"/>
      <point x="1486.0" y="582.0"/>
      <point x="1421" y="582" type="qcurve"/>
      <point x="1053" y="582" type="line"/>
      <point x="1076.0" y="502.0" name="inserted"/>
      <point x="1147.0" y="365.5"/>
      <point x="1195" y="309" type="qcurve"/>
      <point x="1253.5" y="240.0" name="inserted"/>
      <point x="1384.5" y="171.0"/>
      <point x="1457" y="171" type="qcurve"/>
      <point x="1611.5" y="171.0" name="inserted"/>
      <point x="1766.0" y="254.0"/>
    </contour>
    <contour>
      <point x="448" y="965" type="qcurve"/>
      <point x="448" y="1019" type="line"/>
      <point x="448.0" y="1102.5" name="inserted"/>
      <point x="409.0" y="1186.0"/>
      <point x="370" y="1186" type="qcurve"/>
      <point x="308.5" y="1186.0" name="inserted"/>
      <point x="247.0" y="1131.5"/>
      <point x="247" y="1077" type="qcurve"/>
      <point x="247.0" y="1015.0" name="inserted"/>
      <point x="307.0" y="953.0"/>
      <point x="367" y="953" type="qcurve"/>
      <point x="384.0" y="953.0" name="inserted"/>
      <point x="424.5" y="959.0"/>
    </contour>
  </outline>
</glyph>
<glyph name="uni0A74" format="1">
  <advance width="2732"/>
  <unicode hex="0A74"/>
  <outline>
    <contour>
      <point x="1676" y="1199" type="line"/>
      <point x="1699" y="1225" type="line"/>
      <point x="1671" y="1253" type="line" smooth="yes"/>
      <point x="1617.26865672" y="1306.73134328"/>
      <point x="1450.92537313" y="1380.0"/>
      <point x="1336" y="1380" type="qcurve" smooth="yes"/>
      <point x="1184.50746269" y="1380.0"/>
      <point x="925.298507463" y="1166.70149254"/>
      <point x="885" y="1007" type="qcurve" smooth="yes"/>
      <point x="872" y="956" type="line"/>
      <point x="906" y="945" type="line"/>
      <point x="917" y="985" type="line" smooth="yes"/>
      <point x="963.268656716" y="1155.14925373"/>
      <point x="1211.3880597" y="1343.0"/>
      <point x="1339" y="1343" type="qcurve" smooth="yes"/>
      <point x="1444.2238806" y="1343.0"/>
      <point x="1604.47761194" y="1270.52238806"/>
      <point x="1650" y="1225" type="qcurve" smooth="yes"/>
    </contour>
    <contour>
      <point x="649" y="956" type="line"/>
      <point x="649" y="920" type="line"/>
      <point x="1954" y="920" type="line"/>
      <point x="1954" y="956" type="line"/>
    </contour>
    <contour>
      <point x="1708" y="940" type="line"/>
      <point x="1708" y="930" type="line" smooth="yes"/>
      <point x="1708.0" y="771.791044776"/>
      <point x="1516.34328358" y="493.746268657"/>
      <point x="1385" y="493" type="qcurve" smooth="yes"/>
      <point x="917" y="492" type="line"/>
      <point x="917" y="455" type="line"/>
      <point x="1336" y="455" type="line" smooth="yes"/>
      <point x="1415.85074627" y="455.0"/>
      <point x="1590.0" y="314.731343284"/>
      <point x="1590" y="211" type="qcurve" smooth="yes"/>
      <point x="1590.0" y="135.626865672"/>
      <point x="1458.02985075" y="29.0"/>
      <point x="1364" y="29" type="qcurve" smooth="yes"/>
      <point x="1148.32835821" y="29.0"/>
      <point x="845.537313433" y="599.880597015"/>
      <point x="903" y="926" type="qcurve" smooth="yes"/>
      <point x="905" y="938" type="line"/>
      <point x="871" y="949" type="line"/>
      <point x="869" y="933" type="line" smooth="yes"/>
      <point x="812.28358209" y="556.134328358"/>
      <point x="1138.89552239" y="-7.0"/>
      <point x="1368" y="-7" type="qcurve" smooth="yes"/>
      <point x="1452.32835821" y="-7.0"/>
      <point x="1626.0" y="102.074626866"/>
      <point x="1626" y="217" type="qcurve" smooth="yes"/>
      <point x="1626.0" y="278.940298507"/>
      <point x="1523.19402985" y="443.164179104"/>
      <point x="1412" y="476" type="qcurve"/>
      <point x="1411" y="463" type="line"/>
      <point x="1540.10447761" y="482.402985075"/>
      <point x="1743.0" y="741.194029851"/>
      <point x="1743" y="930" type="qcurve" smooth="yes"/>
      <point x="1743" y="940" type="line"/>
    </contour>
    <contour>
      <point x="2663" y="1154" type="line"/>
      <point x="2698" y="1154" type="line"/>
      <point x="2698" y="1168" type="line" smooth="yes"/>
      <point x="2698.0" y="1347.10447761"/>
      <point x="2493.79104478" y="1591.0"/>
      <point x="2302" y="1591" type="qcurve" smooth="yes"/>
      <point x="2122.14925373" y="1591.0"/>
      <point x="1836.8358209" y="1380.04477612"/>
      <point x="1704" y="1239" type="qcurve" smooth="yes"/>
      <point x="1673" y="1206" type="line"/>
      <point x="1698" y="1180" type="line"/>
      <point x="1725" y="1208" type="line" smooth="yes"/>
      <point x="1871.26865672" y="1360.23880597"/>
      <point x="2144.08955224" y="1555.0"/>
      <point x="2312" y="1555" type="qcurve" smooth="yes"/>
      <point x="2478.41791045" y="1555.0"/>
      <point x="2663.0" y="1327.19402985"/>
      <point x="2663" y="1166" type="qcurve" smooth="yes"/>
    </contour>
    <component base="uni0A67" xOffset="-29"/>
  </outline>
</glyph>
<glyph name="endash" format="1">
  <advance width="1024"/>
  <unicode hex="2013"/>
  <outline>
    <contour>
      <point x="929" y="448" type="line"/>
      <point x="96" y="448" type="line"/>
      <point x="98" y="412" type="line"/>
      <point x="929" y="412" type="line"/>
    </contour>
  </outline>
</glyph>
<glyph name="quoteright" format="1">
  <advance width="555"/>
  <unicode hex="2019"/>
  <outline>
    <contour>
      <point x="261" y="1076" type="line"/>
      <point x="261" y="979" type="line" smooth="yes"/>
      <point x="261.0" y="892.432835821"/>
      <point x="234.074626866" y="707.940298507"/>
      <point x="199" y="596" type="qcurve"/>
      <point x="228" y="593" type="line"/>
      <point x="264.567164179" y="700.462686567"/>
      <point x="297.0" y="898.134328358"/>
      <point x="297" y="975" type="qcurve" smooth="yes"/>
      <point x="297" y="1076" type="line"/>
    </contour>
  </outline>
</glyph>
<glyph name="quotedblright" format="1">
  <advance width="935"/>
  <unicode hex="201D"/>
  <outline>
    <contour>
      <point x="261" y="1076" type="line"/>
      <point x="261" y="979" type="line" smooth="yes"/>
      <point x="261.0" y="892.432835821"/>
      <point x="234.074626866" y="707.940298507"/>
      <point x="199" y="596" type="qcurve"/>
      <point x="228" y="593" type="line"/>
      <point x="264.567164179" y="700.462686567"/>
      <point x="297.0" y="898.134328358"/>
      <point x="297" y="975" type="qcurve" smooth="yes"/>
      <point x="297" y="1076" type="line"/>
    </contour>
    <contour>
      <point x="639" y="1076" type="line"/>
      <point x="639" y="979" type="line" smooth="yes"/>
      <point x="639.0" y="892.432835821"/>
      <point x="612.074626866" y="707.940298507"/>
      <point x="577" y="596" type="qcurve"/>
      <point x="606" y="593" type="line"/>
      <point x="642.567164179" y="700.462686567"/>
      <point x="675.0" y="898.134328358"/>
      <point x="675" y="975" type="qcurve" smooth="yes"/>
      <point x="675" y="1076" type="line"/>
    </contour>
  </outline>
</glyph>
<glyph name="trademark" format="1">
  <advance width="1499"/>
  <unicode hex="2122"/>
  <outline>
    <contour>
      <point x="798" y="1110" type="line"/>
      <point x="770" y="1127" type="line"/>
      <point x="770" y="743" type="line"/>
      <point x="798" y="743" type="line"/>
    </contour>
    <contour>
      <point x="770" y="1127" type="line"/>
      <point x="792" y="1085" type="line"/>
      <point x="961" y="834" type="line"/>
      <point x="968" y="834" type="line"/>
      <point x="1140" y="1090" type="line"/>
      <point x="1159" y="1127" type="line"/>
      <point x="1133" y="1127" type="line"/>
      <point x="964" y="875" type="line"/>
      <point x="967" y="875" type="line"/>
      <point x="796" y="1127" type="line"/>
    </contour>
    <contour>
      <point x="1131" y="1119" type="line"/>
      <point x="1131" y="743" type="line"/>
      <point x="1159" y="743" type="line"/>
      <point x="1159" y="1127" type="line"/>
    </contour>
    <contour>
      <point x="511" y="1127" type="line"/>
      <point x="483" y="1127" type="line"/>
      <point x="483" y="743" type="line"/>
      <point x="511" y="743" type="line"/>
    </contour>
    <contour>
      <point x="654" y="1100" type="line"/>
      <point x="654" y="1127" type="line"/>
      <point x="340" y="1127" type="line"/>
      <point x="340" y="1100" type="line"/>
    </contour>
  </outline>
</glyph>
<glyph name="uni25CC" format="1">
  <advance width="1224"/>
  <unicode hex="25CC"/>
  <outline>
    <contour>
      <point x="80.0" y="476.432835821"/>
      <point x="113.179104478" y="440.0"/>
      <point x="149" y="440" type="qcurve" smooth="yes"/>
      <point x="184.820895522" y="440.0"/>
      <point x="226.0" y="476.432835821"/>
      <point x="226" y="513" type="qcurve" smooth="yes"/>
      <point x="226.0" y="550.313432836"/>
      <point x="184.820895522" y="586.0"/>
      <point x="149" y="586" type="qcurve" smooth="yes"/>
      <point x="113.179104478" y="586.0"/>
      <point x="80.0" y="550.313432836"/>
      <point x="80" y="513" type="qcurve" smooth="yes"/>
    </contour>
    <contour>
      <point x="998.0" y="476.432835821"/>
      <point x="1034.17910448" y="440.0"/>
      <point x="1070" y="440" type="qcurve" smooth="yes"/>
      <point x="1107.31343284" y="440.0"/>
      <point x="1144.0" y="476.432835821"/>
      <point x="1144" y="513" type="qcurve" smooth="yes"/>
      <point x="1144.0" y="550.313432836"/>
      <point x="1107.31343284" y="586.0"/>
      <point x="1070" y="586" type="qcurve" smooth="yes"/>
      <point x="1034.17910448" y="586.0"/>
      <point x="998.0" y="550.313432836"/>
      <point x="998" y="513" type="qcurve" smooth="yes"/>
    </contour>
    <contour>
      <point x="538.0" y="936.432835821"/>
      <point x="573.432835821" y="898.0"/>
      <point x="610" y="898" type="qcurve" smooth="yes"/>
      <point x="646.567164179" y="898.0"/>
      <point x="686.0" y="936.432835821"/>
      <point x="686" y="973" type="qcurve" smooth="yes"/>
      <point x="686.0" y="1010.31343284"/>
      <point x="646.567164179" y="1047.0"/>
      <point x="610" y="1047" type="qcurve" smooth="yes"/>
      <point x="573.432835821" y="1047.0"/>
      <point x="538.0" y="1010.31343284"/>
      <point x="538" y="973" type="qcurve" smooth="yes"/>
    </contour>
    <contour>
      <point x="538.0" y="15.4328358209"/>
      <point x="573.432835821" y="-20.0"/>
      <point x="610" y="-20" type="qcurve" smooth="yes"/>
      <point x="646.567164179" y="-20.0"/>
      <point x="686.0" y="15.4328358209"/>
      <point x="686" y="52" type="qcurve" smooth="yes"/>
      <point x="686.0" y="87.8208955224"/>
      <point x="646.567164179" y="127.0"/>
      <point x="610" y="127" type="qcurve" smooth="yes"/>
      <point x="573.432835821" y="127.0"/>
      <point x="538.0" y="87.8208955224"/>
      <point x="538" y="52" type="qcurve" smooth="yes"/>
    </contour>
    <contour>
      <point x="940.0" y="707.686567164"/>
      <point x="976.432835821" y="670.0"/>
      <point x="1013" y="670" type="qcurve" smooth="yes"/>
      <point x="1050.31343284" y="670.0"/>
      <point x="1085.0" y="707.686567164"/>
      <point x="1085" y="745" type="qcurve" smooth="yes"/>
      <point x="1085.0" y="782.313432836"/>
      <point x="1050.31343284" y="817.0"/>
      <point x="1013" y="817" type="qcurve" smooth="yes"/>
      <point x="976.432835821" y="817.0"/>
      <point x="940.0" y="782.313432836"/>
      <point x="940" y="745" type="qcurve" smooth="yes"/>
    </contour>
    <contour>
      <point x="940.0" y="244.686567164"/>
      <point x="976.432835821" y="210.0"/>
      <point x="1013" y="210" type="qcurve" smooth="yes"/>
      <point x="1050.31343284" y="210.0"/>
      <point x="1085.0" y="244.686567164"/>
      <point x="1085" y="282" type="qcurve" smooth="yes"/>
      <point x="1085.0" y="317.074626866"/>
      <point x="1050.31343284" y="356.0"/>
      <point x="1013" y="356" type="qcurve" smooth="yes"/>
      <point x="976.432835821" y="356.0"/>
      <point x="940.0" y="317.074626866"/>
      <point x="940" y="282" type="qcurve" smooth="yes"/>
    </contour>
    <contour>
      <point x="137.0" y="707.686567164"/>
      <point x="170.686567164" y="670.0"/>
      <point x="208" y="670" type="qcurve" smooth="yes"/>
      <point x="244.567164179" y="670.0"/>
      <point x="284.0" y="707.686567164"/>
      <point x="284" y="745" type="qcurve" smooth="yes"/>
      <point x="284.0" y="782.313432836"/>
      <point x="244.567164179" y="817.0"/>
      <point x="208" y="817" type="qcurve" smooth="yes"/>
      <point x="170.686567164" y="817.0"/>
      <point x="137.0" y="782.313432836"/>
      <point x="137" y="745" type="qcurve" smooth="yes"/>
    </contour>
    <contour>
      <point x="137.0" y="244.686567164"/>
      <point x="170.686567164" y="210.0"/>
      <point x="208" y="210" type="qcurve" smooth="yes"/>
      <point x="244.567164179" y="210.0"/>
      <point x="284.0" y="244.686567164"/>
      <point x="284" y="282" type="qcurve" smooth="yes"/>
      <point x="284.0" y="317.074626866"/>
      <point x="244.567164179" y="356.0"/>
      <point x="208" y="356" type="qcurve" smooth="yes"/>
      <point x="170.686567164" y="356.0"/>
      <point x="137.0" y="317.074626866"/>
      <point x="137" y="282" type="qcurve" smooth="yes"/>
    </contour>
    <contour>
      <point x="308.0" y="879.432835821"/>
      <point x="341.686567164" y="841.0"/>
      <point x="379" y="841" type="qcurve" smooth="yes"/>
      <point x="416.313432836" y="841.0"/>
      <point x="456.0" y="879.432835821"/>
      <point x="456" y="916" type="qcurve" smooth="yes"/>
      <point x="456.0" y="951.820895522"/>
      <point x="416.313432836" y="988.0"/>
      <point x="379" y="988" type="qcurve" smooth="yes"/>
      <point x="341.686567164" y="988.0"/>
      <point x="308.0" y="951.820895522"/>
      <point x="308" y="916" type="qcurve" smooth="yes"/>
    </contour>
    <contour>
      <point x="767.0" y="879.432835821"/>
      <point x="806.925373134" y="841.0"/>
      <point x="842" y="841" type="qcurve" smooth="yes"/>
      <point x="879.313432836" y="841.0"/>
      <point x="914.0" y="879.432835821"/>
      <point x="914" y="916" type="qcurve" smooth="yes"/>
      <point x="914.0" y="951.820895522"/>
      <point x="879.313432836" y="988.0"/>
      <point x="842" y="988" type="qcurve" smooth="yes"/>
      <point x="806.925373134" y="988.0"/>
      <point x="767.0" y="951.820895522"/>
      <point x="767" y="916" type="qcurve" smooth="yes"/>
    </contour>
    <contour>
      <point x="308.0" y="72.4328358209"/>
      <point x="341.686567164" y="37.0"/>
      <point x="379" y="37" type="qcurve" smooth="yes"/>
      <point x="416.313432836" y="37.0"/>
      <point x="456.0" y="72.4328358209"/>
      <point x="456" y="109" type="qcurve" smooth="yes"/>
      <point x="456.0" y="144.820895522"/>
      <point x="416.313432836" y="184.0"/>
      <point x="379" y="184" type="qcurve" smooth="yes"/>
      <point x="341.686567164" y="184.0"/>
      <point x="308.0" y="144.820895522"/>
      <point x="308" y="109" type="qcurve" smooth="yes"/>
    </contour>
    <contour>
      <point x="767.0" y="72.4328358209"/>
      <point x="806.925373134" y="37.0"/>
      <point x="842" y="37" type="qcurve" smooth="yes"/>
      <point x="879.313432836" y="37.0"/>
      <point x="914.0" y="72.4328358209"/>
      <point x="914" y="109" type="qcurve" smooth="yes"/>
      <point x="914.0" y="144.820895522"/>
      <point x="879.313432836" y="184.0"/>
      <point x="842" y="184" type="qcurve" smooth="yes"/>
      <point x="806.925373134" y="184.0"/>
      <point x="767.0" y="144.820895522"/>
      <point x="767" y="109" type="qcurve" smooth="yes"/>
    </contour>
  </outline>
</glyph>
<glyph name="R_p" format="1">
  <advance width="1868"/>
  <outline>
    <contour>
      <point x="285" y="1" type="line"/>
      <point x="320" y="1" type="line"/>
      <point x="320" y="389" type="line"/>
      <point x="544" y="389" type="line" smooth="yes"/>
      <point x="553.701492537" y="389.0"/>
      <point x="571.298507463" y="389.0"/>
      <point x="581" y="389" type="qcurve"/>
      <point x="862" y="1" type="line"/>
      <point x="908" y="1" type="line"/>
      <point x="623" y="393" type="line"/>
      <point x="750.611940299" y="409.417910448"/>
      <point x="886.0" y="549.014925373"/>
      <point x="886" y="652" type="qcurve" smooth="yes"/>
      <point x="886" y="654" type="line" smooth="yes"/>
      <point x="886.0" y="773.402985075"/>
      <point x="713.71641791" y="919.0"/>
      <point x="557" y="919" type="qcurve" smooth="yes"/>
      <point x="285" y="919" type="line"/>
    </contour>
    <contour>
      <point x="320" y="425" type="line"/>
      <point x="320" y="883" type="line"/>
      <point x="555" y="883" type="line" smooth="yes"/>
      <point x="696.044776119" y="883.0"/>
      <point x="850.0" y="762.208955224"/>
      <point x="850" y="654" type="qcurve" smooth="yes"/>
      <point x="850" y="651" type="line" smooth="yes"/>
      <point x="850.0" y="553.985074627"/>
      <point x="702.208955224" y="425.0"/>
      <point x="544" y="425" type="qcurve" smooth="yes"/>
    </contour>
    <contour>
      <point x="1050" y="-208" type="line"/>
      <point x="1085" y="-208" type="line"/>
      <point x="1085" y="176" type="line"/>
      <point x="1114.10447761" y="87.9402985075"/>
      <point x="1255.67164179" y="-13.0"/>
      <point x="1340" y="-13" type="qcurve" smooth="yes"/>
      <point x="1464.62686567" y="-13.0"/>
      <point x="1629.0" y="186.208955224"/>
      <point x="1629" y="328" type="qcurve" smooth="yes"/>
      <point x="1629" y="331" type="line" smooth="yes"/>
      <point x="1629.0" y="472.044776119"/>
      <point x="1464.62686567" y="673.0"/>
      <point x="1340" y="673" type="qcurve" smooth="yes"/>
      <point x="1253.43283582" y="673.0"/>
      <point x="1114.10447761" y="571.059701493"/>
      <point x="1085" y="483" type="qcurve"/>
      <point x="1085" y="656" type="line"/>
      <point x="1050" y="656" type="line"/>
    </contour>
    <contour>
      <point x="1226.31343284" y="23.0"/>
      <point x="1083.0" y="200.388059701"/>
      <point x="1083" y="328" type="qcurve" smooth="yes"/>
      <point x="1083" y="331" type="line" smooth="yes"/>
      <point x="1083.0" y="457.119402985"/>
      <point x="1224.07462687" y="637.0"/>
      <point x="1339" y="637" type="qcurve" smooth="yes"/>
      <point x="1454.67164179" y="637.0"/>
      <point x="1593.0" y="458.104477612"/>
      <point x="1593" y="329" type="qcurve" smooth="yes"/>
      <point x="1593" y="326" type="line" smooth="yes"/>
      <point x="1593.0" y="194.656716418"/>
      <point x="1454.67164179" y="23.0"/>
      <point x="1339" y="23" type="qcurve" smooth="yes"/>
    </contour>
  </outline>
</glyph>
<glyph name="_0254" format="1">
  <advance width="471"/>
  <outline>
    <contour>
      <point x="218" y="0" type="line"/>
      <point x="253" y="0" type="line"/>
      <point x="253" y="1181" type="line" smooth="yes"/>
      <point x="253.0" y="1311.59701493"/>
      <point x="372.507462687" y="1433.0"/>
      <point x="474" y="1433" type="qcurve" smooth="yes"/>
      <point x="574.0" y="1433.0"/>
      <point x="687.0" y="1299.14925373"/>
      <point x="687" y="1179" type="qcurve" smooth="yes"/>
      <point x="687" y="1133" type="line"/>
      <point x="722" y="1134" type="line"/>
      <point x="722" y="1188" type="line" smooth="yes"/>
      <point x="722.0" y="1315.6119403"/>
      <point x="591.671641791" y="1469.0"/>
      <point x="476" y="1469" type="qcurve" smooth="yes"/>
      <point x="352.865671642" y="1469.0"/>
      <point x="218.0" y="1329.11940299"/>
      <point x="218" y="1203" type="qcurve" smooth="yes"/>
    </contour>
    <contour>
      <point x="471" y="920" type="line"/>
      <point x="471" y="956" type="line"/>
      <point x="0" y="956" type="line"/>
      <point x="0" y="920" type="line"/>
    </contour>
  </outline>
</glyph>
<glyph name="_129" format="1">
  <advance width="0"/>
  <outline>
    <contour>
      <point x="-235" y="1248" type="move" name="_mark0"/>
    </contour>
    <component base="uni0A48"/>
    <component base="uni0A3C" xOffset="944" yOffset="1145"/>
  </outline>
</glyph>
<glyph name="_130" format="1">
  <advance width="0"/>
  <outline>
    <contour>
      <point x="-234" y="1248" type="move" name="_mark0"/>
    </contour>
    <component base="uni0A47"/>
    <component base="uni0A3C" xOffset="944" yOffset="1145"/>
  </outline>
</glyph>
<glyph name="_131" format="1">
  <advance width="0"/>
  <outline>
    <contour>
      <point x="-239" y="1248" type="move" name="_mark0"/>
    </contour>
    <component base="uni0A4B"/>
    <component base="uni0A3C" xOffset="944" yOffset="1145"/>
  </outline>
</glyph>
<glyph name="_133" format="1">
  <advance width="-219"/>
  <outline>
    <contour>
      <point x="0" y="920" type="line"/>
      <point x="0" y="956" type="line"/>
      <point x="-219" y="956" type="line"/>
      <point x="-219" y="920" type="line"/>
    </contour>
    <contour>
      <point x="312.432835821" y="1140.0"/>
      <point x="431.313432836" y="1298.37313433"/>
      <point x="444" y="1423" type="qcurve"/>
      <point x="409" y="1434" type="line"/>
      <point x="403.776119403" y="1316.8358209"/>
      <point x="298.044776119" y="1176.0"/>
      <point x="207" y="1176" type="qcurve" smooth="yes"/>
      <point x="102.52238806" y="1176.0"/>
      <point x="-8.55223880597" y="1305.3880597"/>
      <point x="-19" y="1433" type="qcurve"/>
      <point x="-54" y="1422" type="line"/>
      <point x="-39.8208955224" y="1280.20895522"/>
      <point x="93.776119403" y="1140.0"/>
      <point x="199" y="1140" type="qcurve" smooth="yes"/>
    </contour>
    <component base="uni0A4C" xOffset="-100"/>
  </outline>
</glyph>
<glyph name=".notdef" format="1">
  <advance width="880"/>
  <outline>
    <contour>
      <point x="880" y="0" type="line"/>
      <point x="880" y="1231" type="line"/>
      <point x="0" y="1231" type="line"/>
      <point x="0" y="0" type="line"/>
    </contour>
    <contour>
      <point x="739" y="1142" type="line"/>
      <point x="439" y="694" type="line"/>
      <point x="141" y="1142" type="line"/>
    </contour>
    <contour>
      <point x="790" y="167" type="line"/>
      <point x="492" y="616" type="line"/>
      <point x="790" y="1064" type="line"/>
    </contour>
    <contour>
      <point x="141" y="88" type="line"/>
      <point x="439" y="536" type="line"/>
      <point x="739" y="88" type="line"/>
    </contour>
    <contour>
      <point x="88" y="1064" type="line"/>
      <point x="388" y="616" type="line"/>
      <point x="88" y="167" type="line"/>
    </contour>
  </outline>
</glyph>
<glyph name="afii301" format="1">
  <advance width="0"/>
  <outline>
    <contour>
      <point x="219" y="1369" type="line"/>
      <point x="170" y="1320" type="line"/>
      <point x="36" y="1456" type="line"/>
      <point x="36" y="-275" type="line"/>
      <point x="-36" y="-275" type="line"/>
      <point x="-36" y="1456" type="line"/>
      <point x="-170" y="1320" type="line"/>
      <point x="-219" y="1369" type="line"/>
      <point x="-48" y="1538" type="line"/>
      <point x="-219" y="1706" type="line"/>
      <point x="-170" y="1755" type="line"/>
      <point x="0" y="1584" type="line"/>
      <point x="170" y="1755" type="line"/>
      <point x="219" y="1706" type="line"/>
      <point x="48" y="1538" type="line"/>
    </contour>
  </outline>
</glyph>
<glyph name="afii61664" format="1">
  <advance width="0"/>
  <outline>
    <contour>
      <point x="36" y="-275" type="line"/>
      <point x="-36" y="-275" type="line"/>
      <point x="-36" y="1584" type="line"/>
      <point x="36" y="1584" type="line"/>
    </contour>
  </outline>
</glyph>
<glyph name="ampersand.001" format="1">
  <advance width="1352"/>
  <outline>
    <contour>
      <point x="332" y="234" type="line" smooth="yes"/>
      <point x="332.0" y="136.23880597"/>
      <point x="487.119402985" y="-10.0"/>
      <point x="611" y="-10" type="qcurve" smooth="yes"/>
      <point x="716.223880597" y="-10.0"/>
      <point x="881.28358209" y="100.119402985"/>
      <point x="938" y="174" type="qcurve" smooth="yes"/>
      <point x="985.76119403" y="237.432835821"/>
      <point x="1055.89552239" y="380.149253731"/>
      <point x="1085" y="460" type="qcurve"/>
      <point x="1050" y="472" type="line"/>
      <point x="1020.14925373" y="390.656716418"/>
      <point x="955.776119403" y="259.701492537"/>
      <point x="911" y="200" type="qcurve" smooth="yes"/>
      <point x="852.791044776" y="120.895522388"/>
      <point x="700.552238806" y="26.0"/>
      <point x="611" y="26" type="qcurve" smooth="yes"/>
      <point x="500.552238806" y="26.0"/>
      <point x="370.0" y="152.656716418"/>
      <point x="370" y="234" type="qcurve" smooth="yes"/>
      <point x="370" y="236" type="line" smooth="yes"/>
      <point x="370.0" y="320.328358209"/>
      <point x="486.179104478" y="453.537313433"/>
      <point x="622" y="511" type="qcurve"/>
      <point x="784.686567164" y="575.179104478"/>
      <point x="888.0" y="700.343283582"/>
      <point x="888" y="769" type="qcurve" smooth="yes"/>
      <point x="888" y="772" type="line" smooth="yes"/>
      <point x="888.0" y="842.895522388"/>
      <point x="774.52238806" y="961.0"/>
      <point x="679" y="961" type="qcurve" smooth="yes"/>
      <point x="576.014925373" y="961.0"/>
      <point x="465.0" y="834.656716418"/>
      <point x="465" y="766" type="qcurve" smooth="yes"/>
      <point x="465" y="764" type="line" smooth="yes"/>
      <point x="465.0" y="714.0"/>
      <point x="518.328358209" y="604.895522388"/>
      <point x="584" y="534" type="qcurve" smooth="yes"/>
      <point x="1089" y="-10" type="line"/>
      <point x="1114" y="13" type="line"/>
      <point x="614" y="553" type="line" smooth="yes"/>
      <point x="549.074626866" y="622.402985075"/>
      <point x="501.0" y="719.47761194"/>
      <point x="501" y="765" type="qcurve" smooth="yes"/>
      <point x="501" y="768" type="line" smooth="yes"/>
      <point x="501.0" y="827.701492537"/>
      <point x="591.686567164" y="925.0"/>
      <point x="679" y="925" type="qcurve" smooth="yes"/>
      <point x="762.582089552" y="925.0"/>
      <point x="852.0" y="831.701492537"/>
      <point x="852" y="772" type="qcurve" smooth="yes"/>
      <point x="852" y="769" type="line" smooth="yes"/>
      <point x="852.0" y="704.820895522"/>
      <point x="746.268656716" y="597.194029851"/>
      <point x="600" y="536" type="qcurve"/>
      <point x="450.0" y="470.328358209"/>
      <point x="332.0" y="330.029850746"/>
      <point x="332" y="236" type="qcurve"/>
    </contour>
  </outline>
</glyph>
<glyph name="ampersand.002" format="1">
  <advance width="1352"/>
  <outline>
    <contour>
      <point x="342" y="214" type="line" smooth="yes"/>
      <point x="342.0" y="122.955223881"/>
      <point x="492.074626866" y="-10.0"/>
      <point x="607" y="-10" type="qcurve" smooth="yes"/>
      <point x="698.791044776" y="-10.0"/>
      <point x="833.059701493" y="49.0597014925"/>
      <point x="895" y="111" type="qcurve" smooth="yes"/>
      <point x="949.47761194" y="164.731343284"/>
      <point x="1049.28358209" y="302.567164179"/>
      <point x="1106" y="416" type="qcurve"/>
      <point x="1073" y="432" type="line"/>
      <point x="1017.02985075" y="312.597014925"/>
      <point x="910.835820896" y="178.835820896"/>
      <point x="878" y="146" type="qcurve" smooth="yes"/>
      <point x="813.820895522" y="81.8208955224"/>
      <point x="680.910447761" y="26.0"/>
      <point x="613" y="26" type="qcurve" smooth="yes"/>
      <point x="507.029850746" y="26.0"/>
      <point x="380.0" y="139.373134328"/>
      <point x="380" y="214" type="qcurve" smooth="yes"/>
      <point x="380" y="216" type="line" smooth="yes"/>
      <point x="380.0" y="293.611940299"/>
      <point x="485.432835821" y="441.447761194"/>
      <point x="622" y="531" type="qcurve"/>
      <point x="753.343283582" y="618.313432836"/>
      <point x="832.0" y="741.567164179"/>
      <point x="832" y="805" type="qcurve" smooth="yes"/>
      <point x="832.0" y="864.701492537"/>
      <point x="728.76119403" y="961.0"/>
      <point x="631" y="961" type="qcurve" smooth="yes"/>
      <point x="530.253731343" y="961.0"/>
      <point x="422.0" y="864.880597015"/>
      <point x="422" y="791" type="qcurve" smooth="yes"/>
      <point x="422.0" y="722.343283582"/>
      <point x="498.656716418" y="603.567164179"/>
      <point x="580" y="517" type="qcurve" smooth="yes"/>
      <point x="1049" y="-10" type="line"/>
      <point x="1082" y="8" type="line"/>
      <point x="610" y="536" type="line" smooth="yes"/>
      <point x="527.910447761" y="628.537313433"/>
      <point x="458.0" y="730.253731343"/>
      <point x="458" y="781" type="qcurve" smooth="yes"/>
      <point x="458.0" y="848.164179104"/>
      <point x="547.402985075" y="925.0"/>
      <point x="628" y="925" type="qcurve" smooth="yes"/>
      <point x="709.343283582" y="925.0"/>
      <point x="796.0" y="848.268656716"/>
      <point x="796" y="802" type="qcurve" smooth="yes"/>
      <point x="796.0" y="752.746268657"/>
      <point x="723.880597015" y="637.343283582"/>
      <point x="600" y="556" type="qcurve"/>
      <point x="457.462686567" y="465.701492537"/>
      <point x="342.0" y="298.089552239"/>
      <point x="342" y="216" type="qcurve"/>
    </contour>
  </outline>
</glyph>
<glyph name="period.001" format="1">
  <advance width="441"/>
  <outline>
    <contour>
      <point x="200" y="0" type="line"/>
      <point x="242" y="0" type="line"/>
      <point x="242" y="138" type="line"/>
      <point x="200" y="138" type="line"/>
    </contour>
  </outline>
</glyph>
<glyph name="quotedblright.001" format="1">
  <advance width="935"/>
  <outline>
    <contour>
      <point x="659" y="1077" type="line"/>
      <point x="659" y="942" type="line" smooth="yes"/>
      <point x="659.0" y="819.611940299"/>
      <point x="600.746268657" y="652.343283582"/>
      <point x="550" y="571" type="qcurve"/>
      <point x="572" y="563" type="line"/>
      <point x="626.47761194" y="642.104477612"/>
      <point x="695.0" y="831.552238806"/>
      <point x="695" y="942" type="qcurve" smooth="yes"/>
      <point x="695" y="1077" type="line"/>
    </contour>
    <contour>
      <point x="279" y="1077" type="line"/>
      <point x="279" y="942" type="line" smooth="yes"/>
      <point x="279.0" y="819.611940299"/>
      <point x="220.746268657" y="652.343283582"/>
      <point x="170" y="571" type="qcurve"/>
      <point x="192" y="563" type="line"/>
      <point x="246.47761194" y="642.104477612"/>
      <point x="315.0" y="831.552238806"/>
      <point x="315" y="942" type="qcurve" smooth="yes"/>
      <point x="315" y="1077" type="line"/>
    </contour>
  </outline>
</glyph>
<glyph name="rupee" format="1">
  <advance width="2171"/>
  <outline>
    <contour>
      <point x="182" y="0" type="line"/>
      <point x="227" y="0" type="line"/>
      <point x="227" y="604" type="line"/>
      <point x="586" y="604" type="line" smooth="yes"/>
      <point x="602.417910448" y="604.0"/>
      <point x="638.582089552" y="604.507462687"/>
      <point x="655" y="606" type="qcurve"/>
      <point x="1096" y="0" type="line"/>
      <point x="1151" y="0" type="line"/>
      <point x="705" y="610" type="line"/>
      <point x="900.52238806" y="637.611940299"/>
      <point x="1122.0" y="856.059701493"/>
      <point x="1122" y="1018" type="qcurve" smooth="yes"/>
      <point x="1122" y="1022" type="line" smooth="yes"/>
      <point x="1122.0" y="1207.07462687"/>
      <point x="852.776119403" y="1434.0"/>
      <point x="608" y="1434" type="qcurve" smooth="yes"/>
      <point x="182" y="1434" type="line"/>
    </contour>
    <contour>
      <point x="227" y="645" type="line"/>
      <point x="227" y="1393" type="line"/>
      <point x="604" y="1393" type="line" smooth="yes"/>
      <point x="825.641791045" y="1393.0"/>
      <point x="1077.0" y="1189.40298507"/>
      <point x="1077" y="1020" type="qcurve" smooth="yes"/>
      <point x="1077" y="1016" type="line" smooth="yes"/>
      <point x="1077.0" y="864.507462687"/>
      <point x="833.76119403" y="645.0"/>
      <point x="586" y="645" type="qcurve" smooth="yes"/>
    </contour>
    <contour>
      <point x="1845.82089552" y="-20.0"/>
      <point x="2048.0" y="123.641791045"/>
      <point x="2048" y="252" type="qcurve" smooth="yes"/>
      <point x="2048" y="252" type="line"/>
      <point x="2048.0" y="360.208955224"/>
      <point x="1897.13432836" y="488.253731343"/>
      <point x="1724" y="539" type="qcurve" smooth="yes"/>
      <point x="1545.64179104" y="590.492537313"/>
      <point x="1413.0" y="705.686567164"/>
      <point x="1413" y="793" type="qcurve" smooth="yes"/>
      <point x="1413" y="793" type="line"/>
      <point x="1413.0" y="884.044776119"/>
      <point x="1565.8358209" y="1006.0"/>
      <point x="1683" y="1006" type="qcurve" smooth="yes"/>
      <point x="1776.28358209" y="1006.0"/>
      <point x="1921.59701493" y="950.253731343"/>
      <point x="1991" y="901" type="qcurve"/>
      <point x="2015" y="936" type="line"/>
      <point x="1949.32835821" y="984.507462687"/>
      <point x="1783.76119403" y="1047.0"/>
      <point x="1686" y="1047" type="qcurve" smooth="yes"/>
      <point x="1553.91044776" y="1047.0"/>
      <point x="1370.0" y="905.910447761"/>
      <point x="1370" y="788" type="qcurve" smooth="yes"/>
      <point x="1370" y="788" type="line"/>
      <point x="1370.0" y="679.791044776"/>
      <point x="1529.91044776" y="550.985074627"/>
      <point x="1712" y="498" type="qcurve" smooth="yes"/>
      <point x="1876.92537313" y="448.746268657"/>
      <point x="2005.0" y="338.298507463"/>
      <point x="2005" y="248" type="qcurve" smooth="yes"/>
      <point x="2005" y="248" type="line"/>
      <point x="2005.0" y="142.029850746"/>
      <point x="1829.91044776" y="20.0"/>
      <point x="1712" y="20" type="qcurve" smooth="yes"/>
      <point x="1606.7761194" y="20.0"/>
      <point x="1429.64179104" y="91.3134328358"/>
      <point x="1358" y="154" type="qcurve"/>
      <point x="1329" y="121" type="line"/>
      <point x="1399.14925373" y="59.8059701493"/>
      <point x="1590.59701493" y="-20.0"/>
      <point x="1710" y="-20" type="qcurve" smooth="yes"/>
    </contour>
  </outline>
</glyph>
<glyph name="u0A05_u0A3C" format="1">
  <advance width="1496"/>
  <outline>
    <contour>
      <point x="1520" y="1176" type="line"/>
      <point x="1336" y="1176" type="line"/>
      <point x="1336" y="0" type="line"/>
      <point x="1176" y="0" type="line"/>
      <point x="1176" y="588" type="line"/>
      <point x="1148.5" y="592.0" name="inserted"/>
      <point x="1099.5" y="596.0"/>
      <point x="1078" y="596" type="qcurve"/>
      <point x="1036.5" y="596.0" name="inserted"/>
      <point x="967.0" y="590.5"/>
      <point x="939" y="585" type="qcurve"/>
      <point x="926.5" y="458.0" name="inserted"/>
      <point x="853.5" y="331.0"/>
      <point x="793" y="331" type="qcurve"/>
      <point x="737.5" y="331.0" name="inserted"/>
      <point x="682.0" y="403.5"/>
      <point x="682" y="476" type="qcurve"/>
      <point x="682" y="514"/>
      <point x="780" y="689"/>
      <point x="780" y="756" type="qcurve"/>
      <point x="780.0" y="797.0" name="inserted"/>
      <point x="757.5" y="895.5"/>
      <point x="735" y="953" type="qcurve"/>
      <point x="714.0" y="1007.5" name="inserted"/>
      <point x="664.5" y="1100.0"/>
      <point x="636" y="1138" type="qcurve"/>
      <point x="581.5" y="1090.5" name="inserted"/>
      <point x="476.0" y="955.5"/>
      <point x="425" y="868" type="qcurve"/>
      <point x="428.5" y="842.5" name="inserted"/>
      <point x="432.0" y="792.5"/>
      <point x="432" y="768" type="qcurve"/>
      <point x="432.0" y="663.5" name="inserted"/>
      <point x="366.5" y="559.0"/>
      <point x="301" y="559" type="qcurve"/>
      <point x="249" y="559"/>
      <point x="182" y="630"/>
      <point x="182" y="691" type="qcurve"/>
      <point x="182" y="745"/>
      <point x="257" y="877"/>
      <point x="257" y="923" type="qcurve"/>
      <point x="257.0" y="958.0" name="inserted"/>
      <point x="232.0" y="1031.0"/>
      <point x="207" y="1069" type="qcurve"/>
      <point x="185.5" y="1101.5" name="inserted"/>
      <point x="134.5" y="1155.0"/>
      <point x="105" y="1176" type="qcurve"/>
      <point x="0" y="1176" type="line"/>
      <point x="0" y="1320" type="line"/>
      <point x="158" y="1320" type="line"/>
      <point x="233.5" y="1264.0" name="inserted"/>
      <point x="341.5" y="1132.0"/>
      <point x="374" y="1056" type="qcurve"/>
      <point x="401.0" y="1090.0" name="inserted"/>
      <point x="455.0" y="1158.0"/>
      <point x="482" y="1192" type="qcurve"/>
      <point x="522.0" y="1239.5" name="inserted"/>
      <point x="598.5" y="1308.5"/>
      <point x="635" y="1330" type="qcurve"/>
      <point x="705.5" y="1301.0" name="inserted"/>
      <point x="821.5" y="1166.5"/>
      <point x="867" y="1061" type="qcurve"/>
      <point x="902.0" y="980.0" name="inserted"/>
      <point x="943.5" y="816.0"/>
      <point x="950" y="733" type="qcurve"/>
      <point x="972.0" y="736.0" name="inserted"/>
      <point x="1036.0" y="739.0"/>
      <point x="1078" y="739" type="qcurve"/>
      <point x="1114.0" y="739.0" name="inserted"/>
      <point x="1163.0" y="737.5"/>
      <point x="1176" y="736" type="qcurve"/>
      <point x="1176" y="1320" type="line"/>
      <point x="1520" y="1320" type="line"/>
    </contour>
    <contour>
      <point x="409" y="152" type="qcurve"/>
      <point x="409" y="109"/>
      <point x="348" y="48"/>
      <point x="305" y="48" type="qcurve"/>
      <point x="262" y="48"/>
      <point x="201" y="109"/>
      <point x="201" y="152" type="qcurve"/>
      <point x="201" y="195"/>
      <point x="262" y="256"/>
      <point x="305" y="256" type="qcurve"/>
      <point x="348" y="256"/>
      <point x="409" y="195"/>
    </contour>
  </outline>
</glyph>
<glyph name="u0A08_u0A3C" format="1">
  <advance width="1642"/>
  <outline>
    <contour>
      <point x="1212" y="1176" type="line"/>
      <point x="1018" y="1176" type="line"/>
      <point x="1018" y="589" type="line"/>
      <point x="629" y="589" type="line"/>
      <point x="579.0" y="589.0" name="inserted"/>
      <point x="476.5" y="556.5"/>
      <point x="424" y="524" type="qcurve"/>
      <point x="377.5" y="495.0" name="inserted"/>
      <point x="304.5" y="427.5"/>
      <point x="278" y="389" type="qcurve"/>
      <point x="384.0" y="274.5" name="inserted"/>
      <point x="590.0" y="160.0"/>
      <point x="690" y="160" type="qcurve"/>
      <point x="845" y="160"/>
      <point x="993" y="191"/>
      <point x="1140" y="253" type="qcurve"/>
      <point x="1109.5" y="184.5" name="inserted"/>
      <point x="1023.5" y="86.0"/>
      <point x="968" y="56" type="qcurve"/>
      <point x="915.5" y="28.0" name="inserted"/>
      <point x="776.5" y="0.0"/>
      <point x="690" y="0" type="qcurve"/>
      <point x="546.5" y="0.0" name="inserted"/>
      <point x="244.0" y="187.0"/>
      <point x="85" y="374" type="qcurve"/>
      <point x="113.5" y="424.5" name="inserted"/>
      <point x="166.5" y="500.5"/>
      <point x="191" y="526" type="qcurve"/>
      <point x="219.0" y="556.0" name="inserted"/>
      <point x="301.5" y="618.0"/>
      <point x="356" y="650" type="qcurve"/>
      <point x="335.5" y="662.5" name="inserted"/>
      <point x="297.0" y="694.5"/>
      <point x="279" y="714" type="qcurve"/>
      <point x="221.0" y="776.0" name="inserted"/>
      <point x="160.5" y="1007.0"/>
      <point x="158" y="1176" type="qcurve"/>
      <point x="0" y="1176" type="line"/>
      <point x="0" y="1320" type="line"/>
      <point x="1212" y="1320" type="line"/>
    </contour>
    <contour>
      <point x="857" y="752" type="line"/>
      <point x="857" y="1176" type="line"/>
      <point x="317" y="1176" type="line"/>
      <point x="317.0" y="1084.0" name="inserted"/>
      <point x="334.0" y="944.5"/>
      <point x="351" y="897" type="qcurve"/>
      <point x="377.5" y="824.5" name="inserted"/>
      <point x="474.0" y="752.0"/>
      <point x="544" y="752" type="qcurve"/>
    </contour>
    <contour>
      <point x="1666" y="1176" type="line"/>
      <point x="1416" y="1176" type="line"/>
      <point x="1416" y="0" type="line"/>
      <point x="1246" y="0" type="line"/>
      <point x="1246" y="1176" type="line"/>
      <point x="1130" y="1176" type="line"/>
      <point x="1130" y="1320" type="line"/>
      <point x="1246" y="1320" type="line"/>
      <point x="1240.0" y="1494.5" name="inserted"/>
      <point x="1119.5" y="1669.0"/>
      <point x="1005" y="1669" type="qcurve"/>
      <point x="968.5" y="1669.0" name="inserted"/>
      <point x="901.5" y="1645.5"/>
      <point x="871" y="1622" type="qcurve"/>
      <point x="838.0" y="1596.0" name="inserted"/>
      <point x="799.0" y="1528.5"/>
      <point x="793" y="1487" type="qcurve"/>
      <point x="633" y="1487" type="line"/>
      <point x="640" y="1619"/>
      <point x="865" y="1829"/>
      <point x="1005" y="1829" type="qcurve"/>
      <point x="1114.0" y="1829.0" name="inserted"/>
      <point x="1277.5" y="1738.5"/>
      <point x="1332" y="1648" type="qcurve"/>
      <point x="1373.0" y="1580.0" name="inserted"/>
      <point x="1415.0" y="1416.0"/>
      <point x="1416" y="1320" type="qcurve"/>
      <point x="1666" y="1320" type="line"/>
    </contour>
    <contour>
      <point x="354" y="-168" type="qcurve"/>
      <point x="354" y="-211"/>
      <point x="293" y="-272"/>
      <point x="250" y="-272" type="qcurve"/>
      <point x="207" y="-272"/>
      <point x="146" y="-211"/>
      <point x="146" y="-168" type="qcurve"/>
      <point x="146" y="-125"/>
      <point x="207" y="-64"/>
      <point x="250" y="-64" type="qcurve"/>
      <point x="293" y="-64"/>
      <point x="354" y="-125"/>
    </contour>
  </outline>
</glyph>
<glyph name="u0A0A_u0A02" format="1">
  <advance width="1416"/>
  <outline>
    <contour>
      <point x="1440" y="1176" type="line"/>
      <point x="1323" y="1176" type="line"/>
      <point x="1323" y="1081" type="line"/>
      <point x="1323.0" y="929.0" name="inserted"/>
      <point x="1183.5" y="695.0"/>
      <point x="1044" y="613" type="qcurve"/>
      <point x="1078.0" y="579.0" name="inserted"/>
      <point x="1125.0" y="517.0"/>
      <point x="1138" y="489" type="qcurve"/>
      <point x="1153.0" y="457.5" name="inserted"/>
      <point x="1168.0" y="381.5"/>
      <point x="1168" y="337" type="qcurve"/>
      <point x="1168.0" y="252.0" name="inserted"/>
      <point x="1092.0" y="124.0"/>
      <point x="1016" y="81" type="qcurve"/>
      <point x="954.5" y="46.0" name="inserted"/>
      <point x="801.0" y="11.0"/>
      <point x="709" y="11" type="qcurve"/>
      <point x="538.0" y="11.0" name="inserted"/>
      <point x="289.5" y="204.5"/>
      <point x="212" y="398" type="qcurve"/>
      <point x="157.0" y="535.5" name="inserted"/>
      <point x="102.0" y="876.0"/>
      <point x="102" y="1079" type="qcurve"/>
      <point x="102.0" y="1107.5" name="inserted"/>
      <point x="103.5" y="1156.0"/>
      <point x="105" y="1176" type="qcurve"/>
      <point x="0" y="1176" type="line"/>
      <point x="0" y="1320" type="line"/>
      <point x="133" y="1320" type="line"/>
      <point x="162.5" y="1427.5" name="inserted"/>
      <point x="269.0" y="1597.0"/>
      <point x="346" y="1659" type="qcurve"/>
      <point x="428.0" y="1724.5" name="inserted"/>
      <point x="630.0" y="1790.0"/>
      <point x="750" y="1790" type="qcurve"/>
      <point x="846.5" y="1790.0" name="inserted"/>
      <point x="1023.5" y="1722.0"/>
      <point x="1104" y="1654" type="qcurve"/>
      <point x="1182.5" y="1587.0" name="inserted"/>
      <point x="1287.0" y="1420.0"/>
      <point x="1313" y="1320" type="qcurve"/>
      <point x="1440" y="1320" type="line"/>
    </contour>
    <contour>
      <point x="1151" y="1320" type="line"/>
      <point x="1127.5" y="1388.5" name="inserted"/>
      <point x="1040.5" y="1501.5"/>
      <point x="977" y="1546" type="qcurve"/>
      <point x="916.5" y="1589.0" name="inserted"/>
      <point x="790.5" y="1632.0"/>
      <point x="725" y="1632" type="qcurve"/>
      <point x="655.5" y="1632.0" name="inserted"/>
      <point x="525.5" y="1586.0"/>
      <point x="465" y="1540" type="qcurve"/>
      <point x="407.5" y="1496.5" name="inserted"/>
      <point x="322.0" y="1386.5"/>
      <point x="294" y="1320" type="qcurve"/>
    </contour>
    <contour>
      <point x="1161" y="1081" type="qcurve"/>
      <point x="1161" y="1176" type="line"/>
      <point x="267" y="1176" type="line"/>
      <point x="264.5" y="1139.5" name="inserted"/>
      <point x="262.0" y="1057.5"/>
      <point x="262" y="1012" type="qcurve"/>
      <point x="262.0" y="930.5" name="inserted"/>
      <point x="273.5" y="789.0"/>
      <point x="285" y="729" type="qcurve"/>
      <point x="847" y="729" type="line"/>
      <point x="902.0" y="729.0" name="inserted"/>
      <point x="1009.0" y="790.0"/>
      <point x="1061" y="851" type="qcurve"/>
      <point x="1111.0" y="910.0" name="inserted"/>
      <point x="1161.0" y="1025.0"/>
    </contour>
    <contour>
      <point x="1018" y="337" type="qcurve"/>
      <point x="1018.0" y="397.5" name="inserted"/>
      <point x="959.5" y="491.5"/>
      <point x="901" y="525" type="qcurve"/>
      <point x="852.0" y="553.5" name="inserted"/>
      <point x="738.0" y="582.0"/>
      <point x="673" y="582" type="qcurve"/>
      <point x="305" y="582" type="line"/>
      <point x="328.0" y="502.0" name="inserted"/>
      <point x="399.0" y="365.5"/>
      <point x="447" y="309" type="qcurve"/>
      <point x="505.5" y="240.0" name="inserted"/>
      <point x="636.5" y="171.0"/>
      <point x="709" y="171" type="qcurve"/>
      <point x="863.5" y="171.0" name="inserted"/>
      <point x="1018.0" y="254.0"/>
    </contour>
    <contour>
      <point x="1161" y="-255" type="qcurve"/>
      <point x="1063.0" y="-328.5" name="inserted"/>
      <point x="833.5" y="-402.0"/>
      <point x="702" y="-402" type="qcurve"/>
      <point x="571.0" y="-402.0" name="inserted"/>
      <point x="341.5" y="-328.5"/>
      <point x="243" y="-255" type="qcurve"/>
      <point x="266.0" y="-222.5" name="inserted"/>
      <point x="314.0" y="-158.5"/>
      <point x="339" y="-127" type="qcurve"/>
      <point x="369.0" y="-148.0" name="inserted"/>
      <point x="448.5" y="-186.0"/>
      <point x="498" y="-203" type="qcurve"/>
      <point x="554.0" y="-222.5" name="inserted"/>
      <point x="656.0" y="-242.0"/>
      <point x="702" y="-242" type="qcurve"/>
      <point x="747.5" y="-242.0" name="inserted"/>
      <point x="853.5" y="-220.5"/>
      <point x="914" y="-199" type="qcurve"/>
      <point x="965.5" y="-181.0" name="inserted"/>
      <point x="1041.0" y="-145.0"/>
      <point x="1065" y="-127" type="qcurve"/>
      <point x="1090.0" y="-158.5" name="inserted"/>
      <point x="1138.0" y="-222.5"/>
    </contour>
    <contour>
      <point x="1161" y="-565" type="qcurve"/>
      <point x="1063.0" y="-638.5" name="inserted"/>
      <point x="833.5" y="-712.0"/>
      <point x="702" y="-712" type="qcurve"/>
      <point x="571.0" y="-712.0" name="inserted"/>
      <point x="341.5" y="-638.5"/>
      <point x="243" y="-565" type="qcurve"/>
      <point x="266.0" y="-532.5" name="inserted"/>
      <point x="314.0" y="-468.5"/>
      <point x="339" y="-437" type="qcurve"/>
      <point x="369.0" y="-458.0" name="inserted"/>
      <point x="448.5" y="-496.0"/>
      <point x="498" y="-513" type="qcurve"/>
      <point x="554.0" y="-532.5" name="inserted"/>
      <point x="656.0" y="-552.0"/>
      <point x="702" y="-552" type="qcurve"/>
      <point x="747.5" y="-552.0" name="inserted"/>
      <point x="853.5" y="-530.5"/>
      <point x="914" y="-509" type="qcurve"/>
      <point x="965.5" y="-491.0" name="inserted"/>
      <point x="1041.0" y="-455.0"/>
      <point x="1065" y="-437" type="qcurve"/>
      <point x="1090.0" y="-468.5" name="inserted"/>
      <point x="1138.0" y="-532.5"/>
    </contour>
    <contour>
      <point x="1339" y="1829" type="qcurve"/>
      <point x="1339" y="1787"/>
      <point x="1280" y="1728"/>
      <point x="1238" y="1728" type="qcurve"/>
      <point x="1196" y="1728"/>
      <point x="1137" y="1787"/>
      <point x="1137" y="1829" type="qcurve"/>
      <point x="1137" y="1871"/>
      <point x="1196" y="1930"/>
      <point x="1238" y="1930" type="qcurve"/>
      <point x="1280" y="1930"/>
      <point x="1339" y="1871"/>
    </contour>
  </outline>
</glyph>
<glyph name="u0A0F_u0A3C" format="1">
  <advance width="1188"/>
  <outline>
    <contour>
      <point x="1212" y="1176" type="line"/>
      <point x="1018" y="1176" type="line"/>
      <point x="1018" y="589" type="line"/>
      <point x="629" y="589" type="line"/>
      <point x="579.0" y="589.0" name="inserted"/>
      <point x="476.5" y="556.5"/>
      <point x="424" y="524" type="qcurve"/>
      <point x="377.5" y="495.0" name="inserted"/>
      <point x="304.5" y="427.5"/>
      <point x="278" y="389" type="qcurve"/>
      <point x="384.0" y="274.5" name="inserted"/>
      <point x="590.0" y="160.0"/>
      <point x="690" y="160" type="qcurve"/>
      <point x="845" y="160"/>
      <point x="993" y="191"/>
      <point x="1140" y="253" type="qcurve"/>
      <point x="1109.5" y="184.5" name="inserted"/>
      <point x="1023.5" y="86.0"/>
      <point x="968" y="56" type="qcurve"/>
      <point x="915.5" y="28.0" name="inserted"/>
      <point x="776.5" y="0.0"/>
      <point x="690" y="0" type="qcurve"/>
      <point x="546.5" y="0.0" name="inserted"/>
      <point x="244.0" y="187.0"/>
      <point x="85" y="374" type="qcurve"/>
      <point x="113.5" y="424.5" name="inserted"/>
      <point x="166.5" y="500.5"/>
      <point x="191" y="526" type="qcurve"/>
      <point x="219.0" y="556.0" name="inserted"/>
      <point x="301.5" y="618.0"/>
      <point x="356" y="650" type="qcurve"/>
      <point x="335.5" y="662.5" name="inserted"/>
      <point x="297.0" y="694.5"/>
      <point x="279" y="714" type="qcurve"/>
      <point x="221.0" y="776.0" name="inserted"/>
      <point x="160.5" y="1007.0"/>
      <point x="158" y="1176" type="qcurve"/>
      <point x="0" y="1176" type="line"/>
      <point x="0" y="1320" type="line"/>
      <point x="1212" y="1320" type="line"/>
    </contour>
    <contour>
      <point x="857" y="752" type="line"/>
      <point x="857" y="1176" type="line"/>
      <point x="317" y="1176" type="line"/>
      <point x="317.0" y="1084.0" name="inserted"/>
      <point x="334.0" y="944.5"/>
      <point x="351" y="897" type="qcurve"/>
      <point x="377.5" y="824.5" name="inserted"/>
      <point x="474.0" y="752.0"/>
      <point x="544" y="752" type="qcurve"/>
    </contour>
    <contour>
      <point x="1139" y="1308" type="qcurve"/>
      <point x="979" y="1308" type="line"/>
      <point x="932.0" y="1380.0" name="inserted"/>
      <point x="857.5" y="1481.5"/>
      <point x="830" y="1511" type="qcurve"/>
      <point x="775.5" y="1570.5" name="inserted"/>
      <point x="671.5" y="1630.0"/>
      <point x="622" y="1630" type="qcurve"/>
      <point x="569" y="1630" type="line"/>
      <point x="569" y="1790" type="line"/>
      <point x="637" y="1790" type="line"/>
      <point x="757.5" y="1790.0" name="inserted"/>
      <point x="1008.5" y="1549.0"/>
    </contour>
    <contour>
      <point x="246" y="8" type="qcurve"/>
      <point x="246" y="-35"/>
      <point x="185" y="-96"/>
      <point x="142" y="-96" type="qcurve"/>
      <point x="99" y="-96"/>
      <point x="38" y="-35"/>
      <point x="38" y="8" type="qcurve"/>
      <point x="38" y="51"/>
      <point x="99" y="112"/>
      <point x="142" y="112" type="qcurve"/>
      <point x="185" y="112"/>
      <point x="246" y="51"/>
    </contour>
  </outline>
</glyph>
<glyph name="u0A14_u0A3C" format="1">
  <advance width="1496"/>
  <outline>
    <contour>
      <point x="1520" y="1176" type="line"/>
      <point x="1336" y="1176" type="line"/>
      <point x="1336" y="0" type="line"/>
      <point x="1176" y="0" type="line"/>
      <point x="1176" y="588" type="line"/>
      <point x="1148.5" y="592.0" name="inserted"/>
      <point x="1099.5" y="596.0"/>
      <point x="1078" y="596" type="qcurve"/>
      <point x="1036.5" y="596.0" name="inserted"/>
      <point x="967.0" y="590.5"/>
      <point x="939" y="585" type="qcurve"/>
      <point x="926.5" y="458.0" name="inserted"/>
      <point x="853.5" y="331.0"/>
      <point x="793" y="331" type="qcurve"/>
      <point x="737.5" y="331.0" name="inserted"/>
      <point x="682.0" y="403.5"/>
      <point x="682" y="476" type="qcurve"/>
      <point x="682" y="514"/>
      <point x="780" y="689"/>
      <point x="780" y="756" type="qcurve"/>
      <point x="780.0" y="797.0" name="inserted"/>
      <point x="757.5" y="895.5"/>
      <point x="735" y="953" type="qcurve"/>
      <point x="714.0" y="1007.5" name="inserted"/>
      <point x="664.5" y="1100.0"/>
      <point x="636" y="1138" type="qcurve"/>
      <point x="581.5" y="1090.5" name="inserted"/>
      <point x="476.0" y="955.5"/>
      <point x="425" y="868" type="qcurve"/>
      <point x="428.5" y="842.5" name="inserted"/>
      <point x="432.0" y="792.5"/>
      <point x="432" y="768" type="qcurve"/>
      <point x="432.0" y="663.5" name="inserted"/>
      <point x="366.5" y="559.0"/>
      <point x="301" y="559" type="qcurve"/>
      <point x="249" y="559"/>
      <point x="182" y="630"/>
      <point x="182" y="691" type="qcurve"/>
      <point x="182" y="745"/>
      <point x="257" y="877"/>
      <point x="257" y="923" type="qcurve"/>
      <point x="257.0" y="958.0" name="inserted"/>
      <point x="232.0" y="1031.0"/>
      <point x="207" y="1069" type="qcurve"/>
      <point x="185.5" y="1101.5" name="inserted"/>
      <point x="134.5" y="1155.0"/>
      <point x="105" y="1176" type="qcurve"/>
      <point x="0" y="1176" type="line"/>
      <point x="0" y="1320" type="line"/>
      <point x="158" y="1320" type="line"/>
      <point x="233.5" y="1264.0" name="inserted"/>
      <point x="341.5" y="1132.0"/>
      <point x="374" y="1056" type="qcurve"/>
      <point x="401.0" y="1090.0" name="inserted"/>
      <point x="455.0" y="1158.0"/>
      <point x="482" y="1192" type="qcurve"/>
      <point x="522.0" y="1239.5" name="inserted"/>
      <point x="598.5" y="1308.5"/>
      <point x="635" y="1330" type="qcurve"/>
      <point x="705.5" y="1301.0" name="inserted"/>
      <point x="821.5" y="1166.5"/>
      <point x="867" y="1061" type="qcurve"/>
      <point x="902.0" y="980.0" name="inserted"/>
      <point x="943.5" y="816.0"/>
      <point x="950" y="733" type="qcurve"/>
      <point x="972.0" y="736.0" name="inserted"/>
      <point x="1036.0" y="739.0"/>
      <point x="1078" y="739" type="qcurve"/>
      <point x="1114.0" y="739.0" name="inserted"/>
      <point x="1163.0" y="737.5"/>
      <point x="1176" y="736" type="qcurve"/>
      <point x="1176" y="1320" type="line"/>
      <point x="1520" y="1320" type="line"/>
    </contour>
    <contour>
      <point x="1554" y="1369" type="qcurve"/>
      <point x="1396" y="1369" type="line"/>
      <point x="1396.0" y="1416.5" name="inserted"/>
      <point x="1376.0" y="1492.0"/>
      <point x="1356" y="1520" type="qcurve"/>
      <point x="1337.5" y="1546.5" name="inserted"/>
      <point x="1289.5" y="1573.0"/>
      <point x="1260" y="1573" type="qcurve"/>
      <point x="1232.0" y="1573.0" name="inserted"/>
      <point x="1181.0" y="1547.0"/>
      <point x="1158" y="1521" type="qcurve"/>
      <point x="1132.0" y="1491.5" name="inserted"/>
      <point x="1106.0" y="1415.0"/>
      <point x="1106" y="1368" type="qcurve"/>
      <point x="946" y="1368" type="line"/>
      <point x="946.0" y="1464.5" name="inserted"/>
      <point x="1025.0" y="1616.5"/>
      <point x="1104" y="1672" type="qcurve"/>
      <point x="1039.0" y="1688.5" name="inserted"/>
      <point x="945.0" y="1726.0"/>
      <point x="916" y="1747" type="qcurve"/>
      <point x="874.0" y="1778.0" name="inserted"/>
      <point x="832.0" y="1865.5"/>
      <point x="832" y="1922" type="qcurve"/>
      <point x="992" y="1922" type="line"/>
      <point x="992.0" y="1877.5" name="inserted"/>
      <point x="1065.0" y="1811.5"/>
      <point x="1138" y="1790" type="qcurve"/>
      <point x="1247.0" y="1757.0" name="inserted"/>
      <point x="1382.0" y="1706.5"/>
      <point x="1408" y="1689" type="qcurve"/>
      <point x="1481.0" y="1640.0" name="inserted"/>
      <point x="1554.0" y="1480.0"/>
    </contour>
    <contour>
      <point x="409" y="152" type="qcurve"/>
      <point x="409" y="109"/>
      <point x="348" y="48"/>
      <point x="305" y="48" type="qcurve"/>
      <point x="262" y="48"/>
      <point x="201" y="109"/>
      <point x="201" y="152" type="qcurve"/>
      <point x="201" y="195"/>
      <point x="262" y="256"/>
      <point x="305" y="256" type="qcurve"/>
      <point x="348" y="256"/>
      <point x="409" y="195"/>
    </contour>
  </outline>
</glyph>
<glyph name="u0A1B_u0A3C_u0A4D" format="1">
  <advance width="1376"/>
  <outline>
    <contour>
      <point x="1400" y="1176" type="line"/>
      <point x="1216" y="1176" type="line"/>
      <point x="1216" y="805" type="line"/>
      <point x="561" y="805" type="line"/>
      <point x="496.5" y="805.0" name="inserted"/>
      <point x="405.0" y="797.5"/>
      <point x="378" y="790" type="qcurve"/>
      <point x="325.0" y="775.0" name="inserted"/>
      <point x="272.0" y="712.5"/>
      <point x="272" y="665" type="qcurve"/>
      <point x="272.0" y="608.5" name="inserted"/>
      <point x="381.0" y="552.0"/>
      <point x="490" y="552" type="qcurve"/>
      <point x="961" y="552" type="line"/>
      <point x="1027.5" y="552.0" name="inserted"/>
      <point x="1137.5" y="512.5"/>
      <point x="1181" y="473" type="qcurve"/>
      <point x="1226.0" y="432.0" name="inserted"/>
      <point x="1271.0" y="325.0"/>
      <point x="1271" y="259" type="qcurve"/>
      <point x="1271.0" y="156.5" name="inserted"/>
      <point x="1150.0" y="18.0"/>
      <point x="1029" y="-18" type="qcurve"/>
      <point x="959.5" y="-39.0" name="inserted"/>
      <point x="755.0" y="-60.0"/>
      <point x="620" y="-60" type="qcurve"/>
      <point x="565" y="-60" type="line"/>
      <point x="479.5" y="-60.0" name="inserted"/>
      <point x="331.0" y="-28.5"/>
      <point x="268" y="3" type="qcurve"/>
      <point x="188.0" y="43.5" name="inserted"/>
      <point x="108.0" y="160.5"/>
      <point x="108" y="237" type="qcurve"/>
      <point x="108.0" y="307.0" name="inserted"/>
      <point x="158.0" y="417.0"/>
      <point x="208" y="457" type="qcurve"/>
      <point x="160.5" y="488.0" name="inserted"/>
      <point x="113.0" y="587.0"/>
      <point x="113" y="655" type="qcurve"/>
      <point x="113.0" y="754.0" name="inserted"/>
      <point x="192.5" y="887.0"/>
      <point x="272" y="921" type="qcurve"/>
      <point x="322.5" y="942.5" name="inserted"/>
      <point x="487.5" y="964.0"/>
      <point x="602" y="964" type="qcurve"/>
      <point x="1053" y="964" type="line"/>
      <point x="1053" y="1176" type="line"/>
      <point x="0" y="1176" type="line"/>
      <point x="0" y="1320" type="line"/>
      <point x="1400" y="1320" type="line"/>
    </contour>
    <contour>
      <point x="1112" y="260" type="qcurve"/>
      <point x="1112" y="323"/>
      <point x="1034" y="396"/>
      <point x="971" y="396" type="qcurve"/>
      <point x="693" y="396" type="line"/>
      <point x="724.0" y="350.5" name="inserted"/>
      <point x="755.0" y="239.5"/>
      <point x="755" y="174" type="qcurve"/>
      <point x="755.0" y="156.0" name="inserted"/>
      <point x="752.5" y="118.5"/>
      <point x="750" y="99" type="qcurve"/>
      <point x="827.0" y="104.0" name="inserted"/>
      <point x="936.5" y="118.0"/>
      <point x="969" y="127" type="qcurve"/>
      <point x="1040.5" y="146.5" name="inserted"/>
      <point x="1112.0" y="213.0"/>
    </contour>
    <contour>
      <point x="595" y="177" type="qcurve"/>
      <point x="595.0" y="216.5" name="inserted"/>
      <point x="579.0" y="282.5"/>
      <point x="563" y="309" type="qcurve"/>
      <point x="544.0" y="341.5" name="inserted"/>
      <point x="488.5" y="374.0"/>
      <point x="452" y="374" type="qcurve"/>
      <point x="417.5" y="374.0" name="inserted"/>
      <point x="356.5" y="357.0"/>
      <point x="330" y="340" type="qcurve"/>
      <point x="299.0" y="321.0" name="inserted"/>
      <point x="268.0" y="269.5"/>
      <point x="268" y="237" type="qcurve"/>
      <point x="268.0" y="199.0" name="inserted"/>
      <point x="330.5" y="143.0"/>
      <point x="393" y="125" type="qcurve"/>
      <point x="436.0" y="112.5" name="inserted"/>
      <point x="533.0" y="100.0"/>
      <point x="587" y="100" type="qcurve"/>
      <point x="591.0" y="118.0" name="inserted"/>
      <point x="595.0" y="156.5"/>
    </contour>
    <contour>
      <point x="264" y="-182" type="qcurve"/>
      <point x="264" y="-225"/>
      <point x="203" y="-286"/>
      <point x="160" y="-286" type="qcurve"/>
      <point x="117" y="-286"/>
      <point x="56" y="-225"/>
      <point x="56" y="-182" type="qcurve"/>
      <point x="56" y="-139"/>
      <point x="117" y="-78"/>
      <point x="160" y="-78" type="qcurve"/>
      <point x="203" y="-78"/>
      <point x="264" y="-139"/>
    </contour>
    <contour>
      <point x="1094" y="-560" type="line"/>
      <point x="968" y="-657" type="line"/>
      <point x="672" y="-242" type="line"/>
      <point x="801" y="-150" type="line"/>
    </contour>
  </outline>
</glyph>
<glyph name="u0A1C_u0A4D" format="1">
  <advance width="1408"/>
  <outline>
    <contour>
      <point x="1432" y="1176" type="line"/>
      <point x="1248" y="1176" type="line"/>
      <point x="1248" y="0" type="line"/>
      <point x="1089" y="0" type="line"/>
      <point x="1089" y="546" type="line"/>
      <point x="434" y="546" type="line"/>
      <point x="434" y="0" type="line"/>
      <point x="274" y="0" type="line"/>
      <point x="274" y="547" type="line"/>
      <point x="187.0" y="555.0" name="inserted"/>
      <point x="100.0" y="611.0"/>
      <point x="100" y="659" type="qcurve"/>
      <point x="100" y="717"/>
      <point x="252" y="850"/>
      <point x="311" y="850" type="qcurve"/>
      <point x="352.0" y="850.0" name="inserted"/>
      <point x="407.0" y="783.0"/>
      <point x="421" y="716" type="qcurve"/>
      <point x="1089" y="716" type="line"/>
      <point x="1089" y="1176" type="line"/>
      <point x="0" y="1176" type="line"/>
      <point x="0" y="1320" type="line"/>
      <point x="1432" y="1320" type="line"/>
    </contour>
    <contour>
      <point x="1524" y="-554" type="line"/>
      <point x="1398" y="-651" type="line"/>
      <point x="1102" y="-236" type="line"/>
      <point x="1231" y="-144" type="line"/>
    </contour>
  </outline>
</glyph>
<glyph name="u0A1D_u0A3C" format="1">
  <advance width="1408"/>
  <outline>
    <contour>
      <point x="1432" y="1176" type="line"/>
      <point x="1315" y="1176" type="line"/>
      <point x="1269.5" y="1027.5" name="inserted"/>
      <point x="1119.0" y="810.5"/>
      <point x="1014" y="742" type="qcurve"/>
      <point x="1107.0" y="705.0" name="inserted"/>
      <point x="1200.0" y="550.0"/>
      <point x="1200" y="432" type="qcurve"/>
      <point x="1200.0" y="373.0" name="inserted"/>
      <point x="1148.5" y="265.5"/>
      <point x="1097" y="217" type="qcurve"/>
      <point x="1054.0" y="177.0" name="inserted"/>
      <point x="948.0" y="115.5"/>
      <point x="885" y="94" type="qcurve"/>
      <point x="901.0" y="68.5" name="inserted"/>
      <point x="948.0" y="-8.5"/>
      <point x="979" y="-60" type="qcurve"/>
      <point x="808" y="-60" type="line"/>
      <point x="795.0" y="-40.5" name="inserted"/>
      <point x="755.5" y="17.5"/>
      <point x="729" y="56" type="qcurve"/>
      <point x="697.0" y="51.5" name="inserted"/>
      <point x="624.0" y="47.0"/>
      <point x="583" y="47" type="qcurve"/>
      <point x="514.0" y="47.0" name="inserted"/>
      <point x="401.5" y="73.0"/>
      <point x="358" y="99" type="qcurve"/>
      <point x="304.5" y="131.0" name="inserted"/>
      <point x="251.0" y="227.0"/>
      <point x="251" y="291" type="qcurve"/>
      <point x="251.0" y="339.5" name="inserted"/>
      <point x="284.0" y="418.0"/>
      <point x="317" y="448" type="qcurve"/>
      <point x="348.5" y="477.0" name="inserted"/>
      <point x="429.0" y="506.0"/>
      <point x="478" y="506" type="qcurve"/>
      <point x="528.5" y="506.0" name="inserted"/>
      <point x="625.5" y="460.0"/>
      <point x="672" y="414" type="qcurve"/>
      <point x="700.0" y="387.0" name="inserted"/>
      <point x="768.0" y="298.5"/>
      <point x="808" y="237" type="qcurve"/>
      <point x="851.5" y="247.0" name="inserted"/>
      <point x="926.5" y="279.0"/>
      <point x="958" y="301" type="qcurve"/>
      <point x="999.5" y="329.5" name="inserted"/>
      <point x="1041.0" y="395.0"/>
      <point x="1041" y="432" type="qcurve"/>
      <point x="1041.0" y="532.0" name="inserted"/>
      <point x="884.5" y="632.0"/>
      <point x="728" y="632" type="qcurve"/>
      <point x="112" y="632" type="line"/>
      <point x="112" y="791" type="line"/>
      <point x="351" y="791" type="line"/>
      <point x="298.0" y="855.5" name="inserted"/>
      <point x="226.0" y="1048.0"/>
      <point x="207" y="1176" type="qcurve"/>
      <point x="0" y="1176" type="line"/>
      <point x="0" y="1320" type="line"/>
      <point x="1432" y="1320" type="line"/>
    </contour>
    <contour>
      <point x="1146" y="1176" type="qcurve"/>
      <point x="369" y="1176" type="line"/>
      <point x="385.0" y="1057.0" name="inserted"/>
      <point x="463.0" y="865.0"/>
      <point x="525" y="792" type="qcurve"/>
      <point x="632" y="792" type="line"/>
      <point x="687.5" y="792.0" name="inserted"/>
      <point x="806.5" y="821.5"/>
      <point x="870" y="851" type="qcurve"/>
      <point x="935.5" y="882.0" name="inserted"/>
      <point x="1032.5" y="956.0"/>
      <point x="1064" y="999" type="qcurve"/>
      <point x="1093.0" y="1039.0" name="inserted"/>
      <point x="1134.0" y="1127.5"/>
    </contour>
    <contour>
      <point x="638" y="209" type="qcurve"/>
      <point x="592.0" y="277.5" name="inserted"/>
      <point x="512.0" y="346.0"/>
      <point x="478" y="346" type="qcurve"/>
      <point x="444.5" y="346.0" name="inserted"/>
      <point x="411.0" y="318.5"/>
      <point x="411" y="291" type="qcurve"/>
      <point x="411.0" y="249.0" name="inserted"/>
      <point x="494.0" y="207.0"/>
      <point x="577" y="207" type="qcurve"/>
      <point x="593.0" y="207.0" name="inserted"/>
      <point x="623.5" y="208.0"/>
    </contour>
    <contour>
      <point x="274" y="-32" type="qcurve"/>
      <point x="274" y="-75"/>
      <point x="213" y="-136"/>
      <point x="170" y="-136" type="qcurve"/>
      <point x="127" y="-136"/>
      <point x="66" y="-75"/>
      <point x="66" y="-32" type="qcurve"/>
      <point x="66" y="11"/>
      <point x="127" y="72"/>
      <point x="170" y="72" type="qcurve"/>
      <point x="213" y="72"/>
      <point x="274" y="11"/>
    </contour>
    <contour>
      <point x="1230" y="1248" type="move" name="mark0"/>
    </contour>
    <contour>
      <point x="1408" y="0" type="move" name="mark0"/>
    </contour>
  </outline>
</glyph>
<glyph name="u0A1E_u0A3C" format="1">
  <advance width="1408"/>
  <outline>
    <contour>
      <point x="1432" y="1176" type="line"/>
      <point x="1248" y="1176" type="line"/>
      <point x="1248" y="676" type="line"/>
      <point x="390" y="676" type="line"/>
      <point x="320.5" y="676.0" name="inserted"/>
      <point x="251.0" y="616.5"/>
      <point x="251" y="557" type="qcurve"/>
      <point x="251.0" y="530.0" name="inserted"/>
      <point x="275.0" y="487.0"/>
      <point x="299" y="471" type="qcurve"/>
      <point x="319.5" y="457.5" name="inserted"/>
      <point x="368.5" y="444.0"/>
      <point x="397" y="444" type="qcurve"/>
      <point x="1248" y="444" type="line"/>
      <point x="1248" y="273" type="line"/>
      <point x="634" y="273" type="line"/>
      <point x="622.5" y="251.0" name="inserted"/>
      <point x="611.0" y="199.0"/>
      <point x="611" y="169" type="qcurve"/>
      <point x="611.0" y="113.5" name="inserted"/>
      <point x="745.5" y="58.0"/>
      <point x="880" y="58" type="qcurve"/>
      <point x="890.5" y="58.0" name="inserted"/>
      <point x="916.5" y="58.0"/>
      <point x="932" y="58" type="qcurve"/>
      <point x="948.0" y="58.5" name="inserted"/>
      <point x="968.0" y="59.0"/>
      <point x="972" y="59" type="qcurve"/>
      <point x="1248" y="59" type="line"/>
      <point x="1248" y="-101" type="line"/>
      <point x="886" y="-101" type="line"/>
      <point x="791.0" y="-101.0" name="inserted"/>
      <point x="647.0" y="-80.0"/>
      <point x="598" y="-59" type="qcurve"/>
      <point x="524.5" y="-28.0" name="inserted"/>
      <point x="451.0" y="84.5"/>
      <point x="451" y="166" type="qcurve"/>
      <point x="451.0" y="194.5" name="inserted"/>
      <point x="463.5" y="253.0"/>
      <point x="476" y="283" type="qcurve"/>
      <point x="283.5" y="283.0" name="inserted"/>
      <point x="91.0" y="419.0"/>
      <point x="91" y="555" type="qcurve"/>
      <point x="91.0" y="674.5" name="inserted"/>
      <point x="222.0" y="815.0"/>
      <point x="353" y="836" type="qcurve"/>
      <point x="305.5" y="907.0" name="inserted"/>
      <point x="254.5" y="1077.0"/>
      <point x="251" y="1176" type="qcurve"/>
      <point x="0" y="1176" type="line"/>
      <point x="0" y="1320" type="line"/>
      <point x="1432" y="1320" type="line"/>
    </contour>
    <contour>
      <point x="1088" y="836" type="line"/>
      <point x="1088" y="1176" type="line"/>
      <point x="411" y="1176" type="line"/>
      <point x="413.0" y="1126.0" name="inserted"/>
      <point x="438.5" y="1025.5"/>
      <point x="462" y="975" type="qcurve"/>
      <point x="483.5" y="928.0" name="inserted"/>
      <point x="532.0" y="858.5"/>
      <point x="559" y="836" type="qcurve"/>
    </contour>
    <contour>
      <point x="314" y="18" type="qcurve"/>
      <point x="314" y="-25"/>
      <point x="253" y="-86"/>
      <point x="210" y="-86" type="qcurve"/>
      <point x="167" y="-86"/>
      <point x="106" y="-25"/>
      <point x="106" y="18" type="qcurve"/>
      <point x="106" y="61"/>
      <point x="167" y="122"/>
      <point x="210" y="122" type="qcurve"/>
      <point x="253" y="122"/>
      <point x="314" y="61"/>
    </contour>
    <contour>
      <point x="1168" y="1248" type="move" name="mark0"/>
    </contour>
    <contour>
      <point x="1424" y="0" type="move" name="mark0"/>
    </contour>
  </outline>
</glyph>
<glyph name="u0A20_u0A3C_u0A4D" format="1">
  <advance width="1408"/>
  <outline>
    <contour>
      <point x="1432" y="1176" type="line"/>
      <point x="780" y="1176" type="line"/>
      <point x="780" y="949" type="line"/>
      <point x="1016.5" y="858.5" name="inserted"/>
      <point x="1253.0" y="617.0"/>
      <point x="1253" y="466" type="qcurve"/>
      <point x="1253.0" y="366.5" name="inserted"/>
      <point x="1163.5" y="198.0"/>
      <point x="1074" y="129" type="qcurve"/>
      <point x="991.0" y="64.5" name="inserted"/>
      <point x="804.0" y="0.0"/>
      <point x="700" y="0" type="qcurve"/>
      <point x="596.0" y="0.0" name="inserted"/>
      <point x="409.0" y="64.5"/>
      <point x="326" y="129" type="qcurve"/>
      <point x="236.5" y="198.0" name="inserted"/>
      <point x="147.0" y="366.5"/>
      <point x="147" y="466" type="qcurve"/>
      <point x="147.0" y="617.0" name="inserted"/>
      <point x="383.0" y="858.5"/>
      <point x="619" y="949" type="qcurve"/>
      <point x="619" y="1176" type="line"/>
      <point x="0" y="1176" type="line"/>
      <point x="0" y="1320" type="line"/>
      <point x="1432" y="1320" type="line"/>
    </contour>
    <contour>
      <point x="1093" y="466" type="qcurve"/>
      <point x="1093.0" y="524.0" name="inserted"/>
      <point x="1023.0" y="631.0"/>
      <point x="953" y="680" type="qcurve"/>
      <point x="900.0" y="717.0" name="inserted"/>
      <point x="769.5" y="777.5"/>
      <point x="692" y="801" type="qcurve"/>
      <point x="617.0" y="778.0" name="inserted"/>
      <point x="490.5" y="717.5"/>
      <point x="439" y="680" type="qcurve"/>
      <point x="373.0" y="631.0" name="inserted"/>
      <point x="307.0" y="524.0"/>
      <point x="307" y="466" type="qcurve"/>
      <point x="307.0" y="401.0" name="inserted"/>
      <point x="373.5" y="289.0"/>
      <point x="440" y="242" type="qcurve"/>
      <point x="500.5" y="199.5" name="inserted"/>
      <point x="630.0" y="157.0"/>
      <point x="699" y="157" type="qcurve"/>
      <point x="768.5" y="157.0" name="inserted"/>
      <point x="898.5" y="199.5"/>
      <point x="959" y="242" type="qcurve"/>
      <point x="1026.0" y="289.0" name="inserted"/>
      <point x="1093.0" y="401.0"/>
    </contour>
    <contour>
      <point x="264" y="-32" type="qcurve"/>
      <point x="264" y="-75"/>
      <point x="203" y="-136"/>
      <point x="160" y="-136" type="qcurve"/>
      <point x="117" y="-136"/>
      <point x="56" y="-75"/>
      <point x="56" y="-32" type="qcurve"/>
      <point x="56" y="11"/>
      <point x="117" y="72"/>
      <point x="160" y="72" type="qcurve"/>
      <point x="203" y="72"/>
      <point x="264" y="11"/>
    </contour>
    <contour>
      <point x="1094" y="-554" type="line"/>
      <point x="968" y="-651" type="line"/>
      <point x="672" y="-236" type="line"/>
      <point x="801" y="-144" type="line"/>
    </contour>
  </outline>
</glyph>
<glyph name="u0A23_u0A4D" format="1">
  <advance width="1260"/>
  <outline>
    <contour>
      <point x="1284" y="1176" type="line"/>
      <point x="497" y="1176" type="line"/>
      <point x="516.0" y="1083.0" name="inserted"/>
      <point x="640.5" y="958.5"/>
      <point x="746" y="927" type="qcurve"/>
      <point x="808.5" y="908.0" name="inserted"/>
      <point x="997.5" y="889.0"/>
      <point x="1124" y="889" type="qcurve"/>
      <point x="1124" y="734" type="line"/>
      <point x="1084" y="734" type="line"/>
      <point x="995.5" y="734.0" name="inserted"/>
      <point x="859.5" y="744.0"/>
      <point x="812" y="754" type="qcurve"/>
      <point x="812" y="517" type="line"/>
      <point x="740.5" y="535.5" name="inserted"/>
      <point x="598.5" y="554.0"/>
      <point x="528" y="554" type="qcurve"/>
      <point x="484.0" y="554.0" name="inserted"/>
      <point x="408.5" y="530.5"/>
      <point x="377" y="507" type="qcurve"/>
      <point x="343.0" y="481.0" name="inserted"/>
      <point x="309.0" y="412.0"/>
      <point x="309" y="369" type="qcurve"/>
      <point x="309.0" y="265.5" name="inserted"/>
      <point x="483.0" y="162.0"/>
      <point x="657" y="162" type="qcurve"/>
      <point x="713.0" y="162.0" name="inserted"/>
      <point x="855.5" y="188.0"/>
      <point x="942" y="214" type="qcurve"/>
      <point x="1014.5" y="235.5" name="inserted"/>
      <point x="1098.0" y="257.0"/>
      <point x="1109" y="257" type="qcurve"/>
      <point x="1114.5" y="257.0" name="inserted"/>
      <point x="1120.0" y="250.5"/>
      <point x="1120" y="244" type="qcurve"/>
      <point x="1120.0" y="185.5" name="inserted"/>
      <point x="1029.5" y="92.0"/>
      <point x="939" y="57" type="qcurve"/>
      <point x="868.5" y="29.5" name="inserted"/>
      <point x="727.5" y="2.0"/>
      <point x="657" y="2" type="qcurve"/>
      <point x="553.5" y="2.0" name="inserted"/>
      <point x="382.5" y="41.0"/>
      <point x="315" y="80" type="qcurve"/>
      <point x="232.5" y="128.5" name="inserted"/>
      <point x="150.0" y="273.0"/>
      <point x="150" y="369" type="qcurve"/>
      <point x="150.0" y="442.0" name="inserted"/>
      <point x="203.0" y="565.5"/>
      <point x="256" y="616" type="qcurve"/>
      <point x="308.5" y="665.0" name="inserted"/>
      <point x="434.5" y="714.0"/>
      <point x="508" y="714" type="qcurve"/>
      <point x="554.5" y="714.0" name="inserted"/>
      <point x="644.5" y="706.5"/>
      <point x="688" y="699" type="qcurve"/>
      <point x="688" y="786" type="line"/>
      <point x="531.0" y="841.5" name="inserted"/>
      <point x="354.0" y="1036.5"/>
      <point x="334" y="1176" type="qcurve"/>
      <point x="0" y="1176" type="line"/>
      <point x="0" y="1320" type="line"/>
      <point x="1284" y="1320" type="line"/>
    </contour>
    <contour>
      <point x="1044" y="-554" type="line"/>
      <point x="918" y="-651" type="line"/>
      <point x="622" y="-236" type="line"/>
      <point x="751" y="-144" type="line"/>
    </contour>
  </outline>
</glyph>
<glyph name="u0A24_u0A3C" format="1">
  <advance width="1376"/>
  <outline>
    <contour>
      <point x="1400" y="1176" type="line"/>
      <point x="1216" y="1176" type="line"/>
      <point x="1212.5" y="1001.0" name="inserted"/>
      <point x="1100.0" y="760.5"/>
      <point x="991" y="695" type="qcurve"/>
      <point x="1081.5" y="635.5" name="inserted"/>
      <point x="1172.0" y="467.0"/>
      <point x="1172" y="358" type="qcurve"/>
      <point x="1172.0" y="258.5" name="inserted"/>
      <point x="1077.5" y="112.5"/>
      <point x="983" y="66" type="qcurve"/>
      <point x="911.0" y="30.0" name="inserted"/>
      <point x="728.5" y="-6.0"/>
      <point x="618" y="-6" type="qcurve"/>
      <point x="541.5" y="-6.0" name="inserted"/>
      <point x="383.0" y="26.0"/>
      <point x="301" y="58" type="qcurve"/>
      <point x="197.5" y="98.5" name="inserted"/>
      <point x="94.0" y="203.0"/>
      <point x="94" y="267" type="qcurve"/>
      <point x="94.0" y="281.0" name="inserted"/>
      <point x="107.0" y="295.0"/>
      <point x="120" y="295" type="qcurve"/>
      <point x="117" y="295"/>
      <point x="501" y="154"/>
      <point x="618" y="154" type="qcurve"/>
      <point x="815.5" y="154.0" name="inserted"/>
      <point x="1013.0" y="262.5"/>
      <point x="1013" y="371" type="qcurve"/>
      <point x="1013.0" y="442.5" name="inserted"/>
      <point x="916.5" y="570.5"/>
      <point x="820" y="627" type="qcurve"/>
      <point x="753.5" y="607.5" name="inserted"/>
      <point x="611.0" y="588.0"/>
      <point x="535" y="588" type="qcurve"/>
      <point x="413.0" y="588.0" name="inserted"/>
      <point x="291.0" y="644.5"/>
      <point x="291" y="701" type="qcurve"/>
      <point x="291.0" y="766.0" name="inserted"/>
      <point x="416.5" y="831.0"/>
      <point x="542" y="831" type="qcurve"/>
      <point x="623.0" y="831.0" name="inserted"/>
      <point x="771.5" y="811.0"/>
      <point x="839" y="791" type="qcurve"/>
      <point x="946.5" y="843.5" name="inserted"/>
      <point x="1055.5" y="1036.0"/>
      <point x="1057" y="1176" type="qcurve"/>
      <point x="0" y="1176" type="line"/>
      <point x="0" y="1320" type="line"/>
      <point x="1400" y="1320" type="line"/>
    </contour>
    <contour>
      <point x="264" y="-132" type="qcurve"/>
      <point x="264" y="-175"/>
      <point x="203" y="-236"/>
      <point x="160" y="-236" type="qcurve"/>
      <point x="117" y="-236"/>
      <point x="56" y="-175"/>
      <point x="56" y="-132" type="qcurve"/>
      <point x="56" y="-89"/>
      <point x="117" y="-28"/>
      <point x="160" y="-28" type="qcurve"/>
      <point x="203" y="-28"/>
      <point x="264" y="-89"/>
    </contour>
    <contour>
      <point x="1136" y="1248" type="move" name="mark0"/>
    </contour>
    <contour>
      <point x="1376" y="0" type="move" name="mark0"/>
    </contour>
  </outline>
</glyph>
<glyph name="u0A25_u0A3C" format="1">
  <advance width="1376"/>
  <outline>
    <contour>
      <point x="1400" y="1176" type="line"/>
      <point x="1216" y="1176" type="line"/>
      <point x="1216" y="0" type="line"/>
      <point x="1056" y="0" type="line"/>
      <point x="1056" y="389" type="line"/>
      <point x="987.5" y="350.0" name="inserted"/>
      <point x="780.0" y="311.0"/>
      <point x="641" y="311" type="qcurve"/>
      <point x="572.5" y="311.0" name="inserted"/>
      <point x="438.0" y="340.0"/>
      <point x="372" y="369" type="qcurve"/>
      <point x="302.5" y="399.0" name="inserted"/>
      <point x="198.0" y="477.5"/>
      <point x="163" y="526" type="qcurve"/>
      <point x="183.0" y="556.5" name="inserted"/>
      <point x="223.0" y="617.5"/>
      <point x="243" y="648" type="qcurve"/>
      <point x="278.0" y="713.5" name="inserted"/>
      <point x="313.0" y="855.5"/>
      <point x="313" y="932" type="qcurve"/>
      <point x="313.0" y="1014.0" name="inserted"/>
      <point x="280.0" y="1136.0"/>
      <point x="247" y="1176" type="qcurve"/>
      <point x="0" y="1176" type="line"/>
      <point x="0" y="1320" type="line"/>
      <point x="1400" y="1320" type="line"/>
    </contour>
    <contour>
      <point x="1056" y="886" type="line"/>
      <point x="1056" y="1176" type="line"/>
      <point x="434" y="1176" type="line"/>
      <point x="454.0" y="1127.5" name="inserted"/>
      <point x="473.5" y="982.5"/>
      <point x="473" y="886" type="qcurve"/>
    </contour>
    <contour>
      <point x="1056" y="580" type="qcurve"/>
      <point x="1056" y="742" type="line"/>
      <point x="452" y="742" type="line"/>
      <point x="439.5" y="688.5" name="inserted"/>
      <point x="394.0" y="591.0"/>
      <point x="361" y="547" type="qcurve"/>
      <point x="408.5" y="509.0" name="inserted"/>
      <point x="548.5" y="471.0"/>
      <point x="641" y="471" type="qcurve"/>
      <point x="697.0" y="471.0" name="inserted"/>
      <point x="810.5" y="484.5"/>
      <point x="868" y="498" type="qcurve"/>
      <point x="934.0" y="513.5" name="inserted"/>
      <point x="1028.0" y="554.5"/>
    </contour>
    <contour>
      <point x="409" y="152" type="qcurve"/>
      <point x="409" y="109"/>
      <point x="348" y="48"/>
      <point x="305" y="48" type="qcurve"/>
      <point x="262" y="48"/>
      <point x="201" y="109"/>
      <point x="201" y="152" type="qcurve"/>
      <point x="201" y="195"/>
      <point x="262" y="256"/>
      <point x="305" y="256" type="qcurve"/>
      <point x="348" y="256"/>
      <point x="409" y="195"/>
    </contour>
    <contour>
      <point x="1136" y="1248" type="move" name="mark0"/>
    </contour>
    <contour>
      <point x="1376" y="0" type="move" name="mark0"/>
    </contour>
  </outline>
</glyph>
<glyph name="u0A28_u0A3C_u0A4D" format="1">
  <advance width="1376"/>
  <outline>
    <contour>
      <point x="1400" y="1176" type="line"/>
      <point x="777" y="1176" type="line"/>
      <point x="777" y="947" type="line"/>
      <point x="881.5" y="918.0" name="inserted"/>
      <point x="1051.0" y="838.5"/>
      <point x="1116" y="788" type="qcurve"/>
      <point x="1200.5" y="722.5" name="inserted"/>
      <point x="1285.0" y="565.0"/>
      <point x="1285" y="473" type="qcurve"/>
      <point x="1285.0" y="385.0" name="inserted"/>
      <point x="1234.0" y="235.0"/>
      <point x="1183" y="173" type="qcurve"/>
      <point x="1134.5" y="114.5" name="inserted"/>
      <point x="999.5" y="29.0"/>
      <point x="913" y="2" type="qcurve"/>
      <point x="866" y="154" type="line"/>
      <point x="995.5" y="194.0" name="inserted"/>
      <point x="1125.0" y="353.5"/>
      <point x="1125" y="473" type="qcurve"/>
      <point x="1125.0" y="519.5" name="inserted"/>
      <point x="1064.0" y="611.0"/>
      <point x="1003" y="656" type="qcurve"/>
      <point x="957.0" y="690.0" name="inserted"/>
      <point x="854.0" y="743.5"/>
      <point x="797" y="763" type="qcurve"/>
      <point x="762.5" y="775.0" name="inserted"/>
      <point x="714.5" y="787.0"/>
      <point x="701" y="787" type="qcurve"/>
      <point x="687.5" y="787.0" name="inserted"/>
      <point x="639.5" y="775.5"/>
      <point x="605" y="764" type="qcurve"/>
      <point x="547.5" y="744.5" name="inserted"/>
      <point x="442.5" y="690.5"/>
      <point x="395" y="656" type="qcurve"/>
      <point x="332.5" y="611.0" name="inserted"/>
      <point x="270.0" y="519.5"/>
      <point x="270" y="473" type="qcurve"/>
      <point x="270.0" y="353.5" name="inserted"/>
      <point x="399.5" y="194.0"/>
      <point x="529" y="154" type="qcurve"/>
      <point x="482" y="2" type="line"/>
      <point x="395.5" y="29.0" name="inserted"/>
      <point x="260.5" y="114.5"/>
      <point x="212" y="173" type="qcurve"/>
      <point x="161.0" y="235.0" name="inserted"/>
      <point x="110.0" y="385.0"/>
      <point x="110" y="473" type="qcurve"/>
      <point x="110.0" y="563.0" name="inserted"/>
      <point x="195.0" y="719.5"/>
      <point x="280" y="786" type="qcurve"/>
      <point x="346.0" y="838.0" name="inserted"/>
      <point x="514.5" y="918.5"/>
      <point x="617" y="947" type="qcurve"/>
      <point x="617" y="1176" type="line"/>
      <point x="0" y="1176" type="line"/>
      <point x="0" y="1320" type="line"/>
      <point x="1400" y="1320" type="line"/>
    </contour>
    <contour>
      <point x="269" y="-32" type="qcurve"/>
      <point x="269" y="-75"/>
      <point x="208" y="-136"/>
      <point x="165" y="-136" type="qcurve"/>
      <point x="122" y="-136"/>
      <point x="61" y="-75"/>
      <point x="61" y="-32" type="qcurve"/>
      <point x="61" y="11"/>
      <point x="122" y="72"/>
      <point x="165" y="72" type="qcurve"/>
      <point x="208" y="72"/>
      <point x="269" y="11"/>
    </contour>
    <contour>
      <point x="1294" y="-554" type="line"/>
      <point x="1168" y="-651" type="line"/>
      <point x="872" y="-236" type="line"/>
      <point x="1001" y="-144" type="line"/>
    </contour>
  </outline>
</glyph>
